<mxfile host="Electron" modified="2024-05-30T23:28:07.820Z" agent="Mozilla/5.0 (Windows NT 10.0; Win64; x64) AppleWebKit/537.36 (KHTML, like Gecko) draw.io/24.2.5 Chrome/120.0.6099.109 Electron/28.1.0 Safari/537.36" etag="t0xGy35yCDOwEtoLsazc" version="24.2.5" type="device">
  <diagram name="PÃ¡gina-1" id="WrvKgWImM33VpH9W9puX">
    <mxGraphModel dx="720" dy="539" grid="0" gridSize="10" guides="0" tooltips="0" connect="1" arrows="1" fold="1" page="0" pageScale="1" pageWidth="827" pageHeight="1169" math="0" shadow="0">
      <root>
        <mxCell id="0" />
        <mxCell id="1" parent="0" />
        <mxCell id="rb_Nm_DOeKc3W-S-42o_-1" value="" style="shape=image;verticalLabelPosition=bottom;labelBackgroundColor=default;verticalAlign=top;aspect=fixed;imageAspect=0;image=data:image/png,iVBORw0KGgoAAAANSUhEUgAAA88AAAIlCAYAAADrI8qTAAAAAXNSR0IArs4c6QAAAARnQU1BAACxjwv8YQUAAAAJcEhZcwAAFxEAABcRAcom8z8AAP+lSURBVHhe7L0HfBVXlu7Lm5vDvHvfDZPu3Ind0z2xp3u6e7rb3e12NmCDjW2wicYEk0zG5JwzQiLnJCEhkggiSAQRJIFIQhHlnHOO661v1SlxkAshCekcdLTWr/46qqpdu6r2rr1rfztVjw8//JB69+5NvXr1oiFDhtC8+Qto5+595HvSj06cPkvHT51R2oHvSUVRlNbipyiK0kqs8hDlWfzo2MnTdPqcP10MuKIoDuKq0hUJ/C6XrlyjC5cD6aiPL23c5EZz586lmTNn0rx586gHhHPfvn1p2vQZdO1mMBVW1FBRRS0VltcoiqIoiqIoiqIoSrcDmji/tIqu3wqhVatX0+xZs6hHz5496ZuJkyg8Oo6qGomKK+vEoaIoiqIoiqIoiqJ0W1gbV9QR3X8cRQsXLqQen376KXn5HKfyWrJU3FaUVtRQeaVBGVPE61buFEVRFEVRFEVRFKWrYjYu+/ieoB4jRo6g8Jh4Kq1usHRsTxFTUl5FUfnVdDu7mm5k1VAI/6YXVVGxCmhFURRFURRFURTF5ailCNbMPcaNH09ZBaWiqK0dGhQzZSycb6WX05yHlTTqbjWNu1NBh6OLKKe4UsWzoiiKoiiKoiiK4pJk55dQj7HfTJVm6JbEM4RxKQvnoOQimnq3jD69VU2f36ok98cllJRXxvurLY/rCEqq6qm0plGu0Wq/Cfa3peu5oiiKoiiKoiiK0jGgJ3NlPckY4Qr8Mlh3hkaDNizj8zbXkLhG6Ev7ba0FfvUYNnGZrDxPPEM4l7E4Dkoppil3Sqn/7WoacruSdkWVUWZhBZVWfveYjqK4spaSM3IpNjGN8koqnyugsR2t5w+jnlBBGYR862YLR0SWtKK7OigoM4Q8jnnedSiKoiiKoiiKonQ3oI+SM3Mp9MFjuiNE2H4fU2xSmuUxnQWuJbuwlGISUp9phC3j/1OzCygxPec7x7SWHkMnrpR/rMSzCGdbV+1p9yqbhPP2iGLKKqp47mRh8Kt5LQP+xzbsgxDFTaBWAttRK1CMFmYWsuZ1QKjWENGFgOu058BhSssppOpGw205Hwd3OBbguMexiTR/8VIR2cV8ImxHbUcRn8Q8PwLPvIaymgaKS84Q0Y2AhBv4U9Vg+Gdet0lJVR27LaGEtCy5NsMPwz+4xz3hV+7HFklwZ+6HH9iG/eY1GP6yGz6neQ2KoiiKoiiKoihdBTRGZuaX0LJVa6j3h33oq5Gj6cuvRtLwEaNowBeDaPDQ4fLJJ2g0q+M7mvLaRhbOKTRhyjS6ejNE9B1IysilxctXkveJ0+LO1GNtgcXzCvmn+cEQxUVlVXQ9uZimhZXTgNtVNDSkinZFllB+URnVVFVTRUUVlZZX21p7zeMM0Rhy/xE9iIyVfRCL0az8g8Meyv4yviEIynvhUfQ4JkHUf0ZeMaVk5UnAw01adiGlZuVTTmG5CGeI4vjUTIqKT+Fj4kV4h0fHU1Rcspwvn88DYYtjIZIjWEzffRDB92VMMw6hjP13H0ZQAV9zTlEpfT12PK3duFn2wT+c79qtUErNzpdrNu8JYVNSXUv7Dh2hr8eNp6s3QmR7XHI63brzQK65rKaeUjLzKInv5UlSujwgmfnFdPvuA6nhgP845lF0HAXfeyT/Q0jn8n3dDL0n94FtuFb8KoqiKIqiKIqiWGH2iq0mkgZGeyAUS/iP1XGdARo3I+OSaP6ipRR6P7ypMRINhOhF/CWL6OzCMmkstTq+oxE9yOcPDLrN2m0C3Qy5x7qskBYsWUYbPbZRblG5hJ3VsS+ixxAL8QzhXMwC82ZKCU0MLaUBwdU0JLiS9kWXUSafLDC9kg7HVdIB5kxSBW/DhGGGSC1g0bjnwBFatnINbdu1V5rMr9++KyJ1g9sW2nfQU1pwz1y4TLPmLqDNW3bQqK/HUcD1WyxOPenKjWBphfU5eYYOeR2jW6H3ZXtcSqbc/JoNbnLjK1ato/VuHjRxynQKYTGawsJ35pz5Itbhx+p1m5iNdPLMeRHnEyZNJbct22n6rDnSko0Zxt99rycNGz6Sgm7fkS4FaLlesXq9/EJkV9Q9bZHOLa6iBfxA/Ob1N2jH7v10PyKGdu7dT4uWrpBrqqxr4Ov0ooGDh9G6TR58fCRt27mX1qzfRO5bd1ICC/9bd+7zNbvT4mUrydPnOIv5bNq+e5+EFe4VlQTtjUhFURRFURRFUboHpdX19CQ5nY6xZjp59kITJ/zO0xn/y9JluT0tq+0B4jkqPpkWLllOwWGPpIEQuhDbE1KzaMTorx0qngHOj8bQoOC7NO3b2TRu4mTaxrorv6zypXr8tiieb6cW0wQWz1/cqqBdkcWUUVBGJ5KraEhIFfW+Xk2DblfS8fgyyiutlguE8EM36NffeIs8vY9Tem6ejFceM2EiC+SxtIrF7Gu//i1dCLhGX436Wm4mIiaW3n2/Jx3x8RVR6Xv6rAT4Zha6K9duoHMXA0SgooUax6LpfeuOPfS7N9+ke4+j6VsWzBCgkbGJ9FG/T+kBi9oR7PeUad+Kf30+6ie1Dm+/+x5dvBIkYhotzvfCo9nNDDpw+KhE6ux5C2nrzt2UnpVLs+cvpBVr1vN9Vcg94d74hw6zwJ3Mx0Q+SRShe/naTRbGO+j9nr0oOiFF/Piw78d0J+wereTjB7GQXrvRja/rE7mfpPQMOnsxUAR1n4/7kT+HQ88PPmR/bkg3gtbMeq4oiqIoiqIoSvcG4jkuJUME85kLAU34nb9E/pevyjhjx4vnZdLrFlqu0Cae41OcI54BWsCz8ktYi06iH/zd37MmvEUs6UTbWblvDc/vtg3KquhachF5xhRSfG4pbYuuoPeuVtLHN6tp3N0qupBULm7Q6izH2H6PnTpD02fOJo/tO0Rgjhg1htZucKMj3r4idNHq/NmAL/jSDZs0dTod9PSRfvKnz1+UG926a6+0ViPyl61aK+L50/6fi5j1D7gqIraOjz181Jc2uW+jsEcR0p/+HIvTT9lvtFYf4X079uyXVuVPPhsgLcjo+j1nwSIW7mE0b+ESOn/5ijx46E6Qnlso13P63EVasHgpR3ZmU80EznXc75y0eueXVlLAtVu0YvU6aTkfPnK01LIsWLyMNnlsEz++/GoULVuxRlqY0QKPyDrifYyWrlxNB4540/u9PpCKBS/fkzR+4mTas/+wbby2imdFURRFURRFUZ5PU7dtdNO242m3bccJVbPbNvQTegSjxRfnx/xTiWnZ9NUox3bbBtBwSRnZrN2W07bd++nStRvSYxkNsdjXXgHN4nm5/GMl2tACXVJeTYUlFXTgSQX9+EIF/Z1/Fb0XUEJn4oqovJL3NzsxLgStshDB4ydNEVE4Y+YcOsiCMT0nV8b2ovty/88Himh9kpAircNHfU9Jt+qtO/fI9ikzZkp3aIjhRctWyPhmuMspKic//0s0/ptJUquBrtKr12+S/vWf9v+CboXeowkTp0gLb3JGjkRk5JMk6vVBHxmHjPVvZ8+l67fv0NwFi+kQi3acb+qMWeRz0o+KS0qkuzfOnV9SJYIb92SKZ1QKoKV6Kl+f+7YdFHj9Ng0cPFQeFHRVwLGwxUtX0vqN7jL+Ga3SGOs8/pspcn/XboTQm2+/K2MA0nOL5N5Hjxkv463xwNuHp6IoiqIoiqIoyqsKxCjmkEIvXI/tO6XX78Ur12VY7lHfk9JoCg3nKEEP/YY5pxYvX0UbNm+lgrJKaXEOvHGbxrKGvB32QK6lPQK6x9ffTJV/ntfiCQFdySL5YmIx9Qwsob/2yaM/nBdA43ZcpdTcEqqseRoI8AOtp1Onf0vDho+QMcIZeUV08swFGjz0S/p67DhpCUb35N37D8nsa2vWu0m3bd9TZyk6PpkGDRlKk6ZMo5Ffj2XhfYjF6S3a5LFVRDe25RZX0KWrN2j+oiUSUT4n/KQ1G921MXYaE4dh2+cDB7MgHUdex05KCy+6iUM8owsDulTfuvuAzl+6QkOGDief434ykHz4yFE0dNhwEciPouKaZsUGvMixaPGePW+BXP8o9v/rsRNE+D6IiJUx3ehS3tBoTFg2ZvwEGjr8K1rCEfeEHyi3LTvoi0GDWbQvokEcHmHhUdLqPnL0GFq3aTMlZ+bxPTlucL+iKIqiKIqiKMrLABEKrt0MkeG2y1etpeWrGf5dtnK1jMs23TU/tjPAZGmY88r7+GnRjmZLM35v3nkgjaiYJ6td4nn8hPHyz/PEM0AX7tKKKrqYVEK/XBdEPT7eSj0+2UaD3C5TdFo+lTY7Fq2paTkFz9QwYDbttGzeVlguF4sJvjAzNbpUYwwyxiPXEskM1Rl8PJr281mIQ/BCkOMYzIwGv7ANAWH+b+7H+cxPU8k14Hy8zdyH7fg/r6RCfs3rwj7cP2bNRi2FeUxQ8B1p+QaYVCynqEzOi2OwH784j+ke1wHgL/xDJQGuAfdkXivc4zw4xlgvbJpN3Lx2RVEURVEURVGUroIpoKFxoONMsO4o0WyPqfXsW7txHVg397UHFs8T5J+WxDPAuObKqlryC02gX8w5SX806hD96dgjNPfIbcoqrHjmeFwUvvdlfsvLvFBQWt1I2SwqT5zxp90HjtD0mXOkxRaDudHEbroD8BPHit82P0z/zPOZ/5vneHo+wy/TnbkPmO7NY+yPx3XjOvJYJB89dlImBAPocgARjM9gmceIexs4HtvM85nnhH/4Nc9rrpvHGP8//b61oiiKoiiKoihKV8NeD9mD7VbuOxur82Lby1xPq8UzwIkqqmvpTkIenbqbTMdCksjvXgol5WCW6NZdBPyA2sennA56ektf+ALeDsFq5d6ZYEw1BroDc8p1K3eKoiiKoiiKoiiKa9Mm8WxSUV1P1XUNQmVtfdNs220Bfc4xORaEqYpSRVEURVEURVEU5VWmXeJZURRFURRFURRFUboTKp4VRVEURVEURVE6lFoqrHg651JH4zI9d/k+ijAuuol6KsLcUFZgn2COo3Z8GKh4VhRFURRFURRF6SAg7IoqG6iwrIpKaohKahn8mv9XExVXYehq2/UXvoKE35eZMfpVogBfTcKXi/DbRIVBsQ1z3dyPe3dS5UGPCRO+oarqOqqpbZBfRVEURVEURVGUbklNPVXVto/qukaqaSSqI6KC7HCKv7Wc8tLvUGFWOBVkPrTxgIrzE6i8vIj4VPKp3mr+tfLPipo6FuWl5fTgcTRV1vD1Wrh5NamjSlBdS+WVNVRcVkH5RSWUFhtHUV7eFL57Lz3cvY/u7dxNd7fvpNCt2yl0iw3+/862HRS2Yxfd5/2PjvpQzOMoSszIovSsHMrJL6TC4jLxs4z9rqiqlbDB+ayvxQbi2uoZaIEe33zzDccwx3IDxxx+FUVRFEVRFEVRuiONzEtYdWkKFSaepcgTPem223+w8R+fsunf0f1DP6K4SyMo+9F2KssO43NCiLXeiopL6Jz/ZWpoaNtxzrRGDldcb11dHVVXV1NZWSnl5udTUkIC3d27lwIGDyb/jz4iv7596UTv3nTs/ffJ57336Oi775D3u+/K+vFevejUhx/S2Y8/poAlSyj0xg2KjImhpKQkys7KoqKiIiovL6eamho5D86H8wJLw2arZ6AFVDwriqIoiqIoiqKAdornmrJMyg7fRY+PvUW3WCDf2vhv6Pbm/0RBq3vQdSZoDYNfGzd4/ea6HhS26y8o8fp0Kst9YPPpxQbxfP5CQJcWzxC5BQUFlJaZSTEsgG/v2EEXBw6ksyyeTzG+ENA9e5I3BDTjzeIZ68c/+IBO9elD51hAB0JA37z5VEBnZzcJaJyjtra2SUBbGjZbPQMtoOJZURRFURRFURQF8NJWK04NpMjj70nL8o21LIrX92AB/e/pzo4/ofS7ayg9bB1l3FtPGWFgHSXfmMUi+80m9xDW9w/+I2U+2EwNdZU2X59vXVE8w0wBjZbhyspKpoKKCgspIytLBHTI7l0UOHQonWdhfPqjj+gEC2UR0b16kQ8LZ/xCPJ9k8XyG95/v14+uLFtGd2/fptj4eMpITxdBXsHiuY6Fs3k+U0B/R0Rj1eoZaAEVz4qiKIqiKIqiKICXthgE77293zNaklk0h3v/llKDF9OdXX9Gd3f9X2psqLG5fNaqihOoIP4UPbk0kkK2/i85/rbbv6fEa1NeKKBbEs83b9+hFWvdaNnqjbRizSZasnI97T3gSUVFxTYXhuUXFNLtkLsUevd+pxIcGkaPHkc2CVdcc319PRUWFvH579DFy4F09pw/+Z4+QwcPe9KOSZPpyLvvk9dbb9PBN9+k/a//jvb99nXa+5vfCvgf27Dv8Btvkvc775DvtOl05MAh8vI9Qaf9ztGFiwF0+co1uh18h7JzcuV8lgIa/1o9Ay2g4llRFEVRFEVRFAXw0lpLu7uOgj3+X2k9DtnyPyjl9nyqLkmmkrTrdHf3X/C2/4+Kki/aXFtbfU0p5cedogeHfyLduG9v+veUcG1iiwK6JfG8Z78n/ezX79FPfvk2/fS1d+mffv4GDRkxntIzMm0uDAu6FUI9PxpI/b4YQZ8M7Dw+6DeYvpk6u0m0mr9x8Qk0cuxk6tn3c/rgk0F8LQPo3b796Y33+tCQn71GK/72H2nND/+OVv7gb2nFD35Iy7//A1r+PQa/f/MDWvE3P+Ttf0ur+Hctu5v0s1/RO2/2ojd7f8J+DqD3P/yMBg0fS0E3bss57btwNwlo/Fg9Ay2g4llRFEVRFEVRFAXw0hrLiTxAoVv/QITzg0M/pqKUQGpswDzbRJn3N1OI+++LsM4M3yHbXmQVBTEUcbKndOFGl++kq5N463fFMawl8XzYy5fe6vUp/e69j+nNnp/Qb97uQ2MmzqDMrGybC8MuB15jgf0Wvfbmh/Trt/p0GhDwXwz7+jviOSY2jj7qP4z+5bV36Fe/60X/+vr7LPrf4fW36F9++Qb1/9HPaNH3WDT/1fdpyV9/nxb/1fdo0V/+NS36Cxv8/2KsY/v//XNawaJ6xI9+Sj/551/QP/3id/Sjn79O7/T+lPwvBjSNs35mEjFENC7F6hloARXPiqIoiqIoiqIowGyVbMGqCmPp4eF/ka7WYXv+ikqz7tj2GPbEf4iI4JCt/4OyHm2zbX2xVZUkUcSJ920t2f+bcqOP2PY8axDP554jng+1STy/Ta+9xeKZ3VjC4ve373wk/tjzu/f6ib+WxzTjp6+9x+J5zNPWXps9iUug/oNH0a/e6E2/e/cjPk8fFvK96ecsoH/8yzfpn//1t/TJP/yYFrB4XvaX3zMENMRyMwE9/0/+lFb+/T/SQ29vijnvT5PeeJd+xgL6H37+Ww6Hj+n02fNUUVEhfEdAN9jFeytR8awoiqIoiqIoigJ4sbfG+moWWk9FakN9FcUHfC3COWTLf6fMB+62PYbVVRdT1MneFAQBLOJ5u21P66yqKI7u7f87Ed8Pj/yEasqzbHueWke0PAfdDJYu0x8PGE79Prfmky++og8/GSL+mcL5jff70Xt9BtDHcMP7rY6zp9fHg2j8lFnfEc/ott1/CIvnNz+Qa3393b70xnsf0ft9+ku367c/wLn60Mhf/45WsThe9f0f0oof/q101172/R/Qsu/9gBb/37+QfXcPPa1kwDegJ772Ov3mV29Q3wFD6fSZc1RQkG/9GSsWz421HIZWz8FzUPGsKIqiKIqiKIoCmom82opcyri3kSoLomW9KOkChW77P3RjfQ+Ku/gVu39WwJZk3BLxi8nDIJ4z2yieYRn33WTs860N/5HS7qyQbbUVOVRbmSf/t1k8f8PiOfNZ8ZyXV0A3boXQrZC7zyX4zj3auecg9e43iMWt0QKNluJxk2bS1aBbMhmY1XH24Bz3H4Z/pzd8XHwiDRgyml5j8QxB/uu3PqTPBo2gQ0d86FLAFTp56gx5+RynAweP0LFFi8i7d286/MYbdPDNt2jf66/Trl/8gvbx/499jol/xfHxlHjhAtWxQL672Z08Bg6m3Vu30+07dyklOeW7n7Gqq6WGunoVz4qiKIqiKIqiKO2imXhurK+htNCV9NDz55QduZ/iA8fJd5pDt/8RlWbetrl6avmxPnRnxx/RzQ2/Z4jn8J22Pa03TBYWKd23f48eef2CUkOWUFrIUqopS5P9HdFtu7V2K/gOffTZl+xPX/HvZ799n+YvWW10eX4Ji09g8TyUxTOLZvj7y9/1pq/GTKakpGTZj89YFRbkU3pmBkVGRVHwrl10Zdgw8u/Xj0737UvnhwyhJBbLsJLkZLrw9Wi6NH48VRcXU0lcHAUOHkQ3Vq+i0OvXKTI6uuk70IWFhYaArqmmuhoW0DVtE9Aqnk3q+f6B1T6T1rhRFEVRFEVRFKVrwst3jAV19JlP6ebG36O7u/6MbvFvzNkBVF9TZnPw1FJuzZMxy/iGc/CW/07pYRtse9pm8Vcm0O3N/5FF+L+he/t+SEUpl217HCue0cLc97NhTeL55yye5y5ayeK2yuaifdZcPGN89edDv6aTp8/R3Xv36dqNm3Q54CqdO3+BjvudpUNHjtLuKdPI8/2e5Pm7N+jsqNEsfmuorrKS/KdMoUNvvU1pN26I37F+Z+jumjWUdvkyhbDovh0QQJExMSKgs7KyREDLGOgqFtBVTwV0a0S0imcT3P+LwgD7+UcFtKIoiqIoiqK4ILxYGcYiP/L6JYvZHiye/y3FB4z7zuekGhtq6cnFL2W8c7D7f6Fbbv+Bnlz40rb3xVZfW0aFif4szD+nOzv/hAX4f5Kxz8k359hcGNYRY55ba9c6TTwnsXj+ukk8o+v2Ox/0lzHYnw0aSZ98MZz/H0Z9Px1CH3z0Bb3/0ef0Vs+PaOjP8Rmrv6f1f/9PdG7+AqrIz6fs8HDKi4kVf7Oioun6xk1UmpEh6/kPH0qrdXMBLV24y8qpuryKaitrWi2gVTzD+N5PnzhNvt6+xvpzLCw0jLZv20nF+UXGBiv/FEVRFEVRFEXpmjTrtm1vORH7pFU5ePN/ptDtf8gi9zMqSQ/iQwwRW1UUT+Hev6FbG/4fFs//VYR2+NHfyL7nGQQ3vg2dfm89u/013dnxxzJeGgId3b5vrOvBgvwraqitsB3RjpZnizHPrTVHtTybAhot0JhE7FdvML/rTb94vSf962/eo5+99jb9hDE+Y/VTWvAX36Nlf/HXdGrqNCpMSWURXE6xgVfo+mZ3KkhOZn3XQOk3b1JFdjalnDtHV1esoOCrV5u6cGdls4BGF+7isjYJ6O4tnhEutXWUlpRKXwwYSH0//Jiy0rMoNzuXcjNznpLF67l5tHL5Svqnf/oJBV0N4gem0gizegt/FUVRFEVRFEXpejxPPLNAzghbSzdZzEIYo1v2rU3/ju5s/yNKDppFdZX5VJp9h+4f+Hve/m+axDNaq62sriqfKvIeU/zlMRS67Q8oxOO/iWA2hXfshS8p7tJIEdKPjr5GlYVGyyrMNVqercXzb9/pK5OHAUwm9tobvemXv4OAfp8F9Dv041/hM1av0yf/8BOa9+d/RUuZVf/0z7T6n39CJyZPpXwWxujOXV9bS4927aKAiRMp7vhxivf2ptvbttHtwECKQAt0chJlowU696mAbk0X7pcTz+i+zD9t5lXo9szXUF9XT9u37KB33nqPvv/XP6C//qu/obfefJfefacnvfv2+8/w/ru96Mc/+hf6P//nz+kX//oaTZ0yQ4S1mJX/iqI4HuQtrTGrYxVF6Z6YZrVPUZTuBy9WVluZKy3NGO+MmbABWqBvu/0HFsn/D0Ucf4+eXPiKbm40hPNT8fwrmw+GVeRHUW7UIfmec7DH/yvH34J/m/8T+/nveP3fU8LVSVRXXUiJ16ZIy3P40V9SZUGUzQcX7bbNvN37M/rw0yHSdRvnBH0+HUoffjKYen88UD5h9d4Hn9GbvfrR7979kL567XVa8cO/pyX/5//Sup/8lBJv3BS/H/kep4SLFynp0iUKXr6cStOMidYyg4Lo+vr1FHzliiGgE1lAp7GAzjMEdE3Fi8dAv3zLMy+tBudo73k6Gl4KcvLpV7/8Df3+f/3v9H/+5M+EP/yDP3kuf/LH/5f+lMXzH/zvP6b/9T//kAIuBvLNsOkYaEVxPvWN0uUm6OoNOrjvEHkdPipDMU76nqSjR47K+oG9ByjxSYK4tfRDUZTugy0fuBtyl+6F3qPGGi6gaN6gKMpzWp7xmagYTBq2/vfo/v6/pbA9f8Xi+b8YQpl/IXpFUNuEc5N4PvprmbG7NOM2pYYslsm/bm2wCXAWzOKHx+/LthAW0xDMDfXVfB0NlBA4TsTzo6O/ogrbp7JgzhfPKzpcPOM60RLtc/w03bwdKue9GnSbrl6/SYFXg+hSwFXyv3CZTp85T8d8T9FBT2/ave8AHZ2/kDx79qKDv/4N3VqxQmbbTrxxg84NH053NmygktRUqq+upuz796m6qIgST56kgKVL6TYL6MhoFtBxCSKgC3MLqKLku2Ogmz8fPSZMmGCstEXU4uXC3OKbmTJpGk2f+m2rmDp5Gs36dg49uv/IENNWfjsKtszUDPrNa6/Tf/t//wf9z//xB60GwvmP/+hP6fxZf/FHxbOivAKwlRWV0rQpM+hvf/gP9LOf/oL+4s//WtLsT378U1n//vd+SH4n/cStpR+KonQfeMHvsCHDafSIMVRXWat5g6IozxXPjSxo8ckofKYq2q8fpd9ZJeOe0XXbEMssoNESbYpi3oZW5bsssuMDxlDY7r+kG2swC/d/ELdPRfbvS9fsu7v/nLIebWPNbHSjw2RkCVcninh+6PkzKs+PkO0wV+y2je9Hjxo3lbJzcm0urK2Bw6eyAp+xKqC0DNtnrHbvoitDh5Jf7950d+1aKoyJocjDh+UTVrCakhJKYbFcVVgos3MHfvUVXVm+nEKuXqPIyGgW0ImUlZYpAtqqC7f989FjyuQpxkpbxDPcMn4n/Oj1375Bb77xNr315jsv5Hevv0k93+tFN64GGS8tZ4pONojn3/76d/SP//DP9MnHn9Gn/T6T35b47NMB9Mbrb9Gf/9lf0bkz58UfFc+K8gpQ3yiZXGpSKj1+FEFREVE0c8ZsGWYRcitE1sMfhFNxXqGR/9jyMcu8D9uQroH5v7nP3NZ8u9X+1rix2q8oSufDC37Hfj2eJn8zpWXx3FKaNffZbzO327u1X2/uD/43/bfyS1EUx8HL8yw/5qjxjeet/5OK065TWugKFsP/SQQxum5jHDTGPIds+e8iiKVbNwtpjJM2RPPv24lmA7gL2/1XVJB4znYWw2qrCiny1Idyvlj/wVRXbZuwmM0Vu23/mq9z0PCx5H8pkCKiYij8cSQ9AuGR9JB58PAxhd1/SKF379Gt2yF09VoQXbh4mU6d8yfPo8do7/QZxmesfvs6nRszlgrj4+U86LqdGRoq/1ex4E44f54S/fwojbffdPeg4MCrTQI6mwW02YX7eWOge6xbu854UNqRWaNpGyodk2y1jkzK5t/qskpL/xwKW0ZKOv2GxfP0KdMpPTmN0lPTjd8WyMjIIK/DXiy4f0SnzRYs+xegoijOA2nRzjZtcKM3fveWZIDPGPI7M93y8kxlHn7NbaAlt+Y6/rc/1txvvtPMdQDDj+nefp+iKI6DF/xCPE9i8Vz7PPEMd8BMq+a6uR/p3H7dfjuwX+cfAf/b5xPY1tx/zRsUxTnw8jwrTPATsYwW5IL4U9RQXyNjmiGQEwInUHHqFarIC6eS9BuUHraeRfb/sonmZwWzwX+Rbt1he/6aCpMu2s7w1KpLUyh02/+m66t6UPKtBbathkE8O3e27Y7otv1syzMmC3v3wwHymaqBX46lL4Z9LXwuv2PkG9ADhoym/oNHUf9BI4xPWfUfRn0+GUS9+g2kd3r3o6H/+msZA732b35I5xYsosriYsqPiqLixETpun3XzY1ijx+X81dkZVHgqFF0adYcaYGOgICOZwHNWvV5LdCgx5kzZ4wHpb2ZNI5rK1b+OBo2iGe0PC9bskLWW2vXAq/RP//oJ3TqxGljw6tyT4qiGOBdwqxbvZ5e/+2bUotoFkiR7j3cttCQQcPog5596NvpM+lB2AOkZNn/JCqWRo34mu7fvU+b1rtJl06MiYSVFpbQru276fP+A+nD3n1p7ep14p8Yn6+ytIJ8vY/TN+MnU8/3etOwwV/SOb9zRm0lron9R8v40sXLqd9Hn1KfDz8m903uxufvcH1W96IoSufAC35bFM+8JMQm0Po1G2jwwKHUu+eHNHf2fIp+bJu4h/cfPXyUJo6fJPOoiJ+c1pHmlyxaSus5D4I/9dV1nB+to63u2yS/6ffxp7R5o7vsQy84tw2bafjQr6jn+x/Q1IlTKTI8sun6FEVxMC18qqqiMFZmz8bnqhICxojbivxwSg1e8p1vPsPQDRvjmCG4nxHOm/+z0eLMwrko+ZLN9bOWFb5TZu0OYQGeE+Np22pYm8XzS7Q8d96nqp5teTYFNFqgX3sTM23b4P0m8gkr+YwVZuDu1fQZq5/+6m36ya/eYt6gz370M1rwl9+jZX/2l+Q3czbVlJVJPKH1Of78eWqoraXynBy6Nm0aXZs4kWIPH6bg7TsoOODKMwLavgXafgx0jwv+F4wHpS0CEPHE7s+f8adPPu5P/T/9ggZ8NvCFfNpvgLx8bt8INl4KzhSdbGbL8+IFS4xtuK/m7prDdsn/Mv3on1Q8K8orC9Iy8x3xzOZ5yJPGj51Ahw4cIW8vHymwfvpJf+lZAnt07xH99Cc/pylcgMWcDsuXrpB5Gqr4JTFh3EQRvfv3HqCD+w9R3z796KsvR1JBboEcG/HwMU2aOIXcuFB8wvckLZq/mH79q99KngHDDP2f9uvPx4wgn6M+tH/PAWa/ZNJiVveiKErnwAt+W+y2zbZ5k7tUoh094i0TD37S7zOpQJNKL7aN6zYSvtTRlI7hNRewhg7+kiaMNSZlRcsF8hOI72+nzaQpk6fR8WMnpECGiQyn8r4jBz3J68hRGjrkS/rskwGUnGCM1XvmehRF6XxaEM+NvC/x2lTjW8/uv88i7KGxvaFOfptbTUW2tB7btz5jXDQ+SfXw8E+oKCXA5vJZa6irpsgTvSiIz4PJwqpKbPmBzVrqtn3wiA/99t2PRHj+5p2+LDB70chxUykj05ZHtdGuXLtJvT8exP70Fv9+/Mu3aNb8pS8tnuNYpH4ycASL8Z7ir8ACvel/K7CfxTW+BW1+yupXb7CIZkH/81/jM1Zv2T5j9S80l8Xz8r/8a/IbNZpuL15M99zdRUiXZ2fT5W++oXPDhlFeRASL4hqK2LqNLsz4VgS0dOFuoQW6x6aNG40HpR3i+WrAVRozahyNGzOBxo/55oWMGW3U7t4LDWvyw9J/R8BmtjwvUvGsKK4F0jLzHfHMaVUKvHBjs7vBd+g3v36dTvickPWIhxH0rz/7pUxyKN29bU53bN0pYrmppZktKS6J3nn7fRbkXrJeUlAsLUymoaUaBe15cxaIP7eu36J//tG/0MN7xssWhkK2tEw3vwdFUToXXvDbonjmPKOoWZ6B3mc//Zd/pYvnjW6W6MnyQa++lJNha9Vhp0jT6MEybfJ0ORb5wsQJk+jXr71Ot4NuSwFc/KxtbKp8My3oapCUMc6dts2rYl6LoiiOoQXxDCtMukB3dvyJjGOOu/iVZYuzaZihO+QZ8YyJwn5fJhyrLIyxufqu5UV7UYjH/0c31v0eJQXNsG19ai2JZx/f09Tns6H0Qb9B8tmnnn0/pykz51NWtu0Tu200zHw9cNhY9meg+IcW4qWrNlBVVbXNRfssMSmFhn89md7r87n42xY++GSwAd+j8Qmrz+m9D/vT270+odff/4h++3ZvGvaLX9Oqv/9HOvSb35D3G29Q5KFDct7QdevoLAvn3PBwyYvTgoLoxowZFDB8OAUuWkzBlwObBLTVJGI9xo8fbzworRGOzXkZs/LPkbCpeFYUFwVpmbFqeUatYdide7Rv9z4p9GJSsX/8hx9LKzAs/H64FHAvnLsg67CG+gYaPXKMdLP28fIhH+9jwu4du+n73/8hzZ09z+aSKD42Xj6N5b7Jg9by+X/5i9eMAjQXklP4RfH2m+9KYf3evfuGaIZpHqIojocX/L6o5Rmtw7du3KY9O/eSu5sHTZ8yg378zz/lvOCY7G+VeK6pozGjx9Ln/b9oyosk3fP/Dez2bvBdyU883LbSzOmzZVJSs1JO8wdFcTC8tGQNdVUU6z/UaH3e/J8pJ/qwbc93rbo0+ZmWZ8zM/cjrFyzCuFzyHKsqTqR7+/5G/Mcs25WFTz9RZVpL4jkpJZUCrwVRwJUg+cTT5cBrdCfsAVVWta+lOCc3j4JuBrM/8O8GXbx8VSbxqq9H5tR+KysrZ2F+h/29Lv4GgGs35P+WEHe4ryvX5d4uBlyl8xcDyI/Lbb4n/cjL+zjtO+RJO3bvJa8FC8jv00/p5Hvv0a358+VTVbmPH1OxbRburLAwij12jAqioqg8I4Pivb3pxiY3Cg582oW7uYB+qe88FxcUU1xMHMUDLjC+CLhNeJIgJ3f6txTZtNu2orgoSMuMIZ7faBLPFWUVtGHdRurT52MaPmwEzZu3gBYvXCozcj8Vz4/o9d+8QQ/C7ss6DJ/AQhdMzMz/UZ9+1Kf3RzLmuS+L6Q96fihiGebPGXe/jz6hgQMG04xpM8ltgzu9/dZ70iWzvspokb5+9bqMt0Y3z8kTp9Cj+w+NF3WD3fUritL58ILf54pnTpPFRcW0dtU6Fsd9aMTwkbRw4WJaOG8R/ZLzDHxHHubBghr7m4tnVLiZ4hmtFZO+mcz5wreGG5QbOI+q5e3oFv5x30+kazjypIXzF9PffP/vZIhJk1vzmhRF6Xxe0PIMK80MobC93xOB++DQj6gsy5jNubkl35xrfAOaRbZ02WYR/eDgP1L2493PzJ5tWmVRHEX4visTieG70VmPd9r2PGstiefuavV1dVRZWcn5dhFlZWVRQnISPXjwgK55eND5AQPI74MP6N6mTVQUH0/FSUkUf/YspV6/LsdW4Zi7d2VSsaxbtyho/XoKuWL7jBUEdLoxCzcmy26feLYVTE/6npJWlV+/9lsRoS/iV7/4Nb35xjt07QpfKHvj1BcCmymeteVZUVwMWx71TMsz29XLVzgfeo28jngZeRBbfnaeTNKDViWYKZ7le/Q2Q8vTkIFDadaM2VScV0SF+YVUkFMgNZGgqqJSuna+/24vaYUuLy23HUnyffvxYyaIH6ZVllXS2bPnaOAXg6Xbd0ykreuW1b0oitI58IJfUzybFVzyTgdsJ31PSuXamZNnjA1smOALn6xELxQYWqMhnvOy8mRdjP1Fy/NUO/GMyrLZM+ca+23+B3Dh90f/+GM6e/rpJ2pSElPoX3/+Kzq4z+hiqGUMRXEwvLTGciL3syj+r/Id5geH/pmK067Z9hjdtROuTaGbG3+PbuETVvjuM4tos/X5tvt/oZiz/aks557tCC4bFMbS4+PvyERiOCbp+nSqrym17X3WVDwbhm7XoI6Fc01NjSGei4spJyeHUlJSKCYuju7du0dXbQL6VM+edGn0aDr/5Zd0afx4jqdKKsvIoNSrV+nB1q30YMsWaZ0OmTuXLs9fQKHXgigiAgI6oWkSsfaJZ3mxNNKDu/dlttn1azdKa86LQEEWM0rG8EW06XydAZt221YUFwVpmWkung/uO8jC+M2nE/GwXTh7gf7qL/+GDuw9KOtN4tkclwy/2NDa9O47PSk3q9nH+/l8DXX1lBCTIBWE/mf8bTswS2+8VC6iAA3x3FjHnvHlmRb+MJy+99c/oOO28dbfuQ9FUToPXvAL8YzeIWQx38/6tRtEyDZNBsZ27Ogx+sHf/J3MrA/D5IH/8uOfUfTjp+MXYyNj6ZecH4hY5nOY4nnWt3MMBzbx7LF5K/3j3//IGFdts5PHT9Ef/+GfyuRkYlrGUBTH0oqWZxgmCcu4v1mEMATv3Z1/Rhlh63h7LTXUV1NBgh/FB46nyJMfUOj2/82i+d8SvgMNIQ0BfYOPeXjkXyg7fBflRB2mcO/fSoszSLgykeprK2xn+q6peH5qpoBGN3II6IqKimcF9JMndO/+faMF+vPP6eT779PR3/yGAidPluNjfHzo4Y4d8g3ohzt30p21a8l/0GA626cPBSxaLALaaIFOknfBS3Xblgydf9qMlV+Ohg2z60I847MxbbErl6+KeMYLTkxfbIryaoH8jFm1fLUUYNE6DAu9HUq/+uVvpECLMYzHvH3p8wGD6O/+9p9oz6594gaiGV0yUTkoBv/YYqNiZabcQQOH0Pmz/hR8M4T27t5P8+YuoJiIGKquqqYB/QdKt+0rAVelC/ecWfO4kP33MssuJgwKv/eI1q3ZQAEXAyn4VggtWbSM3mNB/sAU6s3vQ1GUzoMX/I4bM57eeuMd2s/p+fDBI1LJBp5EP5HJwX7+s1/SsiXLOc0H01FPb+r38WdSBjBbnlMTU2QYRv/PPpfygaT9mfPob77/t4ZY5nNAPGOWf0xEKGYTz/gM3s9/9gv5/FVo8B06dOCwjIv+4z/6Uzqi3bYVxTnw0lprbKynTBbQwVv+m8yMDWEcdeojyo1G5RcLOhbAmHG7Ij+CilOuUOrthRR1ug/d2fmnhoje+G8pdNsfUMj2PxQBfptFdXLQDD6uzDjBc0zF87PWGgEdxgIaLdD+X3whY6AvjRpFZenplPPwYVP37YKYGDr92Wd07N136fSHfehc348ocNESOwGdSD0mTJhgPCjtFc+2QmqbeBVeBGzoeoXuWKh1jnocSdEcKPhtifgn8bR7xx76/vd+SKe15VlRXk1sec32LduloItZsCWp1tXTcZ/jMr7wd6+/JbNgnz19loYM+lI+QwPD91vxOaoofGcVZvrJhm1TJk2lnu/2klZojGk8dtSXqiqMSTgehD2UbWi5/nLoV+I3hDrOg4nKEuMSpQv3O2+9R73e/4AmT5xKwTeCZUIyzUcUxcHwgt+li5bRD3/49/TaL38jn5ZD5dmvfvEb6Y2CPAMTd2GyQAzLWLxgMZ3zO09fDBhEfqeeduW+feM2DR40lF7/9e9o+LCv5PvuEMpLFi6Vc0A8L5i3kJYvXWkcgPTONHLax5wJ+O7z22+9K+OdMZa6zwd9Ja9qcmt/3YqidC68tMlYtBUknKXwo6+JGL6xpgeFePx3urfvB5QUNJOyHm6jvFhvKsu+J5OLpQQvosRrkyl0xx+LWIZoNsY4/0eKOdOfakqfftXjeabi+bvWqhboe/eaWqBP9+5NIcuWUQXvh6H79rXZc+joO+/QsZ496cQHHxoC+qOPjBbo6yygo2Kox8SJE40HBWHf/OFxZfh+UeD9avhI+su/+B793d/+I/393/3TC/kHBsIZL9fHDx9LYOuLTVFeTVBgrSqrfPopKORznF4rSjhDzS8yPkXF28zPD8ANRC6Owa+9X5LOkdTZXUlBiRxfWVph7DPzT17QPRv7ZGJE3gb3NRXVxn4G54KYx4SLcn7e3O3yX0V5hUD6xKSAJYUlkraRPvFr5g9GnlEu6VrScrM8Q/IG/sG+ltI+/rdfF2z+Iy9pypN4/Rn/FUVxLLy0x2qr8mSCsHt7/0Y+SXV9NYtiaU3+902zbTex2ejqDcGMVugY/0GU+XCLdAMvzQymxgZboeM5puLZ2iCeESbmGGjLFmh7Ad2rF92YM4eSAy7T9blzyfN3b4h49nn/fTrG+058+CGdYgF99qOPKXDxYgq5foN6rF2z1nhQumPhjZe0pFQ6sPcAbfPYRju27pBvubbMDnGLb8NKgRzPtpXfiqI4H/OdYrUNxquShmFmHmiuW6VtbOOfJsP/9u6a7zfXQWuOVxTF8fBiaWae8KI8A7wo7ZvnsV83aY3/iqI4DhZgL2PVJSmUfm89RZ8dIGOa7+7+c4Ndf8YYv/f3/x1F+X1EyTdmUnHqVduRrTdXFs/4hFVtre3rB200iGd7M0V0XV0ti+giSk1NpWi7Fmj/AQPodM9edJzxefd98nnvffJ+7z3BFNDHWUCf7tOXzn3cjwIWLaIeBw8cNB6U7lqAexnrrmGmKIqiKIqiKK4ILx1lVcXxVJh84VmSzlNp9h2bi/ZZS+K5qqqaHj6KoPSMTEpLz6DiklIqLSujxKQUuh1yl57EJ9C1oFt0O/guhYSGUURUDIXevU9Xr9+iuPhEysjKpsaGRvm+c9j9h/Id5Vu377AIrZXvRd+8HUrZOcbkqTFP4ulS4DXxK5b/x3eY7z0Ip5LSUtkXdCuYMtk/+FtRWUnZucZx4Y+j6CpfQ15BASWnpPJ242sFefkFtHPPQbk3dL/GMcGhd+nBo8cUn5Ak9w2BfCfsPt0KvkPVLIxD7t6jG3xNeXn54gfu+3rQbbp3/5EIZ6yfPuvP1xhKqWlplMY0deF2twnoDz6gkyySfXv1ZtHcs0lAe5st0OjC3bcvnf/4I+qxf99+40FRIagoiqIoiqIoSneGl1fdWhLPELYLlqyiM+cv0p4DnhRy5x7FxMbR7v1H6PzFABaOcXTI8xgdOOxNazduof38i/+37NhHd1ksXwq4RnW1dRQQeJ1On/GnidPmihsI52MnzpDfuYt06swFKigsosjoWFq5bjNduHRVBO0mj50iWi9cvkI+J/wo8NoNCuXtq9jNvYfhLITDKCrmCXl6nxDRfdDTh3btOyQCuLComK/5ktyX78kzFMrX7eVzkgV5ED16HEHXWNyHR0azUA4hb9/TUgEQdDOYr8mPzvJxZ/0vUSFf0+Ur18hj2x46d+EyXeRzQHi7bdlJD/j86L6dl5fX9Bkr6cK92ejC7fdhHxbQfZ4voFlc+32k4llRFEVRFEVRFMWAl1fdWhLPaDGez+L5NgvVzSwi9x70osRktDrfEUEJQ2vs48go8jp2SgTrXRbGaGUuZn8DrgRJqy/8R6uwO/uBlmKs4zvKsOssWu+zGIVdYYFcx+4hpte5baPUtAy6ev2miFZYQlIyX8du2rH7oAhrtFI/DI+QfWs2epDbtl30kN0+iUugiwFXZHtJSSkdZeG8bdd+qqyqEsF84vQ5imbhDZGcmZkt7iDmzS7euA6IeYhqtJTjek76nefriCA3j13SCl9dXf3MGOjoJ7F0j4X7VXd38v/8C5uANlqgMWmYz/tPu3D79u4tLdAqnhVFURRFURRFUQAvr7q9SDzPW7RSuk+jlXjpyvUidiEcDxw5Silp6RSXkERhDx7R4aPH6fTZCyxo70j3aHSxPsLbUlLTyffUGSoqKqZ1m7bSg4ePRWBHxz5hMZwiLcJwC/O/GEilZeWUm5dP+w4dle7TFy5doeOnDWGL7uInz5ynbTv30b6DnnT33kM5F1qJ17PY3rprH4WygIV/V2/cknuDAD7FwhctxrEsqu/aWrUhsC8FXqdHEdHSjRzuHj2OpITEZDp5+jwVFBRJ13G0nsclJMp1RERGixDPLyiQ60EFQJOAZmEfHRVDYXfDjC7caIHu82FTCzQEtLeMg35fWqOxTcWzoiiKoiiKoigK4OVVt5bEMybcQrdptBpnZGbJGGW02GJcM1pi0ZKLLtKZ2dnSOhwVHStuk1PSqIbFZfCdMOk2je7VsCvXb1JWdo6I1ZvBoSK2Ib7Nma3RJRwTc2FsNYQ3xCvcXw26SUd9T4p4TkhMkjHRF/m6qvj88BNuk/i8ENMHDvvw7wPKZeF/1v+y3FtxaSlfYw55H/fj465ScMhd9jeXyssryJ9F8elzF/k+isSvk2f8xS8Yxlp7+pwgv3MXqKy8XO7rkKePVBCUlZVRfX3d01m42f+U+CRDQPN9ows3vgN9xq4F2ujCzQIa3bd79lLxrCiKoiiKoiiKIvDyqltL4hmiFhNpmTNPww3ELVqezS7OELBoKS5ncWkaumrDMLkYWoHhFv9DgJqWn19A2Sxg0Xqblp5JJSUlfFyDnEPOW10jE5bBsK2iovKZazT/x/WYXcBhOKbp2vg60Q3cNOzDtcN/856MFuQq+b+url7u1zTz/nEtsIaGRvED4B6bvgONFugiFtAZ2ZSSYCeg3d3pPAto+y7cPtKFG+K5p4pnRVEURVEURVEUwSbQXmVrSTyXlpZKq6tp6SxyLwdek3HEMIhWzLp9K/iutEjDH4jl5ORU+T1wxJvCI6KkpfhWcKjMmI1jk3j/xUtX6HFEtEwC5n/xirQCPwqPpOs3bjcJ21fZcI0IMxHQLMAr+PqL84psAtrWhfvOXdsYaEwi9iGd7NOHjvdGF+5e2vKsKIqiKIqiKIrSBC+vurUknrOys2n2/GU2odgo3aE3bN5G2TnG56DQeux7wk8m0EKX6tkLl7Ng9qHLAdekCzdm18aEYphg7Mq1m+R94jTFxD6hXXsP8f4Y6Qr+IDyCdu8/LK3XmMhr89Zd0sr8qhvCxEQEdHUNVZSUU3G+IaCT0QLN9yhjoDezgB5gzMJ9qk9fOvHBB3ScUfGsKIqiKIqiKIoCWFi96taSeM7OzqEFS1bL/6lp6bTvoBdt8tghM2BDMGISMIxpTklJo9gnCXT89FmZFGzH7gMUExNHU2YuoOTUNPmsFMYab+ftsU/i5BfdoTFT9jE+/oj3cRlPfdjLVz5zhdbsrmJNArq2jmoqqp8R0CmJyRQTbczCfc19i8zCfZbF8+mPPqbTffVTVYqiKIqiKIqiKAZdRDyfe454xqRbo8ZPkxm2L1wOpFN+/hQRFSszW+flFcgY5iNHfeUbzEE3QmRyLUwmtnTVBgq795BGfTOd7vDv5SvXKTYuXlquA/j/Y8f9yP9SoHwSaseeg3TU9zSt3bSFBXQIhUdE094DXiJIu4qJgK5voLqqWmsBHfOE7oc9oOseW+niwEF0nsXz+U8/U/GsKIqiKIqiKIoi8PKqm4hn/8uW4rm2ro7FcozMMo3PVmGyLVhaRqZt4q0G6bKNGbOzc3LFDSb9wmzVpaVl9DgyWr7VjO3oio3Ju9A9G/vi4hPFH0walsPb8P1o8xowXroLaWexxgYW0DUNVF/9bAt0bmaOCOjY2Dh6+OAR3dy2gwKGDKVLKp4VRVEURVEURVFs8PKqW0vdttXaYBDPtQ2CKaArSyuopKCYcrNyKC0plRLiEynqcSTd2b2Xrn05XMWzoiiKoiiKoiiKUM9Ak76q8OVVsch7Epsg3Y4t3SitA/q31hDQDTX1TV24TQGdn5VHWakZlJqcSvGxcRR+xEvFs6IoiqIoiqIoSpdCtVuHYbY+NxfQpYUlVJhbQHlZuZSdkU2ZaZkqnhVFURRFURRFUZTui72ARhfu2soaqiqrlHHQZUWlMha6iFHxrCiKoiiKoiiKonRrTAHdvBUaIhot0UDFs6IoiqIoiqIoiqIwzQU0WqFNeuzbu89wqOJZURRFURRFURRF6ebYC2h7VDwriqIoiqIoiqIoSjNMEW2i4llRFEVRFEVRFEVRWkDFs6IoiqIoiqIoiqK0gldbPOPj1faGdSt3ivPB8/M8s3LfVsxnwf48Vs+sac23d1WapwHTumNllxkWVvu6K88zK7eKNc3zrs54z/Ai2G8zzX7bi+DlO/44E16azGq/M2ker52dZ5pmte9lgOHHap8r0PwdZ8aTae2JN17EzPXm9rLPgmlW+7oTza094Wqa+f/L5r+mWe3rjiBOmtvLPv/2wPBjta8lrI4zzX7bK8qrK54bGqm6vIriY+Ppfth9SniSYFwj77J031mYD96rFj6vEvWNMhMd4ghxFR0RRRGPIuhB2APKSsuULg6Wx7UWfhbwjbXcrFz57hr8vBt8R86Jc9u78zvpJ+7w/zN+dEX43nDf4Q/CheiIaHp47yFFhkdQZVmFa9xja+F7xecBMlMzZLIGSzemWe1zRThMcjKy5Zl4/PAxRT2Oont37lEip8OXTnPdBbu8697d+xQbGct5jC3Tt3LfDhprG6kwt4AKcvKfplmOnjzOp0JuhRjPc2veL3xMaWEJlRaVGuud9U5C4RWGX6v9JmxIk5HhkXJdYlbunAEvsPzsPMk7szmdSJqwf190JOzv9SvXKS+zhXeP7bFqaxnmeuA1yuP7cMn8Hvk6v+Nio2KlvJCamNIURunJaRQWGiafh2nTvbNbpDeJC8Q3L9GPo+nY0WP0JPoJ5XM6rK6obv+zwP7jupLikjrveeoKcDikp6RLvD26/4iy07ONuINZuX8OCbFcbuS8F/7BD8nf2hLf9nB85Gbm0O0bt235qoWb7gSHI95vKYnJEk8RDyOoKK/QFklsVse0BfYfeay826z2t0AOxxO+mSxxjXji6ELZBeWZdse/A3l1xTMbXnpLFy8nD7ettHzJclq/dgMVFxQbLx9cr4l5DP7HC9/cZrW/+T77/eZ2+AF4FRn3reu3RMg3FSbM4+zP1Z3hBYWoC+cv0p6de2nq5Om0ZNFSOrT/MN0LvWeEEbt5JqzMMDSx9w/rZtgCNrxUr3Ehory4jG4H3Rb/5aUKs3P3/ru9jIwY1twv+3N0Bfi6s9OzyPOQF61ZtZamTJpG27fsIM/DXlIAELO/NzMcTJpvs/cb6y2Fi/1xzd1gHce29vjm7uz3Wa2b28z/ARte1KgcaUqLcGP+shO8hG9eu8krbKYf9m7s/XMF2PCs7+U0t2LZSvp22kx+PrbTxfOXjIolOLG/bzM8TMxtz4sfVw03YN4j/4vKuHlz5pP7Jg/JV5DW0rjgLvdvurUPC/PY5n7Z/28HCnF3bt+hYC7QibFftRw/u3ftpcBLV6ihnjfYCg9NfCfs+X+2vbv20d2QMGO/ienOPNY8xn4dv839NPfb7+NfFF4hDpDXyvbmbgFvSkpIooOcx29x30qLFi6l+Ji47z5zzoAXvBt2bt9Fy5eupJXLVtESvr7w++F8YbbrAy2Fh7kdv89zZ24HvHnCuIl0/w6/72DNj+VffN4E4QphJ9uf57+5nX+wb9yY8UaBEma6N4/v6rDdDLrJ6W4ZbcVztGAxbeM8rJHTBCojVnD8ScEcZhVW+N/E3Md2l8P5WuB1+R9lRuSNPl7HOBwfSWUEBJZY82NNP5ufx347G56ps6fOGuum2+bHPM8fVwD3xPbt9Fm0euVa2rFtp+Sha1evY6FmqwAx3dljfzz/IHxOHjtJa1et4xUi/7MXpCJFzHRnH4amP1ZhDdge8Dtx1ozZkt6a8qPuFDf2sKUmpdCq5avJ3c2DNm905zS2hDau20glqPCEE7h7XnjYbzex38eGMlfwzeBn3bbkF4OKzIBLgVLpYhrS5Ga+RjQEPHNdJlZ+OpFXWjxfuXyFX34r+KUcT5ERkbRy+So66ultBCwMgQm3uHZsk3uwbTf3NW3nf8ztWDd/zWOb+wPYUDsyfeq3Rm0N9uE4ezfm/zi+u8IFPxQQi/gllZebR7O/nUOHDxyhgvwCaTl9JqzMeIHZx4W5vel/BvtgvI7CEF6i9bV1FHIzhNatWW+IKBi8s3n52ScDnhaSsM3+3Pi1v+4uAD7MjnC8dP6yFACSniRSfm4+iyMOIISTeW9wj3X8b96n/T78b7q3B9uA7XxN8PIdf/E/jsH/5vH4/0XHNz8Ghl9zn/11me7MX7ixnb+K4xstrVKjjP1yXps7Nt+jvjR54hRjxfTbxN4/V4HTXbmtR8ZxnxO0mF+KmamZVFxYbGtl4/tFGEk4sXtbODaFg7nPdId94q9tG7B370rY3V9CbDxNmzJDxF9MdAzNnDGLNq53453G/u+EhRlupl/Yboaj+T+227lDDbu8QyCSsYufYfQkkWNgpntY8/PZzpGdmU3LlqygqMd8HEz8tv0C8xi4tx0j2+z327vBNvN/czsbenstW7zc6MGDbaY7++PZ0AvkYdhDSk9NFwEN8dNQyw7g3rwGRyPX2MgF+jUicMLuhEmvgrshdykrLeu794J183qx3fy/uTv7/2H4Rdhju42Z02dzYdAmck33phu2In4GIOKbKhmarpexvw7z3ID/n8H5fgQKlDDTT9MN3Hdl2I4fO04b1myUCnIIH1RgXWfhG3o7lAv5m4zKBphVWMELgP/NMOH4h2AW0c3rMZzOpk+d0XQcWsrwXn3q3g74Y7+O/eY20y3bpg1udPH8xSY/n3GP3+bb4YcrgXti+6B3H2nUyOK8KTQ0lDas3Sjl9PycPCMsgBkGzf+3hdH5M+dE1MHQG0cq7Wz5ZJN7YJ7XpLl/tl+IL6SzZ8SzmQ6bu5d9vOKqsD1+GE4L5i6UcnFKSioF3wqhFayr1q/ZQA11HABwhrhAGNmHTfPn19xn+m2LP6RPebeZbkzgVvzlf8z/zX28DelQeiwhrtkQ7+gZIoZN5jnwv72f2P4K8EqL56sBV+WFjK66MP+z/rTVY5sUOvbu3kfublto1Yo1EgHh9x9J7eWkCVNo9449HBHlFHwjmI4cPGIIODbU/m9z30aNDY0UcOEyzZk1TxLZ/bsPZD8KnGi1mcFiGS+smKhYqaX5yY9/xoXyqRR8O5jq6+vphO9JflHOkgLX6eOnnxZUre6jO2GzNSvXGi8WtujHUVKQmTBuEu3fe1AyNMQXWsj279kviRr7za4kKGSidRWtrKgd8+A4RqEH8evrfZwqWUTfCw2jxRxv+/gZ+Hb6TNrA7qRbGxvE8+MHRkEDmeiCeYukdhS1XE4v2LUHPFdsj+49ksKgvPTZTvqekEqKb6fNoqCrQbINNfUH9x+SVkikgaqyKrrEz/nc2fM5vJY01eihcLyJxcE3HCdIT1IDaYYL/6IXweEDh+n0CT8J5+lTvpUuwTgWafHEsZPSu2ASC9Wzp89xuPJB5vG8IDPdu3s/Hdx3SM6DdBJ07YbsQ9pdzWkWNaH79x7gbY104ewFucaFCxbTE05zyOR379xjZKx8TOSjSNrP/mEoAO4LlpKQLM/GpG+miHBEgbTvhx/TT/75p/I85GblUOitUFrI8T9pwmQ6xfdidA+yXaerYLMbHL5oOYUhPvdxeE2dNJ3mz1lgdIXk+0ZLzOZN7pLm8MzU84sT7pC3bdm8pUks3bx+k9PNQjne19vXqKzoaunmefBSygVrr8NH6U7wHQkvdBVDPo/nHraV3xHo8QTDc79m1ToW1LM5zZ2Ud8dNDmt0AUW4NLKfCEP/M/6ST+3asVveTfM43Ofy+8UctoL3SuClAPETBUS4Q74EkYqu9jDEycF9B6XiceL4yfIr7z6EPRuu+TC/z+rq6qiCrxX533R+TyGNId88x2kRPTMkvnhBujrBaaOhoYH8TvlJOkRLngyBYj/xDkRrxI6tOyUdobUO+cvCeYvp17/6LX0zfhJf231pGcc7b/bMORIOZ/g8jSjw2K4LYYrn55yfbbsz0xgbemNM5vvJSEmX9WeMrxnCDC1TE8ZPpAOcB0klLB+6a/suyWfW8vsLlfbojr57+27JP9CrCnH/+GEEbd+6g99dB7iM8C25bdjcJO4gns2K29jIGKnomPXtbBYH56mO43EHH/faL39DI78aTVcuX6USfg7RkwDpbOH8RZSebFwv4hL5H+J2m8d2GjF8lORvNfzu9DnqSzP4uUGFPrphIv/s0nkaG9LVAQ5P044e8ZZnH+kT4hnhgbDCc4rWfZT5kK4QZ+glgrIEKm+mTplupGnejmf/7OmzVF5aznEwh37xr6/R2lXr5RlHA4zEGbsLvhUsaR/vsxuc/vD8Hz92gsuAM+VZf/TAiE/En9+pM1wumUrr+ZrgHuVT3APECPxAejlz+gwLkgYRAjv52YF7vKee6bnoCuCZY/v0k/5GJaDNqiuqaP7cBXTJVv5DBQjyUpS10RjWiOeVF+QVKEOjTIP3NZ5ziCivw15NFUVpSam8b5ORTvF88HHoNTB/zkKJH5RDkP9iO3p0oOUb+S7SJ8r1SK+xUUiHy2kylyd3btspeTyOuXDuojwXKB/GRdtVZrkabAhPlMlzMmy9LdjQCDFuzARJR3he/c+eF82DvB+VyY38zkClE+JuwtiJMrzosv9l8vb0aaqUQL6GshfK+oFcvsY25Jn25X2zdyh6UG7m8sn4Md/Iuw/p7ASnM/MdHM9xsH7NermGjes3UXJ8kmz34ffscZ/jUrbBOyrgonEey3t1MK+0eEZhYiULARSe8QAgcaCggS5MA78YLIGalZUl3TymcEE+LOQupaakSi3Wls1bpRsAIiOJI6KeCxToWoJuIagpQ+0mXj63gm7R2K/HU1lxKV3ih2PR/MXiPo5fViLKOfMcNWI0X0MElZeVk9cRLxYnqyghLkHOC/eXuGAkZnUf3QlbYWolC6Pzfuflf4xbAojDRSzgkGkiQX3ar790o0pFBrl2oyGK2Au3DW7S3S41NY0uc+Huk48/48JtoghD1JSVFZVJghs6ZLh0FUlLS2MxtlpeoMiY+3/6uST6zLQMmj1rrnSVhOhCwkNci1ld+6sMG7q/L+fCGF7KjZzZoQCckZohhfZRI7+WQqvfyTM0ZPAweamjB8DN67fkBRUTE8Pi8bQ883i2UdGAF9OTqCcSdhDcYjgXL3jBTOOCCCqjMjIyObPbI888avMRf8iI4Q9emhC9OG/T8WwQB2M4TeEFls1pEIVZFHrQFRaZcK/3P6BrfI35+flcKL0gYhqVI2fZb1SGJMUlSqYddJUFNxsKqJf8L0nrEdIzDCJgK8d5dnYOZaZnUnVVNb+At9GXQ7/ibdlS2ME1IozQrWgKF3YwFl/MPmy7Osi3Od0hziGisF5SWCy9dcy80IOFDcQWCupfjxpLERijWlIqBc49XEiPjoqWiixUXsDSUtIkDjA+Cs+TtJTBrM7f1eCwQkEWeQEEDgz3OmHcN1yIPyXCGaIHz05xQRE/3/O4kOBPj/idg4okHIe8DS1PIlLZT1RMQUylJaXR0MFfSgVFenqGPLcQTEizKPwdOeQpla8oXCDNpaamSoFyPJ8bFR4ojAweOETyN4Q50oxZEYjCBvxDhTAM+eXObbsoOjpG8k/EJfI5FB5Row/BsYSvK4YLj6dZOOOcKNjgXTVl4lQZ84lnYyS/27IzsrhQEiBiHpWYYZzXIP1DOFSUV9ABFvQ4PpHDCX4gX0DhEwZh7c1iZzcXiGQeBg7i74S5I2GDIN6za+/ToQt2+4wuwkulu2ByQrIU3FHYhiEfRRhncXigsDZi+EhpCQm6EsSF/7lSJsA754sBgySO8O5BCw6ELt49s2bM4XdPjLzv8NygQImeDJO+mSxDjSDmEfaonEL6g4BDITGF82IILLf1myXfwrOB7q/wH+d5751eUvGJfXFcsMWzhYrJpYuXGRVeMPsw6EqwneZ304a1GyR8Q2/fEaGFshXeFRDPeCZLikqkEjCZQdqDaIahbDZxwiTK4sI53h/jxk6Q7cjrkO/h+bzB+T8qCOEG3erxHkUaeWBL05jrAJWx6ElRXlIm+QGGCJ0+6UfzOB5RXkE6nTNzLqUmp0reOnjQMKmootoGuS4ci/cTBDfed8gz8F7DvpzMbENEvGpl7JcB98IG8SyV8jBsZ0PF667tu6mAn29U8kBA3+B3ObY/fvRYKnoxnAJ5CSryUam3zYPTIPsJoYtyCyoNZ3F4QywhnSbHJ0t+i3w5OS5J4nH82G8k3DGeHb2uEM9IG0g7aFhAmR/xjOcqKTGJn5WvpeITZc7hX46Q/AzlAxkK6koVG/awQTvhWcxIyZB1s4yHPB3veGgi5CXR/K4wGjLmSb63isuGEMZINwgj0VmTpnG+VSjaCJVRqLRAxYdZhkQeZ1/eRwUWKulRSYH0hLhEWsP51/N7Cw2ieB+jnIo0hjILKoXxrNTW1so7CpVSGCKE/HQqn/9VyfNeafGMzHPwwKE0euQYKVSjlQsGITGHIxiFdNheflF6HvRsStDIxJbyCx4iAa0GSFRIJChY1FXXyosKtbkoLGGM7jdcSIGf6/lFeuaUTQjYDGNLkQFI5scJbB0nzAvnLtj2GoVWiAQxV8oc24NNPKNV8ZxNPCPRIYEh00Jt7YG9h7ggWCWt+8i8YHgJQYQhESHzfIgadTZ0u0LLDMQzMlwkpHIWz5gsDAU4qc1lgxCDsEYcDfx8sLQWodCB/9Fac+yoL301bCQFXDBafrpcPLGZ4rkMk2mwobUshF9KGA89esQYyYxQMw5hKzWDbMgcURDxPuJDe3bslef48X2jQIwXPIQAWibXr9ko7uVcvKCwj8wUGSkMYTnz29lSQ4tMEBVKpmFc+2Y3dz6OD7TFP2o1589dKLWZpqGQgnQZdOW6pGfT0HqDgs3JY6eksIMXaX5OARdod9I+FnTIQKdPnSkFTQgJ3A+uEbWX8zmDxbNVxc8TDLWgKEiZhgqCsJAw6R0yfNgIaf0Tax6+XRk8yxzupnhG74rKikoJKxT0kdchnAq5AOrFzwrCGFbDaQcvpaWLltMpzgfRAoAXGMI2OyNHWlMuc3r5cshwo4ULZnX+robtHfHw3gN5dmAQMMOHfiVhgG7/3l4+sh1iFjXou7fv4bA7Ki32GJ+HcEFFDVqU0YqBQgZaylISUqQ1w+wJgrHJEGr52fkS9qeOn5KCHFoZUbsPQ54FgeDP7xQUVDAcxRR9K5avaspHb16/IT1yULhHIfLjvp/Q5g3u8syjAhfvOfTKgQCGiEbhB+87GITGxAmT5X0Hwf31iLGSniAyUekIq+I8AWGQmZYphSzku+XFRl6DvBr5r2nwR9IhG/JaCEvcu1jz8HY0bCh8Ie+QcLQvFLMhrlCgMw3zmaCghnSD5/9awDXZjucf+RIMFRfozYP8C72e8I4Sv9lQwbtxwyapnJo7a770nMFz1bdPPzpqe/eMHT1eKuaRR+O9hXwJVlFWIQVbCGtU9iMeISaQ99oPPUKBNSo8gguhdRQTGSti5MDeg/w+ncZiwniHPhMGXQk2FKC/GDBQKlxns2C6aosDVDKY4rmqskoqsJCfoxEFlYCwsaPHSe9CGCpnUeGE9HGI0yMqrmBIcwh3GBpB8I4sLSgRES4C2DR+Vupr6kQcI+/04Xxg9MixlJaYKj000AvHNKTTiygH8i2gHIpeTij8j/rqa6PLecgdqei9wvkyhl3BneX9d1Vs+aiVeEbegYpCVIqgxRdlhEP7DkvFQnBQsJSXvb28xS0McbDFfZscj7HPGJaHin1USkq5GwavGXOyWFTio9yDfBR5L/JU01B+RHkDAhxDmFB+CWY/4R5xhskDx7HwRssnKknEb/SYsb8/V4HtO+KZDb1xUUmMxkgPznvwfkBLPiqBobnwTkSlIMrc0ZExVFtjvJO+nWG8X9CjFGEM27J5G5dDWX+xoRLYvryP8ikEOuLH1GswlFFRyQxBjHIo8lezhzDEN+Ie8xOgkvjokaOyHeVKpP1XpTzySotntBBv3riZSvKKZF0ecja8PNC6iZcRDJkkChGmPeIXz+IFS6UggEISCpWocUerAgwZH/ajJuXB3QeUwOIMtSFL+aUo3Q/sDLUueHlBqKF7A16c0nXAZiGcyaJQJdbVRFlHYyeeUZsFQyJAa/L1a0ESZ3jpIyxRU2hOLOHt6c0vznGyHZUeZgshumrheHvxjJbnu8F3uRC0xuguz4aXLTLdmspqQzyHR3Kh6Ka8WDE+8MHdhywmItg/zOzHB1hd+6sMmymeUZBD6wZalRCWqOGG4ETGg5cVCsd4DvHiQOssuo4hPaDbdywXqNGtChPvocU54FKADH1Ay5UYzsULBPpaFt737xgTr+Hlg5YohCvEwZNo24QebOjGg+440n3KFv/oooOCoFkQhaGAip4hKGQ0pRc2dB1yYxEQwxk04ik+JkHSGYZYYMgGhAxqNVG4ReEJtf/E+2G3btymebPnSwEL143CzjfjJ8o+tLzhnKgVRSsZxryh66WYfdh2dZDncHBAPLtxXomJdtBKj2fi1MnT8vJCF1RURB33Pt5UQ4wKEhQ0UbjHyxBjV1P5pYWaY1REIUzRAoC8Tyqz+FSW5+9q8IKacFQiyPwZbNJtm59XVCigoI1KJhTEL/Jzg8oiFLwe3n/E4RRJpUUlIr7wbJrvI0M8H5ZadRQS8H6CIZ/Cyz4vK0+6I0I8x3B+hG0yIRkb0il62kCQQ0RAIOM6IQDwrkFhBnGKngHozgpDgfKD3n3pyqUr0jr86F64tHrjOUBvLLg9xPEMQY5ty1iMIY2jpwjiGeKglvMRiA60YMIqWJT37vmhvAeRL6OAW8HPCAyFIAhH03CdMoaUDekWeb0UfBAezcPb0bChxwryFbQ6NTd0rzW7lMLCQu9KHNdU1cg7CUIWBpEMIQer4nIG4hjCDdvRsmXmdRDPaL3GfAwQz+gmit5Ow4YMl5nbUb6I4HePjMFlEYhhJCgcwlB4R8UD0il6YaHyBuGJfBstbaahCz/eiRB+aLn28faRbvSo+EyMSzAcWYVFV4AN6UJ6LtjKc2a6MsVzWWEpHWPhimcSPZXwvhnD73YYfk/y8TCkPwxFwrN4+IBnk3jGc7+Q0zfOZ3ZhLWU/0ZvqMueV9oaKrymTp9GRw54shq9KBQryB5QZIdhMQ8U0hj0gX50xfaZU5kJwQzCb5cPIx5ES3xCT8izimWl+/10VO/Fs3207m8vcSEfoSXbkoCeH9ToZ+gEhFBUeJY1XqKBEV33T8D96zsBfUzwjnpD/meNhYZh/CJWRqPRA3ofWZcwBA5GHieZMMyu40PKNxjGEP4aNYRgNKkRhENXouYYKKJRJxJrfoyvAZj7z9t2247gsiCEFEKQonyOdoSIUZTC05Mv4Zz7+5IlT0mvzDL/z0IsDPZRQIQ+9ZQpmrKP3EbrJI37sy/sof0BMQ2ibDT8wVD5CPKPC6SqDcfJmhSTel8hj0QCAfMHflu7QywDvHbwrxZrfq4N5pcUzAhYvpuL8Ylk3EywyqaUcSWZNBYQFCs3obpaZkcmR6UHbPXbIYHgUupFYUSOPWl0YXlSoBYt7Eicty+GPwsUdCt+orU9OSpZCVGFBIeVl50oGjW5edbV1MrMtXlrx8QlS64WEiUKW2KsWho7GVqBAl1uIOthbb7wjYZeWmkaTv5lK+3YbY8zQHQpdcGBHDh2hL4eNkJcmMkF0r8/KzJKWmK+Gj5RaMHTbRgEQhX5krhDJEGPJSSlSEYJxhrCP+n4itWJ44aGF89HDcCrMK5LaURlDi3GvVtf+KsOGgvhiDhsUqn19fCUzys3MlYzky6HDpeCBwhgK9cYY/EYR07NmzqGMtAzpeREXG0d1NXVSSA7kTDCbwxjjk8yZLuVcvCCTg+CCgIUhvaGVEt1cMSmXdEdLTqWoSHTbntvUI8RMnygooNCxdPEKTo9ZXCC9JYXZ7LQsERbo3mgaCu942SYlJktll9mqXcsvWVR6ffzRpxKfMKRvTJrWyGkV50eXbbyk0Y0Szx7GaA//8itJt8h40RXXbAlCN63zXOgXax6+XRmEOd87Kv2QVyIfQysWXj4Ih20sxjBWFQUJH0+fpnSCdIDKBQi3HM7jUEGVkpzCBYkQEY94gcZzGhr0xRApjIhZnb8rwfcM4YwCALrlIo+BIR+fyyJGuu+xoUUWhS88O5g87GogWo8KpZCI7rZ4hiFi8N6Bm4EcRhj3nJyQJC2yZtdq5FM4Hun0EItr1KCjlwQqBBEPOVk5UvEHN/l5+SIiZNw6p1+k84ULFrEIOCLdSNHyZQpuFEAhJFAwLCwokso0My9FK93YMeNlnC7yShjG8i5gUZ+akiYFEAi0Rvb/IN8nem3BMGzpnbfel7wWFSjTp8yQrpH1/DwhT0HLHdIoep+sWLpKKmhgyHdQuYCKzlei9YbTAoQwrhdh9PD+Q8n70LqBic1Q6IZYRkVICr87IIogfGAQy+heCkPehwooGD6lhOcBFQjoTQBhjEoIhAcqAtGyBps2eYYMGcKQGpQZ7rD7Mo6Dx5yn4blBxS/yL1QqIn9DRTGEAFom0cKCisGiwiLpAYd3XV5Ornxy5713eopwhniTrvVc8EcZBvkbng0xq7DoCrChwmcH51NNrYy29wiELHr6obcZwg0iK4/TCYQweg7C8AthDUMaGDNqnJQLUbGMfBAmvSO4vIHz4X1hzOBdwIX2q/Is4F2BZwRlR4zdHzNqDBUXFUslEYYBoSL2GIc3RHVGegZFRkTR5599IWkAIuStN9/ltJwtlSVwH8jiGe+mvFwuW7LfE/ndifOKNb//rootjvp8+JE0bOAdcvXKVak8lAo5zmuRP6LyFe/03Jw8SRvoQYBKOwypQ3kEeRHSGfI3+IkWSJQXijkdII9Fb0EMy0J3XvQwRLpCmCI9oGyIuEU+i7SA7vco66A8gwpKxA3Sy42rNyWvxxAV5LHo8ZHA5XekSbgT4Q6zus+uDhvyH1QOo/ICeR564KHMhecb5T1U7KKrdhrnj2jZR6Mi0hDyFoQV3hHoBYWyI/L7IQOHiX4yW5IxuSZEMsqdb7/17jPlfaTDspIyqVRC+Qzxg3iHPxDs6MVbwOkE5UVUOuVynod5PyCm0YMOjad+XI6F4b2EITAXz1+Wdcv7dSCvtHhGoRcRi1pCMdt2dAPYxxEqmS028bVjApdNG92lVhKtAChcmzWYKGSgW0I9v7CwrYQzRtSKIaFiEgqzGzbGie7Ztc82DmonZXJk1VTXiFtsQzfjIi6QolYfhVPUuEBwozDjst0+2oJNPKNgiMIKDHGBWlq87FH7BVGN1lO0sGSmZoqbi/4XpcYKFslxiwkDUKhHJmxUehjffkMX7MrSSskE0LUNrWgYN4HzZfPLC4aXLArDaK1Bt2PUfqH1ES9emZSML9Py2l9l2CAg93ABC2GHFzgyHnR1QqEcLf2okEBPDRREUPDGfaKVDLXveJnALVpVUGjDC2QVZ04Iz41ceEPGJ4Zz8YKME5N5IZxhSG8oZGKsELp8o6DnxmkNoMsVMtimSgm23Kw8eTlCJBzce0gyQrRiwm+8SKWLFoyflyIu/CMNrl+9QX6lUG54Iy18eBmbE/JE8ctXuh03NsoLe92aDXItZjc/dIfEs4YWVnwvEjXSSKdIr6gMQCWAmH3YugIcjijYSzzyKro1oXIFgg4vL4gDdKfCy6lpWAq7Q2UixBpamg/sOShj0FCgwGRvSKuYOAcvWXShkzixOndXwVbYi2ahidYgFMZMQ0sgui+XFJQY65zvI79HBQLSFNLXpvWbJQ9BQRoCGAVA5EEQxCiAoUUjMy1Lxu6Z3RhRwEPBrCivSFpnzfdMOO/34O2bNmyWfM4c24/eA3iP4XqRhvHeQndfHCeFSxjeMxzfiLs1/Kxvcdsq6QYFJDHehxp9aXVDfsygYI8CEOIUfqJFD5P8Yb4E83lAYWYiF0xw72YBF2nJfOdBgGNMLgQJ8g90b8UzgYoyFJ7Qa0Gsebg7AzZUiiMM0J0dzze62aNCFQYhBIGKZx8TsEm3Wg6nrfyeMD8JhbSAsgSsmssZmEgMlSeowENFPd5NePegZwAKfAgL5IeIF7TQIC7xeU2EF3oM4LlBywzCezmXO9AahPINRP5BTqPwD5M3wsy5KPDJJkySiUquNC7PIH/DsYjvw1wmQTyjMkTMKhy6AmwIK3QZxTusKZ9hQ48XxA/eR3h3Yf4bvLMwsRDSJAz5OhpZYKh8xWeTUC5EOcOX34UwiACzRwfmEsC7LT+7QOID/q1bvV7eI0iv8U/ipQfAji07Jd6QxnFdKF8gT0CaRQUyBPh9jj8Mo0D5ApUdvj4npMIGM4ZDSO/atlvi349FA3p8dcmK++dhy0/REogGJ4QLym2owIdYQjwij0H+uIrjBL0GkY9VlFdKxQTS5ioOZ/Rcw6R80iWesxS8r9DDDIYy5FqOG1Sioyt8TnYO5197RMjBX8Q90kotl9FR7oFARHkT70Hkq5iDAQ0IaMw5xb8oY6KnKNIi3oloZMPQiuTEZCOvtLrPrg4bym14jtHTAkP0EE/yLkIcshN8xWEHhxfGMO/duU8q7PAVDwwDxLONtGMOpYSfeKdB1JqGdGL26jPfG2Z53+ytgfSLZ2TD2k3y3kGaQmu12dMH71n0QHTftEXmq0D+C4P+Mys0IdZx7WbPru/cq4PpsXfvXmMFAdlsp1PhQgIyTRScRQyY4pR/kTmiu4xsxzY8+Gx4SFDQN5v/JSNm8FKSSETmZUv0+EWtF0SJzGgKf2C1jVKbhVpMU4Sgfz5qsfCpCTHejBepzNIHw6HmdXd3OH4QNzJeDnHGYRXLGRy6v6OAJoUIzlTRNUPG5rIbtAjL7Jlwz4aWT/QKQPhiHBq6m6AWynwWkPBwDApuSGQSfzA+HrVT8hK2PRPohoiCCs7dZTNIvi/MnI2xk/JMsqGlB88vwgqVAtgu/+MZ5fCV42D8a46BlGNt4YLWERTI0N0QrZIS9rZzwR3iUCqn5NyV0r0Hwl2M3ZlppMlwrO2cmHUYXczRGhoflyBxIsbnRjxIjaV5PhhfL1q10Z1UrtF2HcjAEccSv7gOfvHKZBGcjtEaAZHS9E1J+MeG65bKE/azrqpGrhPbEF7SEmee18Uw80ozHNCSgjhHnCHNIQyRZkrwfJhhwIYwQauIFMKNR8sYGhAZLeOk0eunupzjvdn5uhy2e0M3WxnbzYY8CZNKYjwX5seor2ZHCBte8NxJZRsbWnwx7EG6nfE+MXaKZxbpAs8Wwhb5GfI1+3SDZx1hD2Eus9rb4gfhjhr6pnFgvN1My+Y1F+QV8LOcIIUXDJ0QM++HDXGOyiiphMT92eIV8Q3s3eIaMOwCAtLomWLkIWaLcWNNg1QiSBrnQzChGPIXMwzgHi3c6KEgBm/Zb6RXPHf4brV5/lcCm6ErL8JZ7gNhZNuFcJAWeNMt/+IZkPcE3wfiTvIahE0t8sMCqVRAgR7DIyDUUJkn+ZXteMzw3yQA2RCeqMiS5wb5LgNBgXRpfmcY6RSCG+Eu+TCXP2ClhcWSv+F6kA7NvBd5WdTjSBnfjriT7a9SuLcVvnbzvWX2mDK3y73b3vkwvMvRMwLd6DE0CG7wK+HL/yP9YTwr3CNs5F3I2xFGSJfwF/GDMJQyIp8G4F2IOMFQBhieFaQVvBtRCWOWJ+E/ZlvHfpwT6Q/HI21FhkfJduQD2A63eL6kt6P53NnftyvAYYtnXCbxRRpDeJuG/Xjm2RAGKIPYpw3EEd7NiC+EFSoYcQzixkyDMJT9UDFoVmwijlDmgzuEteS1Nj9RMYKKEsSHpCVsZz9Rdsd54B5+4zlLTUwVf+WaYOY9uRocjnh+kW4QT5jIC71hxBA/cIN/OT4Qron8vpFtvA9hjLwzH2kHhjjhfSiXSX5q8x/5k/kewXH25X0zDcJQfsX7Snp4cZrAxGNNZTI2dMtHWUTSFQx+czyixw7+x30g35T9OAbndyKvrngGvIg1vzZbonxmm5G/GsarcIOAR9dfFJZQGBJr7gcM/1ttN8/Lixh+n+dGeQoMP/jfPqxMM91YhC9aHvHJFSRktBrKJEj1dp5Y+Ynjsd30F/vxf/NnwnTTFTHv2VxvbthmbjbdAPuwsgoX0+yPATDTvemHGV/2fjZ//tnQ6osWS7NFQKz5sfbH2PtnnhPwImZ1rLkPZn8NpmGbvRsY1k13rgYvYua6aea/9uFhf5y9meHYbPMzcdKVYYNYweSEGKeIZ7RpshtY8+cIP+b/MHMd2D+zpuF4mBlephtzO8w83t7MbeZmOzcoWKI1GAXC7xQY7K35tcPs3dptbnJrmukGZu4zd+MX6/b3a38u897st70qNI8jc7t5zTAzroD9unms/T426Uq8Zv133Tdftz8HzHRj+gszj4GZ/5ruTDP/Nf01zfz3VQz3tsKLWPPtZljhHpuHJwxuYPjB/6YbczvM3p/mftqvw14Uxna7xLD+vO3212v664o0NzOsTOzDAc7N7fjfNPN/bIfZh5dp+Lf5cTDTbfPwhmG7+b9ppj+mmeuujH3YmNbcDS9NZsahvdm7Nc1qvXl4w5q7g5nr+Hne/uZuzPsw153Mqy2eXwY21Pxh8hT8SoC/ArUVSgvwgglQ8GkUdO3FhB1Sy2SfmSqvNryghhfdWM1PAVm6UxRnwO85VKqiRRezj0rLnZW7VwWzwKB5oPPhOECvFvSoMSozNE4URVG6I64rnhm84FBzbwhnfdF1CbiAgu4ZRtdHjjOYlTvllQZdo6QbnsU+RXEaZp5imopSpQ1ovqYoiqK4tHiWe0LhSIVz1wJxxj8ab10YTXeKorgayNM0X1MURenWuLZ4VhRFURRFUV5tYG3pCQLDj9W+tmKa1b72AOsuZWrEGcxq38uCMIR1ZFh2tH9Kt0TFs6IoiqIoivJieLE0bLdyD3h5bhlTtuMrDZlPh2vZ77cydoOZ6uXrAW0R3Cam2T7Uga8NyMzYplkd0yr4cmrqxT8ZMtiea2tOc7Ny01qeZ8+LG1x/i/dgfEEDMyUbwxns3PJiac8c3wLsHcIQMyzLFx9Me961vhAjbjDztsyybX+t7YWXZ8zKjeKSqHhWFEVRFEVRWoYXfB4Q386eO3uefMlkwbxFtHHdJuOzgbxfypJmedL2i8/T4PNnTULMdGPC2/EdZXwiT/ywOx++gT110jT6dtpM2rV9t3ziBobv91++ECD/P+Oneay5zf6Xz4O5cPD9bPN7wndDwmjJwmV089oNCrsTRv74Bi47feZYe3/Ndftt5nb+gZjEN27l85uwltzbb7Paz4ZJ6tw2bJbvT+MTqc9cW2ux3bffST/5ysCcmfOYOfJtZHybuemTTfb+8jG4F5m0FevmPvyasJuIR5G0Y9tOQzzzIm54SUlIkW8xz/52jsTd7p175MsBYuY57P1rvo0NnyLbvX2PfP7yScwTunD2gvFpMnbS4rHNtwE23Cc+XYvPkzVda0t+mNub7wds+FQhvru+kNOAfK8fm63cKi6HimdFURRFURSlZeoNIXznzl06yOL1s379ZfbxuyF3n34/Fu4gTGD8L76XDeH09KsnDO8XsYV1G5MnTqX7d+/zCpt5PrZBXwyhZYuX07Wr1+Sb58uXrBD361avJ2/PY+JGzmeWYXGYXCv/4n9TJNn+x3ljI2Pluuqqa2nV8lV03Oc4lZeWy2cWE+MS5T6b7sH0C7/YZvND/LPfjnX+hdicMG6ifFtXjLc3CUtgXot5LH4B9pnbbG6SEpLk02gnjp2Uz67OYBGKVl453nTXGvh+cA1xMXF06+YtmsWCdvI3U+gm/x8bFfv0/HAL4/VG/vfIIU+6Hnjd+B66/fXDvc1Cb9+hhfMXPb1Hmx93ePu4MRPkyxuIO3xFBXF8h58VMfgBp6bfzf9nwzf2ly5aJhUIRYVF8n12+UIC3MDM1mP4ZX8PVv4x6Nkwb858inwUwRvYTPfPuxZsN7eZ/9vWayqraeP6TbRn1z4KvBhIM2fMkudKzHSnuCwqnhVFURRFUZQXAyHBhpbF2TPnGitsDSyeIh4+ppO+p+jm9ZvSQlhbVUMnfE/S5/0HSmt1blaOiJ97oWEiCO8E36W6Giggom+nz2pqDW46F9tXX46kayzgYGlJqTRtynT5HKL7Jg8WvSdkO7pwXwu4RqeOnzLELxu+6R7G54lgoeR3ws/4pjtfe0N1nQj5wrxC2Tfw80HksXkLpbJQg0gLfxDeJJ7iop/Q2VNnpVUR142W2NBboeR71JcehD2QbsCwWt4HsXj29Dk55+RvplJGSjrV1dXRQ76nU8dP062gW0a3dLZyFtjw8zRvh7vy4nK6f+c+FaEbuu3cMITl0sXL5X8YvlF/+8ZtIw7aU2a32dEj3rR7xx7bmtHC63/2goRfki38khOSJezRcnyTrx33ipZjtP6e4TBBmMPCWAwvW7L8O+IZ4bB+7QYJb1hdbR1t27Kd1q5aR1W2lm58zvLs6bMUcivEaP3m4+vYPZ6Dc37n6cL5i+J3cnwy5WRmUzyLfzPMEW4Xzl2U6yniuKyvq6cnUbF0kp8rVOggruBfPbuPfhxFfifPSNjNZfGM89bX18vzdJ7Pc87vnHzCEIZ4vhN8R/wxW/oRtwgj+/u7ee0mrVu9TiqTYJ6HvWj71p1G/KmecnlUPCuKoiiKoiitgy2GhcWMad9SXWUNNTY2krenj3ThPnXiNK1lUbFg3kIWhWV0yf8yjRoxmnZu20UFLFAgcHbv2E2XLlym6VO/Jb9TfuLft9Nnsmh6IP/bn2fkV6PJx+sYFRYW0fUr16WFr6q8kjZv3CxdjmEQYBB+B/cdlK7kedm5FHwjWM67aYMbHdp/mMZ+PV6uub66ljas3ShCCkJ7+Jcj5NrysvL4dyctXrhU/LzM1wdBD1GE80CgoWX80IHD0l0cLbcQvLU1tXx9PjRrxhwRfLj3/p99IWIsOyNLzn/96nWaPWuuiGGIvFUrVtP+vQckrEJZOKYnp5O7m4ch/HHbKI/zL64b1ybG6xBnRw56PitU24KhOyWctnlsl//R3R7Xvm/XPjp84AhNmTyN7obckRbuCeMnSkv//bsP5P69OR4ucrhsWu8mLfYlhcUidK3EMypIVq9cIxUdpqGVe/HCJdIC/vhhOK1YtpIF8AX2aw0d4PBobGikY3yOObPmSYXD0sXLJA5zMnLosv8l2rV9l4hsVGqgFf7wwSN07OgxinoUSQU5+VIpcO7MedqwbhNtdd8m57x4/hLN4HhEJc4W9600oP8XUklSkFfAz6w3nT/jL93O8UwU5xeRr89xWjB3IZ3hZ+pa4DUJM8Rp6O3Qp3HD5nnIS55juWc2COz5/MyreO4eqHhWFEVRFEVRWgdbTESMCBh06UX32nlzFzS1HKNVcumipSJQC3IKRERJiy6MxQZaNx/cf0BzWSRtXLdRNs+cMduy5fnrUWNp4oTJIvgwRvdq4FXZDgFntjyjtTA6Olpan2dOn82/V6WFGN2GUxKT5ZzoOr5/9372t4HW8PUEXQ2SY5ewWA6//0j+d9/kbnRBZhGHcdb37tyT7RCGjbauz0nxSdKajOvFeGy0TqLSIC05VdwiLMaP/UYEMQwtpI8ehdNqFsybN7hTWVEZjRk9jo6zIC8sMMZvIwwxJlkEKO6bf7AN9wyBKMbbILghpuFWRJsZTq2lSTwfYvG8Q/7fsH6ThGNDrbHT28tbukrDIOjR7VrOxYbeBOGPHosgnTxpqohhdIFurXjGRGoYD44Wf1SW4F6uXwuizRvdWbAuoPSUNJo/ZwHdt4U7RDZavrPTskRkY3xxSUEJrVqxhgIuBEg84Xzo9QDLSs+ihw8eyv0NHjhUKm8Q7mjBhpUUFNPkiVOaum3j2h6xiEdL9djR4+V8OAfEd1ZmlrhBmD0TN7b727Nz7zOt94/uP5RrVfHcPVDxrCiKoiiKorQONlM8QyygS/LCBYtFHMFqq2pp/5795OvtK615a1YZggkWfDOYBcoOOrD/II1hYezBAg32PPE8auTXMmFWZHhkU1dh2MZ1btL1m1hA+Xj60K4du8Xfb8ZPoqssntEVGCIwPydP3KOlcAvOxboT3W1vXLsh2yGeH9uE/ZbNW2gJH9NQXU8L5y5suh8RRI2N0tXanYXewQOHpUUcLY/o4ouWUtPQMjp96gxKS0yTbsYeblvoyGFPaanesGaDdPFGxcHypStlkrQHGOdt3OpT8YnyOP8c5DAyW4ixvm3LDhn7LGOQ21NmxzFsIp7ZLxjGP98JuSP/w1CpsIKvDbZl81a6cNZf/s/Pyae9u/bSgb0HpVUXLflPop+0STwHXbku29ADoc8HH9OMqd/SyuWrpDX61Ek/Cr8fzs/KOg67FHGfmZYpYjszNVPuGxPGoQUcFRvpqbbJxwzdLJUYqCDBvS2ev4S+GDBIWpjnczyazx5m7162eBnFx8ZRVkYW388+qVBBi/6wwcOla3Z6ahqt5XOuXL5ahh/g+RIz7812f56HPOV6zLi7y8+BhBvWVU+5PCqeFUVRFEVRlNbBhi7Q06d9Sw11DTKzNLpw3ws1WgwhtObMni/daSF40T3X/BQUZl5GF1cYxi1DTMEgnh9adNvGuFu0dIphk00AYrImdO0tKyylUSO+porSCmkhRJdbtCRCPEMYY2IwGLok43w4/lnxvKSp5RniGUIOQgktkdJV12YFufm0aMESmRwKhvG8u7btYvEYKSIQLc6wiEePafTIMRQXHUcb1mJCKS5js3kd9pJJzmQsrs22s9jHJFo4X2lBsfF5K0xWZrt3jNNdtGCx/A+b/e1cOZ+EgzlZVltoEs9PRTlafffvOSD/wzBJ2OoVRpwgjC/Zwh4VEmO/Hif/Q2ROnzJDBGtL4hlhZK5npGWIkMU4b9i4sRPEjb0VFxbTpG8m08Mw4zmIehxF41ik56Rli3hGSzXEOESqtIjbGbahSz0s+GYI9f/0c/EPE4T52yoA8rLzaOjgLymd4wpd7dElHIax+GNHj5VeBaZhRna0UuNTWeWlZcZEZXZxg0qPZUtXUG5GjqwjLs+cOqPiuZug4llRFEVRFEVpHWxR4VHSnVpEBZsfCwd8vmoVi2GI5YP7DktX56rKKlo0f4kITIxVRVdXc7zql8NGGAKLzZht2xDf9ufBbNunTxjjomWbTQBCdB876iv+wz906UYr7yQWPAEXA6Q1fB4LeJmdmm3f7v3ySS0IoBUsemQ8KxvcmGJtE4vF2TPnyP+YRAoVAhBI+CwWugRjtu9xY8bT1i3baTyLP4jxyopKOup5lCZNmEJuGzfTzh27afCgYTIZ1enjp1j8j6Dt23bStMnT5fyYjRst5GtWr+VwwkzfJ6SFGy3wmE1aDPfJQjSfBTvOAQEIQXuYxWFVhTGxVlMYtQVb2KHLMUQzDJOAYTZztNKjlRefl5IZuNlOnzhN34ybRMd8fKXlH5UUq1aupl0ch+YYcrTaY3x7c/GMicS++HyQjCGfN28BLZy3WLqql7EQhaFLP4Tyaj4nKjPMbvQQ72i53+zmLt3rx3J4o9s2xjIjfqtKK+X6Zn07WwQzKgGS4pNl4q+JEybRli3bZMhAr/c/EP/Q3Rvd99ev28hhuUUmr0tJSJYJzYYN+ZJWr1pDe3btYVE9TMIfIn3Dhk0cJiukpb2kuEQmu0MPAzGEYUOjTICGGecxxh69CPAco5t4u+NG6VK0LJ7xECiKoiiKoigK4OIhWlDRbVfKirzgF+OaIUoxVrgGrag2w2zJmJ0Y3XXRcohW34dhD0WQ4Vu5OB7CuqzY9g1fu/OgZTM/O/872zHbd26m0aqMibauXr4q50erImbSLuHzQAzVVdWKe4jf1KQ0OR4zSaM7ObbDjYge/h+CF1195VxsaJG+cvmKjHHGLM9ouYTIQ6s2xsdiPDOsmgUtWqlvB93mc6QaszlX10kXboj4O7wPgg9CvqGmQcIH47MRBrg+CGrcp3zuC+c275MNrfiYKA1+y4zUMHN/e0BYpGUaLeW2+8R94L4AhKUY70Mco5cAZirH/SO+rnP8IrwRbtiPa5eJzpqdA2O7MRkangdMviZj3vGswGw/2BZ0JUi68sts1rwd4YYeDLjfKD5famKKzNqOCcEQt6YfCH98RgsiGGOZEY74ZFrITY4bfpYQZ/AP4Y1wxvMXwf7FxyZIOKLrO/yHHxiDj89MYTu+AQ23mAke/sIe8XOAuJfrNu+RDfeOsfXX+R7ysR9mHw5K16aFRuUWxTNqkhRFURRFURRFYEFitmI2X28y3oTtss80/MvFy+bW5Ib9kGPszwPjY1ra/h3DJnMzyrJ2bnC8GP80bbed1zT5H+Vge2u+bjNx+/TQpwb3Ftubzm8aws0Mu+fdv2m8+sz+9mDnp+lXc2tyZ7/L6v7trt08pulY857szbw/7G/uH68+9zi4tTkX/5tfs9112FuL/j3vfuzNvCa7/83zy/Zml2Fub3KjdFlQ6YLfpmelGdbimd1j7MVxH18ZG3H44GFFURRFURRFeS5HLLY5gs46b1fz91UC99gd7lNxPTDh4Tm/s08rZkx9bKNF8bzVfSutWr6S1q3GmARFURRFURRFURRFcU1WLFsuAlp6FwBTH9toecyzmpqampqampqampqamlp3sua62EbL4tlsrlYURVEURVEURVGU7kBzXWyjZfGsKIqiKIqiKIqiKIqKZ0VRlHaDfNMcE6N0DvpuUpRXF80DOxeEb0flgRpXnUtHxpXySqPiWVEUpa0gv4TxC7O+ul6+Tal0Dk1hre8oRXl1gFiA8f/4BrDSechnmkDzOGgttrgyPsFjfQ7l5ZFPG3Fwv1RcKV0CFc+KoihtoZ5hK8wtoJCboXTh7EXyP8PgV+k4EKbMzWu3KDs92yiQ6HtKUZwPNALngwmxCRR44Qqd97ugdBIXzl6iB2GPqKqsUt47lvHREviprqPYyFi67B9oeQ6lY7h0/jJFPIykmqqa9sWV0mVQ8awoitIWeElLSiO3DR60fetuunThMgUGXKXAy1eUjoTDNOBSIO3asY/Wrd5IsVFPqLGBAx+VF1bxoihK58PCuaG+ga5cukaL5i6nPVsP0ImjZ+i4l5/SwZzwPkNeB3xp+aI1tGvrXiotLGmbKOO8sramlk75nqGFHFf7dh6m40etz6W8JJwGDu7x5jSxgo4cOEoV5RVGi79VvChdHhXPiqIorYVfhjUV1bR54xa6diVIyjFqnW/37z2kjWs3U05GjrHBKm4URel8eImJiKXF81bS43sxlJdeTDmphUonkZtWRBmJubRxzRYRwXU1da0XZWxXL1+nNSvcKOphPOVnlFieQ+kYEL7xkam0asl6aYk2eks1ixPFJVDxrCiK0lp4SXySSBvWuVFtba0UTtQcY+6bttC90HtGgcQqbhRF6VzQXbumgbwO+9BJ77OUl1ZM2SkFlJWcT9nJBUoHg3AFqKCIehBHK5espbzsfCNDtIofeyDaeHFb70H+pwOpOLtC46oTMeOqNLdSwnv39n1UVlTaurjq6vAihl+r/S6IimdFUVoH8oi2mqt1W+IlLOQeeR3xoZoa27gmNYfYUc9jFHT1phEPrvS+Qhppq+n72jl097ji+8ckftvdd9PNwFBpbTNFg9J5QPSC+bOXUlZalvFcWcWPPRxXDdX15L5hG12/eIuKssot/VY6loLMUgoJuk97dxygzNSM1sVVV8VWJizMK6THDx9TVWmFscHKrYuh4llRlBdjyx8yUzMpPib+hcRFx1PikyRjkhM+/Dv+dVV4UfHsHDvq5YLimQu4dVW1lByfLGnGKi3ZAzepiWnGrK4Qcs39UzoPfuYwZCMpLqlVcfUkKk4munOpuOL7MMXzjcAQFc8OwmwxXjhnGT9TrRfPdVV15LFpO11j8VyYVfYdf5WOpyCDxfP1e7R350EpL7UqrroqbCG3Q2nt6vXk4eZBSxcvp+wM2+SeVu5dCBXPiqK8GF7OnfankV+Oo6EDR9LwwaPpyxbA/kEDhkuXsaL8ItfJTHlB12GvI94qnh1sLieeeakur6I9O/bTsEEjLdPRdxg0ioYPGU0+nsepQQW04+BwhnBev3oTDfniK46vUdbxYwP5H+IU7gIuXDHyP1eIK76HJvEcoOLZUbRbPHNcGeL5topnB9FtxDMvpUUltI6F8wnfk5SVmUVb3LfR3t37OZPgnS6uKVU8K4rSMsgb2ObNWkx9e38mY3kO7/ekg3uPPJejR47RjCmzqU+vTykqPNrwwMrvrgYvYSyePbXl2eHmcuKZLS8rjwb2H0Zfj5hAXoe8LdOSyaF9R+jwAS8azOJtzMhvqLqsSvyw9FvpWNjiouMkrqZ88y3HhafEh1U8gcMHPGnXtr3Uv98gWrZoJVW4SndGFc9Oob3iuR4tzxtVPDuSbiOe2e7cDqX1azZQfnaerEc+iqDJk6bKN69dorKwBVQ8K4rSMjbxPGv6fBoz6huqKCk3Nli5NWE7eew0vf92X3r8IELWLd11NXgxWp5VPDvaXFE852bm0GcfDyT3jVtl3dKdiS0dLpq3lEYM+7r9331V2g5b5KMoGvLFCPI54mvERUvPIBs+KzRz2lyaP3sxlReVyTZLt10Je/Gs3bYdxku1PKt4digy5hnieYfri2f/M/7kvsldeuXAUhKSqW+fjyWPUPGsKEr3xlZon/PtAhHPTYV2ZI7Pg+2Urx/1evcjingYaWyw8rurwQvGPHseVvHsaHNV8Tzgk8HksWmbrFumJRPjEFo8fxmNGj5WxbMjYUMPmqEDWTx7HjfiAljFE2ArLy6lWdPn0oI5S/h/Fc9K+zHF84K2tjw3iWcd8+woupN4Pg/x7OZBNZWGeE5NTKGhg4ereFYURTHF82ybeG5Ly3NPFc9qHWQuN9s2myme29ryrOLZwbBFhUcZ4rmNLc8uK56127bDaK94Rsuzu4pnhwLxHNxNxPODuw9ozcq1lJVm3Oej+49o0YLF3WJCSxXPiqK0jK3QjpbnsaMmsnhuxfg9NohnV2x51m7bzjFXbnlW8fyKw2a0PI9U8awtzw6n3WOe0fKss207lG4z5rmhkSrKKmj5kpW0Z+ceSoxPpHVr1tPVy1dcXjgDFc+KorSMrdA+Z4Ypnlvf8tzrHRXPah1jKp4NJyqenQCbimfGXjxry7PDeHnxrGOeHUV3+1TVk6gntNVjO23e4E5nTp2h2qpafvAs3LoYKp4VRWkZW6Fdu20zvITpbNtOMRXPhhMVz06AzRTP3iqeteXZwbRbPOts2w4H4lm6bXcH8QzYSgqKKTk+2VjHpuZuXBAVz4qitIyt0D4bLc8j29by3NNlW571O8+ONhXPhhMVz06AzRzzrOJZW54dTXvFs455djxPxzwf6B7iGZjGz5zlfhdExfPLgDDDw2KFhuergVXcmGgctQ6EE9vTMc9t6LatY57VOshUPBtOVDw7ATbtts3we1Nbnh2PdtvuOnSrbtvdGBXPL0Ed+vbjf3tBBjgs66p5X+13j1EcBz7ULnGEZ7tZHGE2wLqqOsvjlGYg/NggnseNntT0Tb8X2enjZ1Q8q3WYubJ43uK2XdZbY/qpKifAZopnX68Tsv4iqyytoFnT52nLs/LSvJR41m7bDkXFc/dAxXN7qW+k+Jg4OubtQ8eP+dLJ4yeEE77HydvLm2Iio6lR3Gm4OgXbi+NuyB0WOl5N8QMQZ6dPnqZsTK/PTi2PV55iE88oCI76ajzlZ+dTVUWVFA6fR21NLfl4+lLPd/pS+P0IwwMrv7savNwLYfGsn6pyuLmieM7JyKFPPxpIG9dupprqGsu01ASL5arKKpo3axF9NfRrFc+OhA2VgEO++IoO7/eSuBCs4olB/oi4nT55lsRXWVGp+GHpd1fCXjxry7PDePkxz9pt21GoeO4eqHhuDwgrzpiyM7Jp/boN1O+TfjRgwAD6/PPPqV+/frR82XJKS04TN5bHK50PZvvj8I9+HEnTpk2jjz7+SOLns88+k7g6sG8/lRQVs5tmxynWsC1fvIree6sPzZ4xnxbOXUrzZy95LksXrpTxgQM+GUJx0fFyvKW/XQ1etOXZOeaK4rkwt5BGDBtL/fsNpiULllumJRO0YCLdffRBf5o6cebTHiBWfisdC1taUjoN/nw485XEBbCKJ4B4whwRqDxcv9qNais5r4A3Vn53JVQ8OwXttt11UPHcPeixb98+Y0XFc9thwyxzWz220sCBA4UNLKbzs3NlX3eYrv2VBuHPlhiXQPPmzhPxPOzLYdIzoFoLnm1DKiKiad2qDfTt1Dkylg8t0c9jxpQ5NHfmQrpw9pK0lrlMWuAlTFqedcIwR9tRTxcTz5wm6mrq6Nb1YFo0b5mkK6u0ZII0BzeoxHpw9yE1Ik3pO8YxcDjX19ST/5mLLI4XvzAPNONqzfL1FBv5xBDOrhBX9uJZu207DG157jo8nTBMxbMr02PNmjXGCie05juVF4CXIVtxfhG5u7nT2tVrWTjnyTYt1Lwi2OIo8UkCLZg/n44cOqItNu2FDV1Fi/OLpdKoJeCmtLCUw58PwqFW/nVFeIF49lTx7HBzuZZngPcuG7r1tjZdlRfbJuzTCm/HgrhijLgqsowfe4ryiqi6vMp1hDOAIFPx7HBM8bxAxfMrT7ecbbsb0mPkyJHGCl4MzXYqrcAmzjCzZlFeofyvwvkVwybgcrNyjHGC/L+lO+XFtNVcLV/hRT9V5RxzSfEMcC9tNRXOzgH5WVvNleLKXjxrt22HoS3PXQfttt096DFixAhjRcXzy8GLmNU+xfmYBVT+13K/orQGXsJYPHvqmGeHm8t121aUroaKZ6eg4rnroN22uwc9xowZY6yoeFYURWkZXnS2beeYy7Y8K0pXQcWzU2iveK7juDLEs04Y5ii05bl70GPs2LHGiopnRVGUluFFu207x1Q8K4qTUfHsFF5GPLvLbNva8uwomsSzjnl2aXqMGzfOWFHxrCiK0jK8GBOGacuzo027bSuKk7EXzzphmMNo94RhEM/a8uxQIJ6127br02PChAnGiopnRVGUluFFW56dY9ryrChORsWzU2h3y7OOeXY4Ott290DFs6IoSmvhxRDP2vLsaFPxrChOxl48a7dth/HyE4Zpy7Oj0DHP3QMVz4qiKK2FlzAVz04x7batKE5GxbNTUPHcdXjabVtbnl2Z9olnFFzgXnEs7Skwalw5By3cuya8aMuzc0xbnhXFyfC7TcWz49EJw7oO2vLcPWiXeK4ur6KKknKqKFUcSXVFFTXWIke0jpfmNNTUU1V5paVfSifCaaOmotoyTpQuDi+YMMzrsI55drSpeFYUJ2MvnnXMs8N4mQnDPEQ8a8uzo9Axz92DHuPHjzdWWiueudBSkMsPSXomZWdmKQ4iKyOTCvMLDPHcmoIju6mrqqX83Dw51spPpXNA2iguKGp9XCldB1605dk5puJZUZyMvXjWlmeH8fLiWVueHUVTt21teXZp2i6eAQouinOwio+WsPJDcQxW8aF0bXgxWp5VPDvaVDwripNR8ewU2t1tu0o/VeVotOW5e6DfeVYURWktvMh3nvVTVQ43Fc+K4mTsxbN223YY7W15FvGsLc8OpWnMs4pnl6bHunXrjBUtjCiKorQML2EhYdpt2wnmfdRXxbOiOBObeN62eRfdDAxV8ewgIJ7B/LZ229aWZ4cD8RwadF+7bbs4PfzPnzdWtDCiKIrSMrw8uveI9u85SHV1dcaLUc0hdmDfYboVFGz0ktL3laI4Hk57mIh017Z9dOXCDcpNK7IUEErHgkqK9IQcWjh3OeVkZEt+aBk/9nAe2VjfSJvWeXBc3aTinApLv5WOBZUUNwJDaff2A5SbmdO6uFK6HD327NljrGhhRFEUpWV4ycvOoxVLV1Nmhq0FQK3Trby8glYtX0exkU+MDVZxoyhK54JyInPl0jXasmkXZSTmiVjISy9WOon8jBIqyi6n86cCpMW/rLis9Xkg2/5dh+jQHm/KSyvWuOpkMN65JLeSDuzyooN7j1B9DScWVPZaxY3SpekxaeIkY0UjWFEUpWVs+eTZ0+dp25adFBUVTdnZOZSbm0e5OblKR8JhmsO/8XEJHNa7yOuQt3yuT99ViuJEeCkpLKE1yzfQYRZl94IfU8S9WKUzuP+Ewu9G06Wz12jpgtX06F44Z35srW3s4iU9JYPWrthI3odO0sPQSOvzKC/P/Vh6dCeKThw9Q+tXb6aox9FGXFnFi9Ll0QnDFEVR2gLnlei6eN7Pn9zWe9DB/Ufo8EEvpRM4dMCT3DZsoWNHj8v307UwoihOBsKNf7LSs2nX1r20ae0W/t2vdAbbDtAWt520bpUbhd25b5TT21pWZ0t8kkhbN+8g9/XbrM+jvDzb9tPmjdukTBATGSvhbhkfikvQvk9VKYqidGdQgGSrLq+mpLhkSohNoAQuoCgdCIdpYlwSlRXbRLO+oxTl1cFm+dkFFBcdT/ExCUoH8yQqjtKS0qihBpkfm1U8tAabZadlaVx1EogrmSDMFlWW8aC4DCqeFUVR2ov5olTrPONgtgx7RVGci60VWq2TrSPK57YKX7VOttZ2qVe6NCqeFUVRFEVRFEVRFOUFqHhWFEVRFEVRFEVRlBeg4llRFEVRFEVRFEVRXoCKZ0VRFEVRFEVRFEV5ASqeFUVRFEVRFEVRFOUFqHhWFEVRFEVRFEVRlBeg4llRFEVRFEVRFEVRXoCKZ0VRFEVRFEVRFEV5ASqeFUVR2ks955vIO5XOA2FsFfaKojgfzQM7n47KA638VjoWfV91C1Q8K4qitBW8IGGcb9ZX11FdVa3SSTSFtRZKFOXVAWVGtsbaBskDlc6hocbMANms4qE18ALTuOpcmuIK4W0VD4rLoOJZURSlLdQzbLmZuXTz+i26eO4SXTh7mS6cUzqUswjXS3Q98AZlpGRImOt7SlFeATgdNnI+GBMRSwEXrpC/30XyP3NJ6XAuSh4YFnKPKkrKjTzQKj5agpfaqlqKeBhJl84FaFx1FhyuF/m99fDuI6qqqGpfXCldBhXPiqIobYGXlIQUctvgQTu37aEL/pco4NIVunwpUOlAEKaXLgbS7p37aN3qTVJQb2zgwEflhVW8KIrS+XBZsaG+ni5fCKTF81bQ7q0H6binH/l6nlY6mONefuS5/xitXLSOdm7ZQ8X5xW0TZZxX1lTX0EkfP46rlbRv+2GNq04C4Xpo91FJE4f2e1FZaZnqKhdGxbOiKEpr4Xyyurya3NZ70PWrN6Qco9b59uDBI1q/xo1yMnKMDVZxoyhK58NL9OMYEWMR92OpILOUctOKlE4iP6OEspLzadParXTy2GmqraltfXmd7cqla7R2uRvFPEqkwqwyy3MoHQPCNzEqjVYtWU/nTvsb3be1stclUfGsKIrSWnhJiE2gjevcqbaWCzFqDjN3t63SfVEKJFZxoyhK58LlxMbaevI65EMnvc+yYCim7JQCEXdK5wFhFvMogVYuXkv52XlGhmgVP83hBRW9F04HUlF2ucaVAyjNq6KLfldoz7b9VFZY2vq46srwItaNdKSKZ0VRWofdvCWtNlfLV3i5GxJGXkd8qKamxrhHNYfYUc9jFHT1phEPrjR5GNJIW00nT3MO3T2u+P4xMdJ29110MzCUclILLQWE0rFA9IIFs5dSdnqW8VxZxY89HFcNNQ3kvmEbXbt0m4qyyi39VjqWgoxSCgm6T3t3HqDM1MzWxVVXhq0wr5AiwyOpHOPyscnKnYvRY9y4ccaKqxVyFUXpOLgAiJk6MXHTk6gnFBcd1yJwgxbaytIK18pMeUHrp4pnx9tRLxcUz/zera2ooaS4pFanq5SEVBYwHAAqoB0Lx1VVWSUlPklsVVzFRj6hTM4vGxBXrlK+4vswxPNuuhEQouLZQZgtxgvmLGuTeK6rqiP3jdvp2sVb0qW4ub9KxyPi+fo92rujG4hntuCbwbR65VravNGdFs5fTFl4PrHLyr0L0WPdunXGiqtk7oqidDxsZ06eo6+Gfk2DP/+Khg0a+QJG0RefDaUNa9yoKK/IdTJTXiCePQ+reHa0uZx45qW6vIp2bdvLaWo4DR1olY6eZejAEfJ79NAx47Mo+t52DBzO1RXVtGbFehrY/8umeGgJuEFeeen8ZWpsNPyw9LsrwffQJJ4DVTw7ClM8L2yjeEZceWyCeL6t4tlBNInnnQddWzzzUlJUQutWrye/U2coJyeHdmzbSXt27uUHj3e6eOVuD09PT2NFa7EVRbECeQPbvFmLqG/v/tId6cjBo3R4v9dz8fb0pZnT5lKfXp9R1KMowwMrv7savNwL1ZZnZ5jLiWe2vKxc+qL/MBoz6hs6eviYZVqyx/OQNw0dNILGjJhAVWX6ORSHwfYkOo4GDfiSpk2aRYcPcHwceH4eiPxx9/b9NOCTIbR00UqqKKkQPyz97krYi2dteXYY7W15rq9i8SwtzyqeHQXEc3B3EM9sobdDaf2aDU3j8NF1e9I3U7pFxW4PLy8vY0XFs6IoVtjE8+wZ87mQP1G6Loohc3webKd8/ajnO33p8YMIY4OV310NXlQ8O8dcUTznZuZQ/36DyGPTNlm3TEsmxiG0aN5SGvnlmKfp0MpvpWNhi3wURUO+GEE+nseNuABW8QTYyovLpAJx/uzF8r+Yld9dCb43bXl2PO0Wz9ry7HAw+3y36LbNdv6MP3m4eVBtZbWspySmUJ8PP5bnTvJBq+NchB5eniqeFUVpAZt4nvPtAho76htjHDMM258Hm4jndz+iiIeRxgYrv7savISpeHaKuap4HvDJ4KfiuXk6sscmyiCeRw0fq+LZkbBFhUdL13oRz4gLYBVPgK2sqFTE84I5S1Q8Ky/Fy495VvHsKLpTy7P/WUM811QY4jmVxfOXQ4Z3D/HsqS3PiqK0hK0wONsmniswoyLMyq0JG75J6Yri2Wh59lbx7GBzZfHsvnGrrFu6M7GlQxXPToCtSTwf8TXioqVnkK20sETFs9IhtHfMs4pnx9NtJgxjexD2gNasXCsTycIe3X9IixcskcllXV48ex3Ybay4QmFEUZSOx1ZoR8vzmJET2ySee7loy7Ontjw73FQ8G05UPDsBtqjwKJkEzFvFs455djAv0/JsjHnW2bYdxdNu2y7e8szPV2V5Ba1YupJ279xDSQlJtHb1eroWcNXlhTPo4bXH3VhxhcKIoigdj63QbnTbVvGsY56dYyqeDScqnp0Am7Y8M/biWVueHUZ7W54RVzrm2bF0m9m2AVvCkwTatmU7bVi3kc6fPU+11bXdQzx77vEwVlyhMKIoSsdjK7SreGZ4UfHsHFPxbDhR8ewE2FQ8MyqenYKK565DtxLPgA15XVpSKq/zQ4dNVu5cDBXPiqK0jK3Qbk4YpuJZxbMzTMWz4UTFsxNgU/HMqHh2Ciqeuw7dTjwD0/iZs9zvgqh4fhkQZnhYrNDwfDWwihsTjaPWgXBi0zHPDC8Y86zi2fGm4tlwouLZCbCpeGb4vani2fG8lHjWCcMcSrcUz90QFs9bjBVXKIw4mLqqWiPc7AUZ4G3ItKjW+jjFMeBD7RIPzeMH8H7Z1+wYxQI842wQz+NGT6Kaiipjwwvs9PEz1PMdF2x5DmHxfFjFs6PNlcXzFrftst4aWzx/mYpnR8NmimdfrxOy/iKrLC2nWdPnqXhWXpqXF886YZijUPHcPejheXCfsaLiufUgrOobKS76CXkd8SJvL2865n1M8DnqTZ6Hj1B0RBQ1mm6bH690PrYXx53gUDp04BDHjU9THCHOTvieoKw0ztjYqeXxylNs4nnmtHk0evg4ys/OpyoW0BUlFc+lrqaOfDx96f23+9LjBxGGB1Z+dzV4CRPxrJ+qcrS5onjOycihTz/6gjau3SwTrVilJZNKFsvVldU0f/Yi+mro1yqeHQlbxMMoGvLFV3Rov5fEBbCKJ4D8MScjm6ZPnkXzZi2Wbz6LWfndlVDx7BRM8dzm2bY5rtyl27aKZ0eB2bblO8+u/qmqbo5+57k9IKw4Y8rJzKGNGzbSJ598QgMGDKDPP/+c+vXrRytXrKT05HRxY3m80vnUMxz+0RHR9O2MGfTxxx9L/HzW/zP+HUAHDxyk4qJidtPsOMUathVLVlPPd/oarSmzl3ChcNFzWbJghbTSfPHZUIqLjpfjLf3tavCCMc+e+p1nh5sriufC3EIa+eVY6t9vMC2at8wyLZnMn71Y0t3HHw6gaZNmUU2F7fmz8lvpWNjwTh/yxQgaNGC4xAWwiieAeEI+iWErG9ZsptpKF4krFc9Ood0tz/hUlYpnh6Itz92DHp6ensaKiue2w4ZxTdu3baeBAwcKGzdupIKcfNknAs7qOMUxIPzZkuOTaOH8BSKevxz+Jfl6+1B1RbXsszxO+S68PIl6IgVBjOObNX0+zZ7xfL6dOpcLkYsp4EKgtJa5TFrgxWh51m7bjjaXE8+cJupr6ynkZqhUNqFnh1VaMkGaQ7pauXQthd9/bOvZ1MxPpXOwxdVl/wDpho24aikPxD7kk+tXbaK4qDijh5MrxJWKZ6fQ3pZnEc865tmhdJvvPHdzVDy/LGzFBUXk4e5B69etp/ycPNmmhZpXBDzXbElxibRo4SLy8vSiGhXO7YOtqqyKSgpKpNKoJeCmrKjMCH8cauVfV4QXnW3bOXbU08XEM+ACLp4pjIltbbpCt2Axfcc4FsQV0/q4Kqbqcn7X8KEuE1cqnp1Ce1ue61g8u+uYZ4fyVDxrt21XRsXzy4KXIlsZv1CL+WUppoWaVwubgMvPyTfGCfL/lu6UlrFVRLTJUOC08qurwouKZ+eYy7U8m7QnXen72jkgP2uruVJcqXh2Ci81YZh223YoTd22VTy7ND28dMxzx8CLirJXGLOA6mpiTnEsvKh4do65rHhWlK6Cimen8FJjnrXbtkPRbtvdgx6HDh0yVrQwoiiK0jK86GzbzjGX7LatKF0Je/EcoOLZUbS72zbHlXbbdiw623b3oMfSpUuNFW2RUxRFaRletOXZOaYtz4riZLTl2Sm8fLdtbXl2FNptu3vQY8yYMcaKimdFUZSW4UVn23aOacuzojgZFc9OwRTPOtv2q4+2PHcPeowbN85YUfGsKIrSMrxoy7NzTFueFcXJqHh2Cjrmueug33nuHvQYP368saLiWVEUpWV4CVPx7BRT8awoTsZePOuYZ4eh3ba7DhDP2vLs+qh4VhRFaS28aMuzc0zFs6I4GRXPTqG93bb1O8+OR8Vz96B94hkFF7hXHEt7CoxW/iidjxbuXRNeDPGss2072lQ8K4qT4Xebdtt2PO0e84yWZxXPDqVJPGu3bZemXeK5sqyCyovLqLxEcSRV5ZXUWMsRZREnVjTU1BtxZeGX0olw2qgur7KME6WLw4t223aOqXhWFCdjL5615dlhvHzLs3bbdhQ65rl70HbxzIWWgjxOzBlZlJOVrTiKzGwqLigyxHNrCo7spq66lgpy8+VYSz+VTgFpo6SwuPVxpXQdeNFu284xFc+K4mTsxbO2PDsMHfPcdVDx3D1o32zbKLgozsEqPlrCyg/FMVjFh9K14UW7bTvH9FNViuJkVDw7hXaLZ51t2+HgU1X6nWfXRz9VpSiK0lp40W7bzjFteVYUJ2MvnrXbtsN4qTHP0vKsY54dhY557h7obNuKoiithZewkDBpBVXx7FjzPuqr4llRnIlNkG3bvItuBoaqeHYQEM9gwez2tjyreHYU0m076L6I54yUjNbFldLlUPGsKIrSWnh5dC+c9u45SHV1dcaLUc0htn/fYboVFGwIZxXPiuJ4IMhq6mj39n0U6H+DctOKLQWE0rGgkiItPocWzl1OORnZkh9axo89tjxy01oPuuJ/k4pzKiz9VjqWoqxyGdKwe/t+ys3MbV1cKV0OFc+KoiithZf87HxavnQ1pafbumSpdbqVlZXTymVr6UnUE2ODVdwoitK5SMVVI129fJ3cN+ykjIRcKsoup7z0YqWTwBja4uwKOnfyEm1330VlxaWtzwPZ9u85RAd3e1FuWpG0PludQ+kYEFcluZW0b6cnHdrrSQ21nGBUW7kkOuZZURSltXA+2VjXQOfPXKCtHjvp0aPHlJmZRdnZOUpnkJVN0dExtMV9B3l7HqOqiiqpwLCMG0VROh9eSgpLaN3KTbSfRcKdGw/pcVgMhd9VOprHYbH0ICSC/E8F0PKFa+jxg8dG/tfanje8ZKRl0PrVbnRkvy/dCw7XuOokEK73Qx6Tz+FTtGGNB0VHxHAktTKelC6HtjwriqK0Bc4rG2obyP/MRfJw20aHD3iR52FvOqJ0KBKmh47Sls3b6bj3SaooqdDCiKI4Gwg3tuz0HNq9Y798R3jPtoO0W+lw9mw/SNvd90jX6/t3H7ZNOJuwJcYl0Y4te2iL2w6Nq05iz/YDtNVtp4wxj42MlXC3jA/FJVDxrCiK0laQX7JVl1dSEhdM4mPiKSE2QelAJEyfJFJZka2bIge7ZVwoiuJ4bIZhLHHRcUy80sE8iYqj1MQ0aqixvXCax0FrsVlWWhb7q3HVGSCuMlIymyqXLONBcRm027aiKEp7sZVp1DrROJgtw15RFOdiCgW1zrWOKJ9rXDnG2tozQOmSqHhWFEVRFEVRFEVRlBfQY+zYscaKimdFURRFURRFURRFsaTHpEmTjBUVz4qiKIqiKIqiKIpiSY8N6zcYKyqeFUVRFEVRFEVRFMWSHvPmzTNWVDwriqIoiqIoiqIoiiU9xowZY6yoeFYURVEURVEURVEUS3S2bUVRFEVRFEVRFEV5ASqeFUVRFEVRFEVRFOUFqHhWFEVpD/WcZ6o5xhDWVnGgKIrzQLlRrfONg/ql80Be1BxgCGer8FdcChXPiqIobYUX5JlFeUWUlZaldBKZqZlUkJP/NMybx4OiKI6nnmGrrayh3Mxcyk7PYrKVDscI1/LiMgnvdpXTbXFVXV5FOZk5TX4qHU0W5WRkU1VZpYS3Vvi6NiqeFUVR2gLnlXU1dXTz+i3aunkHrVi6Ruk0VtPmjVso4EIgVXLhT8wqThRFcRxs+dn55HPEl1YsWksL5yyjRXOXK53A4vkraNfWvRTxMJIa6/nl01ZRxpaSkEKH9x+lZQtXcVxZn0d5OZAGlixYSXt3HqCE2AQJd6m4sIoTpcuj4llRFKW1oODS0EiXzgXQxrWb6UlsHNXV1VFNTY3SCdTX11NaWjptcd9OJ339qLqqWt9ViuJMeCkpKKHN67fS3u2H6MnjJEqNy6KUJ5lKB2OGq/+pAJo/awkL6Ah5/1jGixW8oEV0zYqNdGC3FyVEpWpcdRII16SYDPI64EtL5q+k+BibgLaKF6XLo+JZURSltXA+iRaXFUvWUHZWjvFyVOt0Kysvp9UrN1BsRKyxwSpuFEXpXNCSxuLtyqVr5LZuO+WmFVFeejFlpxRQTmqh0sFIuKYUUlF2OZ1jAb3NfZfRhZujwTJ+msO2f/dBOrzXW+Oqk0G4IoyLcypo/05POrjXk2qra1VbuSgqnhVFaT1oeW0LVn50ZXh5dD+c9nGBpK6OX4xqDrN9ew7S7aBgKby73LPVPN28CCs/FMdgFR8tYeVHV4XLiQ019bR7+z66cuGmiIas5Hylk4EwS4vPpkVzV1BOhq3S1ip+7OFnr6GugTatdaerHFcQdVZ+Kx0LKjpuBIbSnu0HKDcjt3Vx1ZWBdrQ3V8vznoOKZ0VRWkfzTLK15kqZKS93Q8LoqOcx6Vas5jjzPupLQVdvGvHgYs9Umw3HWPmldC7tMVcqW/G91FfX0bbNu+jmlVAVzw4C4hksmL1UumGLWcWPPYirqjry2LSdrl+6TYVZZZZ+Kx1LQUYphQTdp707D1JmSkbr4qqrwgsmovM7eYaWLV5OARcuG9u7gYBW8awoyovh/CGLX9r7dx+itSs30vrVbi0CNxgTHBZynzNSPt5VMlNe7oXeI68jPiqeHWxHvY65lnjGPTCxkbHkvnEbp5lNlmnJHqSr7R67KSUhtel4S7+VjgXhzHkg0r7b+i2tygPXrNhA+3ZxATqVxQ57YelvV8Mmnre776YbgSEqnh0EhDN+F8xZ1jbxzHEF8XztoopnRyHi+fo9QzynZrYurroiyBPZ9u3eR+6bPCjoShAtWrCYbgXdMvSki7+beowd87WxgptttlNRFMXMJN03bqXe731EQweOoOFDRjOjnstXw76mjz/sT1+PmEDJ8cmGB1Z+dzV4UfHsHHM58cxWnF9M0ybNor69P6Ovhn5tmZaegjQ3mvr0+pSWLFhBtZW12gLtKNgyWbSM/3oyffRBf/pysBkfzePIZLTkk73e+5h2bdtLtVWcV8AbK7+7EvbiOUDFs6MwxTNmdFbx/GrTbcQzW2JcIq1YupIePwiX9YCLAbR8yXJqrOWHz8U1ZY+Jk2cYKyqeFUWxwiaeZ02bRyOGjaGMlAyZbbUwt/C5VFZU0aF9nvTeW304Y40wPLDyu6vBi4pn55griufcjBz69KMvpJWysrTSMi01kVdEpYWlNGv6PBHaTd8TtfJb6VjYosKjadCAL+VTNIgLwSqeGOSPqYmpNHnCdJo/e/HT7/Ra+d2VsBfP2vLsMLTluevQncTzlctXyG2DG5UVlcp6fGw8DR/2lcyL4PLiebHHWWNFxbOiKFbYxPOcbxfQuNGTZIxLa+z08TPU852P5PuUYlZ+dzV4UfHsHHNJ8ZyZQwM+GUxb3LbJemts8fxlNGr4WBXPjoQN4nnowJHk63VC1l9kFSXlUtGxYM4SFc/KS9Fe8Vyn4tnhdCfxfM7vHHm4eVBdlTF5alpSGn3S7zPJI1xePM9evsNYUfGsKIoVduJ57KiJUigUs3Jrwnby2Gnq9a7riecwFc9OMVcWzxgSIWblzsSWDhfNW6ri2dGwmeLZ54ivERctPYNspYUlNHPaXBXPykujLc9dh+4kngMvBdImaXk28rfk+CSa9M2U7tHyPHbMGGNFxbOiKFbYCu0qnhletOXZOabi2XCi4tkJsKl4ZuzFs455dhg65rnr0J3Ec1pSKi1ZuJTCHzyW9fNnztP2Ld2jQbbHuHFjjRUVz4qiWPGMeP5GxbOKZ6eYimfDiYpnJ8Cm4pmxF8/a8uwwXko8b4R4vqXi2UF0G/GMr6jw4uPlQzOmz5IW6JXLVoqgxnbLY1wI/VSVoigt84x41pZnFc/OMRXPhhMVz06ATcUzo+LZKWjLc9eh24hnwM9YRWkFhd4OlcnDEp8kGMIZwtrKvQuh4llRlJZR8fwUXlQ8O8dUPBtOVDw7ATYVz4yKZ6eg4rnr0K3EM+DlGbNy44KoeFYUpWXsxPMYFc8qnp1kKp4NJyqenQCbimdGxbNTaK94rquq47xFxbMj6Xbi2cQV3sltQMXzy/AiszpGcRy2wuZzjZ1YHqc8iy0cZ7djzHNPFxTPYSH3yPOwimdHm4pnw4mKZyfAZojnESqeTfGsE4Y5jJcf86zi2VE0iecdB7qXeO5mqHh+CbLSMykxLoFSEpPtSKGEJ/GSwTXWourP+lilk6lvpNrKGkpLTrXFUUpTHCUnJMnYjILcAn7uLY5VnsUUzzPm07gxk5vWX2Tn/S7Q+2/3dT3xHMri+Yi3imcH21FP1xTP/fsNou0eu2S9NbZs0Uoa+eUYFc+OhC3ykdHyfNrXT9ZfZA01ddJbZ/7sxSqelZei3S3PHFdGy7NOGOYoVDx3D1Q8twcU3Di8YiKjafmy5TRjxgyaM2eOgP+XLFlCjx+EU2M93jQark6Bg76muoauX7lGs2fPoW+//VbiZ/bs2TR92nTa7OZOWWmcsbFTy+OVp5jiefp8aSU77+dPgZevUsCFK8/lSsA1WrVsLX3wXj8Kv298xsDS764GL0bLs4pnR5urtjx/9vEgmjF1NqeZltNUwMUrku7GjPyGRqh4dixsUY+jaWD/YbR0wUqJC8EqnhjE09lT52n4kNHSU0DFs/IyvHy3bRXPjqIg0xTP3azbdjdDxXN7qW+kBhbHVwOv0OjRo+nzzz+nAZ8PoBEjRpD/OX8RbhqmToaXspJSOrT/EA0ePJgGDBggTJ0ylR7df6TCuS2weR3ypr69PqUP3u/Hv59RH/7/efTt/Rm999aH0uqSl5Unx1v629XgRcWzc8zlWp55qSytoDUrNsjcAEhbVmnJng97fiLpb4fHbqqv4UDQd4xj4HAuLSqlebMW0fvv9LWMG3uQPyKuer/3MR33PkX1tXWuEVd8DyqeHY+K564DxHOwimeXR8Xzy4AwY7sVdJPGjBkjIjrgUgA1NvAO3m15jOJY2KqrqrngfZSGDR0mPQOiI6Jku/YKaAP1jVTGhceHYQ/p1vVguh0U8gKCKfhGiPHyQDi7yqcLeEG3bZ0wzPHmci3PgO+jICefQm/dkTRjnZaegrSHypuSghLXCYOuAi/pyekcV6GWcdMcxNW90Aecb5a5TvmK76NJPOuEYQ7jpcY862zbDqXbThjWzVDx/LLwgrC7feMWBV4OkNZoMSu3inNgq6msoTOn/CjyUYSsa8GzHbTXXCmseYF49lTx7HBzSfEM2mtWfimdS3sMh1n51RVR8ewU2i2eq3TCMEej4rl7oOK5I0DYcWFOJgjTcHw14aXB7OaowvnlQPi1FqvjuzK8aMuzc8xlxTNonm5awup4xXFYxcnzsDq+K8PvT+227Xh0wrCuA8SzdNtW8ezSqHjuKFz1ZelKqHBWXhZejO8865hnR5tLi2dF6QqoeHYKLz/mWVueHcXTMc8627Yro+JZURSltfCiE4Y5x1Q8K4qTUfHsFF6+27a2PDsKFc/dAxXPiqIorYUXo+VZu2072lQ8K4qTsRfPOubZYbxMt20Vz45Fxzx3D1Q8K4qitBZeMOZZJwxzvKl4VhQno+LZKWi37a6Dfue5e6DiWVEUpbXwoi3PzjEVz4riZFQ8O4V2d9tGy7N+qsqhaMtz90DFs6IoSmvhBS3PKp4dbyqeFcXJ2ItnHfPsMEzxvEC7bb/yNIlnHfPs0qh4VpSORgv2rgsv90JYPOuEYQ43Fc+K4mRUPDuFdotnnTDM4TR9qkrFs0vTLvGM7xkrzsEqPlrCyg/FMVjFh9LF4UW7bTvHVDwripOxF8/abdthvNSEYdpt26Fot+3uQbvEc2lRCRXlFVJRvuIwOLzLikupoYZLjRZxYkV9TR2VFBVrXDmYgrx8qigpt4wTpYvDi4pn55iKZ0VxMiqenUJ7W56ffqpKxbOj0G7b3YO2i2cutJSXlFFxQRGVFBYrDgLhDUEmLZqtKTiyGwhtCG6NK8dSVFBIlWUVRLUW8aJ0bXjBmGedbdvxpuJZUZyMimen0G7xrC3PDkfFc/egfWOeUXCBe8WxtKfAqHHlHLRw75rwoi3PzrGjniqeFcWp8LtNxbPjaW+3bW15djzabbt7oBOGKYqitBZeVDw7x7TlWVGcjIpnp/BS4llbnh2KiufugYpnRVGU1sJLWMg98jzsTbW1tcaLUc0h5uXpo+JZUZyJTTxvc9+l4tmBQDyDBbOXtrHbdj25b9hG1y+peHYUBZksnoPu094dBylLxbPL0mPMmDHGiopnRVGUluElLiaeNm/aStXV1caLUc0h5rF5u1RciKl4VhTHw+musbaevA750Envc5SfUdIkoE2Bp3QcZrhCkEU+eEIrlqylgux8Iw+0ih97kEfyj9s6Dzp/KoBKciqf8VPpWMxwLcurogunr9Du7fupuKC4dXGldDl6LFiwwFhR8awoitIyvFSXV9HGtZvp2rUgqqurM16Oap1ojRQacpfWrXGjrNa2uiiK0vHYBFn04xhaOn8Vhd0OFwENcYdfpWMxwzU5NoM8Nu6kU8fOUF11bevL62xXLl2jjWs8KPxutPincdU5mOEaH5FC61ZupnOn/SX8taLXNelx+vRpY0UjWFEUpWVshceEJ4m0ab07+R47Rdeu3qDr127Kr9KBcJhev3aDzvidozUr11NY6H0URfRdpSjOBN2Ba+rpzIlztHaFG/kcPkWnfM5LS7TSsSBcTxw9S1s27aIdW/ZQQV6BvH8s48UKzisbbD0F3NZupWNHTmtcdRIIV19PP9q0xoM8ObwrSivaFldKl6LHieMnjBUtkCiKorwY5JVsedl5dOLYadq784DSWezYT95HjlFaUpoR6PqeUhTng5ZP5vGDSDqw54h0Ud3DaVXpYBCuzGX/QKoqq5Is0DI+WsIWV6G37tD+3Yc0rjoJhCs+T3Xz2i2ZF6BdcaV0GXosWrTIWEECa7ZTURRFeQ68qDnQrOJAURTnYKtEVHOQvUwZXePKsaaVvC5Pj9GjRxsrKp4VRVHaDl6USudhFeaKorwa1AOLdKt0HFbh3h6s/FY6FqtwV1wO/VSVoiiKoiiKoiiKorwAFc+KoiiKoiiKoiiK8gJUPCuKoiiKoiiKoijKC1DxrCiKoiiKoiiKoigvQMWzoiiKoiiKoiiKorwAFc+KoiiKoiiKoiiK8gJUPCuKoiiKoiiKoijKC1DxrCiKoiiKoiiKoigvQMWzoihKe6jnPFPNMabvJ0V59eBFzUGG941VHLQWXtQcYAhnq/BXXAoVz4qiKG2FF+SZ+dl5lJKQonQW8SmUk5FjhDmseTwoiuJ46hm22soaykzNoNTEFCZV6QTSklKptLBEwrvd5XS2qrJKSk9JZz81rjqHFEpPTqeKkgoJ75eu7FBeaVQ8K4qitAXOK2ur6yjoyg3avmUXrV29kdauXE9rV21QOpA1tjDdsnk7XTwfQBVltkKJVZwoiuI42PIyc8n7sC+tWb6Bli5cRcsWrlY6geWL19Cubfso/F44Ndbxy6etZXW2xCdJdHj/UVq1dL3GVSeBcF25ZB3t3XGQnkTFGRXsqGSyihOly6PiWVEUpbXgZdjQSBfOXqJN6z0oJuYJ1dXVUU1NjdIJ1NfXU2pKGm312EknfU9TVWWVvqsUxZnwUlJQTG7rPGjv9sMUG55IafHZlPokS+lo4rIoJS6Tzp+6TAtmL6XHDyI4/DkCWivKOK/MSsukNSs20oHdRyk+KlXjqpNAuCbGpJPXweO0ZMFKiouOR72FdbwoXR4Vz4qiKK2Fl/zsfFq5bA1lZ+cYL0e1Trfy8nJas3IDxUTEGhus4kZRlM6HhduVS1dp87rtlJtWRHnpxZSdUqB0EjmphVSUXU7+pwJom/suKi8uM1o1reKmOWz7dx2iQ3u9JZ40rjoXpIeS3Eo6sMuLw9yTaqtrjcoOq7hxNbpZN3UVz4qitB5kkG3Fyp+uCi+P7ofT3j0HqLaujm9OzVG2b88huh0ULC3/LvdcNU8zL8LKD6XzsYqLF2HlT1eFy4kN1fW0e8d+uup/U4RdVnK+0slAmKFlc9Gc5ZSdns0PVSueK3720M170zoPunrxFhWzALfyW+lYUNFx80oo7dlxgHIzc1sXV10ZaEd7c7U87zmoeFYUpXUgj+CfNuNKmSkvd4PD6KjnMelWrOY48z7qS9ev3DDiwcWeqXZh5ZfSeeCZ458240plK76X+uo62rZ5lwgEFc+OwWzZnD97KYvnLH6gWvFMcVzVVdWR+8btdO3SbSrMKrP0W+lYCjJKKTToPu1l8ZyRktG6uOqq8IKJ6PxO+NGSRcvo8oXLxvZuIKBVPCuK8mI4f8hMzaT9uw/S6uXrae3KjbRu1f/f3n02R5Ft/YLnE8y8mDfzAW7MRMzce2euiZmJiZjnufc8ffq076bpxnsP3dDdpx3QeO+NDJLwRgYkYYTw3iNAwgmENwLkvfdas9bOKlFNb0lld6qy/ivyF6JEKasqd2VW/mvvzOzeyqVraO3KDSpodsrxWU7ZmPKUfT2HkpNSEZ4N156UNLp47rLVDk54P/FrkHXj0f1HFLV2I68za7Xrkpusc7JexcVsplfPXlnLwNtjHyEwsqw7Onl7lkMb1kSrduhpGyj/t2LJatq+aZfabqoQrZtvuHGF5/joLXTpdBbCsyESnOXn3FmLfQvP3FYqPJ+4gvBsiITnrAs5tM297nvTVuFIton8Y+vmbRSzIZauXrpK8+cupMvn+TNa8qQTPqN7gPAMAD2TjSDXhjWx9Ok/+tPYkRNp4tipNGHMlG5NHv89ffPVEL7fd/Ty6UtrBrp5hxuecjg8pyA8Gy/HhWeu6vJq+uf036j/F4NoEq8runXJ08QxU+nLT7+h+bMXq8sEOSaU9XU8yYmXpkyYTl9/MVjbNp5k+zh25CS1vdwUu5XbSo59dEBbITzbwt/w3N7URjEIz0ZFTHjmevHkOS1dvJxy79xXt8+cPENLFi6hzlZ+8zk8UyI8A0DPXOF5xi9zaNyoyeq6nrVVNVRVVtmtlsZmStqZQh998IV1hlAp3bzDDU9WeN6L8Gy4nBieSwtL1JdMq5atpca6Bu265FZdXkV11bU089c5KpjJcDlVunlDcHHl3c2jYYNG0/bNu1RbCF07Cdk+yvV5f/z+F5ozc4F1kicp3bzDiWd4PoPwbEogPc8x6yU8Y9i2KZEUns+eOksb1kV1bd+ePXpKY0aNo44W/oBGeAaAiOYKz7N+m0tTJ/5AzfVN1i/4v7rFlbEvkz758Cu6f+eB9QvdvMMNT+h5tqecGp4HDRjOO7hx6vZf1iNPrlowZ7Hq3UR4Nogr795DGjl0PKWl7Fe3Vcl/6XA11NTTjF9mc+BZiPAMAfG75xnh2bhICs+HM45Q9IYYamtqVbdfv3xNA74eqN53CM8AENk8wrMMW5SdQlW6+7pxHUjLQHhGBa2cHJ6j121Ut7X3c3Oth/NnL0J4No3LHZ5Tk9KttujpPchVW1lDv//8B8IzBMwdnuchPPd5kRSeZZj2+rUbqM61fXv19AX9OP0nakfPMwBEPNdOuwrP4xGeEZ7tKYRn6y4IzzbgQnhmnuEZxzwb43d4xjHPxnWF54Sdjg/Pb1+9oYULFtPdW3fV7SOHjlBC3CbqlP93wmd0DxCeAaBnrp12Cc+Tx09DeEZ4tqUQnq27IDzbgAvhmXmGZ/Q8G4Oe5/ARMT3PcqUHntL2pNFvv86gDeuiadni5SpQq0NXdH/jIAjPANAzj/BsDdtusH6hu68bF8IzKpiF8GzdBeHZBlxWeB6H8IzwbJy/4Vmu84yeZ7MiJjwLfo818udQzo0cunTuknUJRf51JFxCEeEZAHr2l/CMnmeEZ/OF8GzdBeHZBlzoeWYIz7ZAz3P4iKjwLHj6Uznhs9kLCM8A0DPXTrsVnjFsG+HZnkJ4tu6C8GwDLoRnhvBsC4Tn8BFx4Vn0tj10IITnQPRWur8Bc1w7m90W30X7d/BnruWInmfGE8KzPYXwbN0F4dkGXBi2zRCebYHwHD4iMjxHIIRnf7g+NAtfF9Czx0/p5bMXXV4xuVB40dtC6myVrReWqy140bc2tlD+i1eqjV49e9nVRi+ePle/qygp5/tp/hb+zLXTPvPXOfTdpB+t33lRRzKO0cd//xLhGRWU2pPszPA88OthFB+zSd32phbPW0rjR09GeDaJK++u1fN8MO2Qut1bSXCRLxznzFzgzPCMs20b43d4lmOeEZ6NQniODAjP/pAdN15ej/Me0dLFS+jXX3+lWTNnKb/9+hstWriQ7t/NpU45aB7h2R4SnjncXDx3gWbN4nb57TfVPjNnzqRffvmFYqKiqeRtMXqfveERngd+PYIOHzxKp06coZNHT3frzKlztHThSvrso68p9/Z9awa6eYcbnhCe7SlHhucCKzz/8tNMOn3yrHZd6nLstFrvJo//HuHZNK683Ic0dNBoWjBniWoLRddOTNrp0P7DNHr4BJo/ezHCMwQkoPCsThiG8GwKwnNkQHj2FwfjjvZ2unD2PE2cOJEGDRqkjBs3no4fPUYtTbxjjWVqL17+dbW1lLgrkYYPH67aZ+DAgfTzP3+m3Dv3rPaJgLMCBgVXyu699NVnA+nLT7+lrz8fRP178PUXg1Wv89yZC6isqEz9vXa+4YanbA7PyQjPxstxw7Z5aqxtpNXL1tOnH33N69Rg7brkSda/Lz4ZQJtit1JHCy8EfMaYIZ8lHID/mDGPPv3HV6oddO3jJttH2U5+9tEAOpB2kNrbHNJW/BowbNs8f8NzG7eV1fOMs22bgvAcGRCeAyHLjOvqpSs0dcpUmjxpMp05eZpDtes/dH8DZnE1N7dQaspeGj16tOqBfvTgofo9RgX4oL2T6qrq6G7OPbp2KYtd70UWZV2+QUVv+MNDlrNTvqTgCT3P9pTjwrNrZFJFcQXduJqt1hn9uuQpi99/t6imvMYZyyCc8FSQX8BtdVPTLn919WIW3cm+Y/U6899q5xluEJ5tgWOew4eE52sIz47Xb8qUKdYNhGf/8CSyLl+js6fOWkO15Xe6+4I9pDmaWikzI5Me3Hcdf4sdT9/5W05a1jxJzzPCs/lyXHh287d084LQ8qfkz3TzCkcIz7bwu+cZ13k2DuE5MiA8B4MsO/fOHJZj3ySTnMDNs63Ad67eMq/p5hHOeMKwbXvKseFZvL/e9EY3DzBD1x7d0f19OOPPT4Rn8xCewweGbUcGDNsOFqd+WDoJgjMEiqfsLA7PiQjPpstxJwwDCDee4RknDDMmkGOeoxGejeoKzwk7EZ4dDD3PAADe4knCcwrCs/FCeAawGcKzLQLpebbCM455NgXhOTKg5xkAwFs84YRh9pSjh20DhAPP8Ixh28YEfsIw9DybgmHbkQHhGQDAWzwhPNtT6HkGsBnCsy0CD8/oeTYF4TkyIDwDAHiLJ2vY9l6EZ8OFnmcAmyE82yKgY57R82wUwnNkwDHPAADe4ilbnW0b4dl0ITwD2Azh2RaBnzAMPc+mSHjGpaqcDz3PAADe4gnDtu0phGcAm3mGZ5wwzBj0PIcP9DxHBv96nls7qbOtA2ygbY8e6OYBoSfriK49IMzxJD3PCM/mC8c8A9gM4dkWfh/zjOs8G4fwHBn86nmurayhyrIKMKyuqpY6WnmvUdMmOu0tbVRTWa2dF4RORWk51dfUadsEwhxPuM6zPYWeZwCbITzbwh2e5/ra89x1qSqEZ1MqCl3DtnGpKkfzveeZd1rqq+uouqKKaiqqwRBZ3g019dTZKp9eXrQV30fCc111LdrKsOryKmqsa7B6oHVtA+GLJwzbtqcQngFs5hmeccyzMX73PHNb4WzbZqHnOTL4d8yz3BfM82eHUTcfCD3s3DsTT+h5tqcQngFsxp9tCM/mBdLzjGHbZnWdMAw9z46GE4YBAHiLJ3WpKvQ8Gy+EZwCbITzbIqBjntHzbBR6niMDLlUFAOAtnrJdl6pqbW21PhhRRiolORXhGcBOrvAcF70Z4dkgCc9i7sxFPg/bjl4bRxdOXqWq4nrtvCG45JjnrIu3aFvCLipCeHYshGcAAG/x9OzRM9qwLpaam9HzbLJiouJUr78qhGcA83i9k5OW7klMo/17Mqm8oKYrQLsDHgSPWq6vKlQge3DrCS1dsIrKi8utbaCufTzJNpJrw+oYOnrwNNWUNr6b53uPA4FzL9fasiY6lnGGtsTtUOfAUaVrHwhrGLYNAOAtnpobmmjd6ig6e/Y8tbe79lBQIa1r167TmpXrqfhtsfULXdsAQGjJ5o5/PMx9RAvnLKebl++oYAeh9fLxW4pem0AZ6YeptbnV+/11rnOnLtDa5dF090aedt4QXE9yX9GqpVF09NBxtfzxRa8zITwDAHjLtfP44skL2rA2htL27qPTp87R2dPn6AwEnSzXgwcyadXydXTrxm3ZFcHOCICdeF9Rep8zDxyh1cujKGXnPtqXkknpyYcgyGS5piVlUOy6TbQ5dhtVlFWqzx9tu+jwtrKd22pvYhptWLWR9uzittI8DgROluvexAO0bmUs7UlMp4baBt/aCsIKwjMAgC8kvHGVFpZSxr5DtGt7Eu3ekQwhsGtbEqWl7KM3L15bCx3BGcB+sr/Icm/fp8Sde2jn1kTaBSGxc+tuOnP8LDXVNalNoLY9euJqq+tXblDSjhTauUX/OBAYtVz58+ry+SvqWHO/2grCBsIzAIA/UGZL1wYAYA/Xl4goQ8WLXNsO3kBbmS3kKcdDeAYACITsmEDo6JY5APQNunUWgku33P2hmzcEl265g+PgbNsAAAAAAAAAvUDPMwAAAAAAAEAv0PMMAAAAAAAA0Av0PAMAAAAAAAD0AuEZAAAAAAAAoBcYtg0AAAAAAADQC4RnAAAAAAAAgF4gPAMA+Et3nUcIPt2yBwD76dZXCDLNcveHdt4QVLrlDo7Tb9KkSdYNhGcAAO+5S/d/EDw8qcKOCUDfIfuMUth3DC3Z7knxP7X/7w20lRnu5cz/1P4/OEa/P2bNsm5gpQIA6J30AnBVlFTQjavZdOncZbp8/gqEgCzbqxezqPhtsVrmCNAAfYDsL/K6+OzRs671FELj4tlLdCf7LjXVNapNoLY9esJTe0s7Pbr/qGt+7z8GBM69XO/fzaOWxhb/2grCRr/9+/ZZN7BTAgDQO95xLHxTRPGxWygmKp72JKfRvrQDlJ66H4JIlmnqnn0UF7uJotdvpOdPXljf6AdrCCMA+I7Xv872Drp87gotmb+CNqyOo+0JibQNgm77pkRKiN5GS+evpt3bkqi+uk5lMm276HBbtbW20bFDJ2jxvBUUvTYBbRUislw3bthCC+csp317D1BDfQM6JR2Mw/N+6wbCMwBAz/jDsLWxlWI5NB8/dlLtx6BCX1euZtH6tTFUXlxu/ULXNgAQejw9ffiUFs5eRtlX7lJFYS1VFNRSeUENhEBlUR3lPymiVUs20OGDx6itpdX7UMZ1+fxVWr5oHd25kafmhbYKDVmuVcX19PDOM1oyfxWdOnZaLX982etM/RYuWGjdwDckAAA94+nls5e0euV6amlxDc1CGakN62Ip5/otV+8z07UPAIQO7yd2tnZQanI6pSUdpLK31VScX0FFr8ohhCSc5WY/4hC8hipKvP0Cke/DP6LWxtKRA6dUsENbhV5dWZNa3lvit1NDdb31eaVtHweR/CgVQTmy3/gJ460bCM8A0BMJLPzDJ07brvCUnZVDyYmp1Nrayi8OZapSklLp4rnL1jf5TgrPso7wD5/gywN7RHpb8etvb26j+OgtdPnMdSp5XakNEBBcEnrF3JmLqPhtEb+hvHhPcVt1tLZT1JqNdP7kVRWedfOG4JIe6GsXcmjbpp1U+LrQu7YKZzw11NRTYf5bamlotrZ5uvs5DC5VBQBekR4H+da7IL9AfSj0RO5T9KbI2pg6advC000Jzxzk0PNstvampFvhWdrBKYGEX0dbUyvvEJdo16P3yXpVWlhKHS38hwjQZvF2TLZncvI6b7eBclJB2W46pq3kpXB4jotCeDapKzzPWuxTeG5raqPodfF0/sQVNWRbN28ILjmMIUvCc0IEhGeuOzl3aOXyVbRs8XJavHAplRWXRUSARngGgN7xJMfwTJkwncaMmEDjRk3u0Xg2cug42hi1iWqrap2zMeUp+7qE570Iz4ZLTszmqPDMU2tjCyXuSOF1aiKvN5P+sh69b+zISTR+9FTK2JdphTJ8bpuhgkgLB5GNNHr4BNUOuvbxJG06fvRkOn/6InV28jyc8J7l5eDueb50Ogvh2RD3cGufwzO3lRWeryI8G/IuPO9ydnjmqaG2ntauWkf70w9QQUEhxUbH0a7tu61tncO/3EV4BoCeyUaQa+6shfT5JwNow5oYiotJ4GAc361NG7fSD9/9TF9/MYge5j60ZqCbd7jhScJzCsKz8dqT4rDwzFVWVEbDh4xVYSshdot2XXongde7TTR00GiaOukHaq5vUvPQzhuCi+vpw2c0fPAY+m7Sj1ZbRHe/DZR2Wr86igZ8NYSWLVzJO5kNah7aeYcThGdb+B2e0fNsnAzbjoieZ67srJu0esUaKi6wLiWZe/se/fOHn62RUQ7PlAjPANAzV3ie+esc1fPcVOfaaZdtRne4DqYfoo///iVvUO9bv9DNO9zwlKPCM4Ztmy4nhufSwhL6tv8wilkfp25r1yU3609o/uxFKmz7fd1X8B3Xg7t5NGLIWEpL3me1hdC1k+CSywr9/vMfNGfmAt8vMdRX8WvrCs9nEJ5NcYfneT6G53YOzzEIz0Z1hedNDu955jp2+DhFb4jp+iI3//kr6v/lALWNUNtB3d85BMIzAPSsKzzPVeG50d2LIr/vDpcVnr+i+3ceWL/QzTvc8ITwbE85NTwPGjD8XXh+fz3y5AplEp4njJmC8GwSV969hzRy6HhKlfAsbSF07SS46qpqVXiWETsIzxCIwMMzhm2bEknh+WjmMRWeWxub1e38F/k0YtgohGcAAPfO4CwOz5PHT1NnVlSlu68b14G0DPrEgeHZOts2hm2bLscd88zlDs9yLK0q3f3cXOshwrMNuNzheW9SutUWPb0HuWora5wdnjFs2xgM2w4fcsyzOtt2JAzbvp5Nq1aspsI31uvMvZNL82bPo04M2waAiOfaaZ/5G4fnCdM5PHtx/B6XhOePP3RgeFYnDEPPs+lycs8zwnMfx5V3L0+dBDEV4Rk9z4YFcsKwmPXoeTYpYk4Yxu+v+rp6WjR/Ce1J2kuV5RUUtT6aTh47yf+nub/DIDwDQM88wvOUCb71PDsyPGflUAp6no0Xep6tuyA824Cra9g2wjN6ng0LJDxHIzwbFTHDtgWXnBBWzri9dNEy2p+2n5qddnnSbiA8A0DPPMKz1fOM8JySiJ5n04WeZ+suCM824EJ4ZgjPtvD3mGcZto1jns2KqPAsuCpLK+jV81f8fmtV+0ja+zkMwjMA9My10z7Lj/D8iQPDM04YZk8hPFt3QXi2AZd72DaOeUZ4Ns3fnmdpKwzbNiviwrPrc0lVBOVIhOdAuD9Au6P7GzBL1y6edH8DfybLiQs9z4wnhGd7CuHZugvCsw240PPMPMMzjnk2xt+eZxWe0fNsVFd4dvoJwyIcwnMAOltloXVTch/5//f+BsxR7dPO/+6m1P9r/g7e49ppl55n6zrPrp12eft3h0suVeXcnmcc82y6IuJSVbp1yc36E1owZzHCs2lc7vDsy3WeZ/wyG+EZAhZQeEbPs1ER1/McoRCe/aG+de6kp4+e0P59++nggYN06GCGksH/3peWTo/yHlKn+77v/z2EnnxwNLVS9o2blLY3lTJc7SOkzTIPZVKRnF6f76r9e3jHFZ5lR3DSuO+prop3BPnXHS3t3ZLan3qQPv77l5R7+766rZ13uOEpGz3PtpQTw3NJQQl9238oRa2NVbd165Kb+rKP/2zeHwtp3KhJCM8mcd2/k0cjhoyjvYlpqi2Erp2EtFN1eTX99s9ZNGfmAnXNZ1W6eYcTz/CMYdvG+B2eu455xqWqTEHPc2RAePYXL6+C129p1cpVNGjQIBo2bJgycOBAWrJoCb16/hLBzE7tndTZ3kG5d+7SL7/8Qt98+y0NGz6chgwZotpp25atVFVRiTbyhqv3fvH8ZfTZR/1pwZwltHzRKlq6cGW3Vi9fTxPGTKWBXw+nxw+eqL/Xzjvc8IRh2/aUE8NzRUkFjRkxiYYPHkMrl67Vrkueli9aTd/0H0Y/fv8rtdQ3qXlo5w3BxZX/PJ/D81gaO3KStm08yfZx/uwl9MUnA3hbuI7bqlnNQzvvcOIZntHzbIzfJwzjtrLOto3wbAp6niMDwrO/XIFCht2tX7eehg4bqoLZimUrqCD/rfo/dR/d34IZ8p7myrufRzNmzFBfcowaNYp27djlnGF0pvAkPcgL5iylqROn0/eTf2Q/dWvqxB/oh+9+pkP7M6mpgXfynbJ94QmXqrKnHBeeZee2pY3OnbpAv/w4k76b9IN2XfIk65UcPnHj6k3XyKb35gmh0dHJQaSVMvZl0k/TfvOirX5U28l5fyyiB3cfWF/SOqGt+D2L8Gxe4D3PGLZtilzn+ZrqeUZ4djKE50B4BOg1q1fTsqXLPIIz0/0NmCXva66HuXk0a9Ys2r51G9XXIDj7hZelDD+sKOEPiJKKXpRTZWll1xBG7fzCEU/oebanHBeehetzt6qsSrMO6ZRTTUW19Xf4jDGLl7lsz6rKKlU76NvnnfLicusQF2knp3zJwcsA4dk8hOfwgZ7nyIDwHChXgK4sq6DSohL1b+zU9DHSHvz+LnxdgB7nQMhy9LWctl3hCeHZnnJkeBayjvha+IyxR6S3Fb9+hGfzAjphGMKzUQjPkQHhOVh4soZmYTn2SdIu/APvcwgITwjP9pRjwzNAuEB4tgV6nsMHwnNkQHgGAPAWT9kIz7YUwjOAzRCebRH4CcMQnk1BeI4MCM8AAN7iScJzMsKz8dqTjPAMYCvP8IxLVRkTeM8zzrZtioRn64RhuFSVkyE8AwB4iydr2DbOtm260PMMYDOEZ1v43fMs4Rk9z0Z1hWf0PDsawjMAgLd4kktVJeNSVcYL4RnAZgjPtghk2DZ6ns3CpaoiA8IzAIC3eEJ4tqcQngFshvBsC3d4nutHz3M0wrNR78Izhm07GcIzAIC3eMLZtu0phGcAm3mGZ5wwzJiAhm3jbNtGYdh2ZPAvPMuOi9wfzPJnhxFtZQ/s3DsTT9k4YZgthfAMYDP+bEN4Ns/vnmcZto1jno1CeI4MfoXnpvpGaqipp4ZaMIaXd3N9E3W2yhZR3y7vk/uircyrr6mjloZmbZtAmOMJPc/2FMIzgM08wzOGbRsTyLBt9DybhbNtRwbfwzPvtFSVV1JpUQmVFZeCIbK8qyuqqKOFG8CbHUe5G3/IVZZXoK0Mk+VdW1Xj0xcdECZ4wjHP9hQuVQVgM8/wjJ5nY3DMc/joOuYZPc+O5lfPs4QCsIeuPXqimweYoWsPCHM84VJV9hR6ngFs5hme0fNsjL/HPEtbYdi2WThhWGTACcMAALzFkxzzjGHb5gvhGcBmnuEZPc/GIDyHDxzzHBkQngEAvMVTdla2GkKM8Gy29u5JR3gGsJMrkMVFbabLZ68jPBsi4VnMnYljnvs66XnOungLPc8Oh/AMAOAtnu5k36Ud2xKpra3N+mBEGaldO5LoysWrVnBGeAYwzxWeN2/cRudOXKbSN1XaAAHBVZxfSQUvSl09z8Vqe6htH0/cVp38c/3qGDp3/DJVF9dr5w3BJV9SXDl7g7bG76CSghLv2grCDsIzAIC3eJIPxGVLVlFJieuDERXyamxsohVLV9PD+4+sX+jaBgBCS31x1Umnj52h+KitVPyqQoUFCdEQGmVva6i6pIFOHjmvhmDXVtZ6vw3k2pqwg5K2p6keUaF7DAiOioIaqi1rosRtqbRzSxK1NrWofQZt20BYQ3gGAPAW7zx2tnXQgbQM2pywnR49fEJVVVVUU1NLNdU1EEy8TKv55/PnL2jLph20e0cK1dfWY2cEwE48VZVW0opFayh5RzrdvZFHT++/oie5LyHIZLnm3X5GZ45eoCXzV1JO1i1rX93bkTc8vXz2ilYt30BpSRl0P+eJ9nEgcNJWD249oYy0Y7Sal/e927ncSF62E4QdhGcAAF/wtrKloYX2c4BO2LiV9qakU9qefZQKQeVeplsStlHSrr1UWVaJnREA2/E6yD9ePcunhJgtlBC9lXZsSqLtmxIhyGS5bonbSRtWxdLVC9es5e/TvrraYtL9uw8oXtoqZrv2cSBw0lYJMdsoem0c3cm+Yy14HF7kWAjPAAC+ku0lV1lRGd27lUu3b95Rx0JD8LiXaddJV6R0bQEAZkko4Opo7aAXT17SrRu31foKwZXDy1WCb11VnbXA/Q1jXK1NrfQk7wnaKkSkrR7mPqaW+ma1vNUXF7q2AEdAeAYA8IdrBxJloPANPkDf4/oSERXi4kWtXf6+QFuZKV7U2uUPjoLwDAAAAAAAANALhGcAAAAAAACAXiA8AwAAAAAAAPQC4RkAAAAAAACgFwjPAAAAAAAAAL1AeAYAAAAAAADoBcIzAAAAAAAAQC8QngEAAAAAAAB6gfAMAOCvdt5uQujplj0A2E+3vkKQaZa7P7TzhqDSLXdwHIRnAAB/uEu2nboPUQgOd8m/de0AAObJds9d8m8IPtnmyU8pXuTadvCG5zw85w/BJctXSn7q2gEcA+EZAMAX0gvAVVFSQdcuZdGFMxfp4tlLEAKybC+du0JFrwvVMsfnFEAf4AoLjx885nXUWk8hNM6fvkA5129RU12T2gRq26MnPHW0tNODu3k8L/1jQHBIW+XeyqWWxhb/2grCBsIzAIAveCp8XUDxsVtoY3QCpSTtpbS9+yl1zz4IIlmme5LTKD5uC8Wsj6Pnj59bOyTBGsIIAL7r6KTOjg66dPYyLVu4mqJWx9PWuN20JW4nBNnWuF0UF7WVli9cQ7u2JlNtVa1vvZq8rWxraaOjGSdo6YLVFL02Qc1T91gQGFmuG9dvocXzVlD6ngNUX9eg1hVtu0DYQ3gGAPAWbydbG1spdkM8HT92UmU5VOjrypUs2rAmhsqLy61f6NoGAEKPp6cPn9LCOcso+8pdqiqqp8qiOgiR6uIGyn9SSKuXbqDMA0c5DLd6v7/Odfn8FVq+aB3duf6AqksatI8BwSHLN+/OU1oybyWdOnpaLX982etMCM8AAN7i6cXTV7Rm5QZqkZ0YlLGKWhdLOTduWT0vOP4ZwDzeT+xs7aDU5H2UlnSQygtqqDi/gopelUMIyXK+n/2Yli1aQxUlXn6B6DpfhGw3jxw4pYId2ir06sqa6Sgv7y3x26m+ut63kQLhSvIj/4ikHInwDADekQ9j/qFKfvbEXU7brvCUnZVDyYl7EZ4NV0pSKl08d9lqByeFZ1lH3MU3eyQlP/F5bQ9/2sph79X25jaKj95Cl89cp5LXldoAAcEloVfMmbmYit8WqbeWtn08cVvJsc5RazbShRNXqKq4XjtvCK6Kwlq6diGHtiXspEL3uTp07eMU/D6rr+H3Fr8vWxqarW2k7n4Og/AMAF7paO1Qw2YL8t+qY357U/SmiJrrm5y188hT9rVsFeRaWlwnBUEZqb0p6c4Lz/w6WhtbeIe4WLsO6ZQWlqgA46j1Khzw8pbtmbdtVZBfoHoJHdVWrvAcF4XwbJLqMc4vp7mzfAvPbU1tFLMuns5zeJZhxbp5Q3BZ4flWZIRnrru37tKKZato4fxFtHjBEt5HLIuIPInwDAC94zp57AxNGvc9jRgyjkYPn9CrYYNG08aoBKqTk5xI6eYbbnjKvp6jThKG8Gy25ORhjgrPPElwTtyRTKOGjafRw/TrkadRQ8fT2JGTKWNfpho+i89tQ3g5y7kOotdtpJFDx1rtpWkfTyOHjuO2mqTOcNwpJw5ywnuWl4O75/nS6SyEZ0Pcw619Dc/tXeH5KsKzIRUFrp7nTbucHZ55aqhtoDUr11LG/gwqLSmluJh42rV9l7Wtc8oXht1AeAaAnslGkGvurIX0xSff0oa1sbyR3ERx0Qnd2hS3hX78/hf6+otBlHcvz5qBbt7hhicrPKPn2XTtSXFYeOYqKyqj4YPH0PjRUyhh4xbtuuQpPnaT+lJq6sQfrFEdMhvdvCG4uJ4+fMZtNZa+n/yTtm08STutXx1N3/YfRksXrqSGmgY1D+28wwnCsy3c4Xmer+GZ2ypmPcKzSRKesyJh2DZXdlY2rVmxtus9ee/2Pfrpx5/VKEWnZ0qEZwDomSs8z/xlDk0eP906rsWLOrQ/kz7+4EvKvX3f+oVu3uGGp3fHPCM8myzH9TxzyRDsgV8PU2dv97YWzFnMYXsyNdU1Wr/QzRuCi0uukztiyFhKT9mvbvdWjbUNNOOX2TRn5gKqr66zfqmbdzhBeLZF4D3PGLZtSlfPcwSE5+NHjlP0+hhqdu0Tvnr+ir766mu1jUB4BoDI5grPs36bS5MnTFM7hark993hOph+iD758Cu6f+eB9QvdvMMNTxKeUxLR82y6nBqeBw0YroYDq3p/PfIkn9Fc82cvogljpiA8m8SVd++hGoqdlrzPaguhayfBJYer/P7zH2rEDsIzBMLv8IyeZ+MiZtg219HDxyh6Q3RXh0r+i1c0YvgohGcAAPfOoITnKROmU0NNvfUL3X3duA6kZTgyPOdg2LYt5cRh238Jz7r7ubnWQ4RnG3DJ4Scjh46nvUnpVlv09B7kqq2scXZ4PoPwbErgw7bR82xKRA3bvp5Nq5av5tdZoG7n3rlH82YvoM4WfvMhPANARHPttM+Unufx03wKzx87MTyrnmcM2zZdEdHzrLufG8KzfbjcPc8IzwjPpmHYdvh4d6kqh/c88/urob6BFi9cQqkpqVRdUUUxG2LoxNGT/H/8/074jO4BwjMA9My1067C8wSEZwzbtqcQnq27IDzbgMvqeR5HqQjPGLZtmL89z3KpqmiEZ6Mi6jrPXI8ePKJVK1bR/LkLaH/afmpp5P2iCMiTCM8A0DPXTvusX2XYtm/h+ZO/OzA8X8+hZFyqynhh2LZ1F4RnG3C5wzN6nhGeTQto2DYuVWVUxJwwzI2n6vIqKsh/qy7nJ7e193MYhGcA6Jk7PMsxz+NxzLN1zDPCs+lCeLbugvBsAy5r2PZ49Dxj2LZxfvc8d4Vn9DybEjEnDHNzfS6piqAcifAcCPcHaHd0fwNm6drFTXd/+CtZVlw4YRjjCcO27SmEZ+suCM824EJ4ZgjPtgj8hGHoeTYl4nqeIxTCc6C6Kyfs3IW5TrlQu2uHU1uavwEN1zKcqYZtT3+30y7bjO5wyaWqPnbgsG2cbduecnJ4jlkfp25r1yU360/UdZ4Rng3jcodndakq+ZXQtZPgksAs13lGeIZAITyHj66zbUdKz3OEQnj2h+y4sSd5j2l/+j46sG8/ZRw4qBzcf4DSU9Po4f2H78Kbbh4QWrLom1rpZtYNSt2TarWNq432pe2jzIxDVJj/1toB0v09vOMKzzN+mUOTx33PO4JWz7O8v7sjdSDtIH30wReUe/u+uq2dd7jhyep5xrBt0+XEE4aVFJTQt/2HUtTaWHVbty65uf9m3h+LaNyoSQjPJnE9uJtHI4aMpb2JaV2/17WTkKqpqKbff55Fs2fMV9d8VuU5z3Akn6vu8Ixjno1xh2dfz7b97oRhCM+myAnDrEtVITw7GcKzv3h5Fb0ppDVr1tDgIUNo+PDhyqDBg2jZ0qX0+kU+lqmd2jupo72Dcu/m0u+//kYDBw2kESNG0NChQ7mdRtD2bdupqrIKbeQNV3hePH85ffbR12rnfQn/e9G8Zd1asWQNjR89hQYNGEGPHzyxZqCbd7jhScJzMsKz8XJieK4oqaCxIyfRsEFjaNmiVdp16Z3ltGTBChW2f5r2K7U0NOPLP1N4evU8X50wbMzwibSY20LaQ99Oy3j7uEL1OH/xyTe0evk6aq5vckZb8eclwrN5fh/zjLNtG/cuPGPYtpMhPAeCS4bdrV+zjoYOG0pDBg+hFctW0Nv8N+r/JMBp/w7MkPc0V17uA5o5YyYNGjSIRo0aSTu376B6b47bhXd4yr2dS/NnL6GpE6fT95N/7JHcZ/rUn+nQ/sPU3Mg7+U7ZvvCEYdv2lOOGbUsQaWmjsyfP0y8/zqDvJv2gXZc8yXo189c5dOPqTeqUzxd8xpjB77dWbquMfZn04/e/etlWP3DYWUT37z7g7YbM4715hiN5zyI8G+dvzzOu82wehm1HBoTnQMiHIVdpUQmtXb2Gli1bpk7XrsoJO3dOIO9rrrz7efTHH3/Q9m3bvDvhFfwVL0tZdlVlVerSBL2RYYsdLbwi8J9q5xeOeLJ6nhGeTZfjwrNwvQ45uZRuHdJRQ4Dl7xCczeLtn2zPaiq8ayvZTqrPGie1lQQyhGfjAul5xqWqzEJ4jgwIz4FyBeiqsgoO0aXq3wjOfYy0B7+/C18XWDsz/Cvt/aBnshx9LadtV3jKVtd5Rng2XY4Mz0LWEV8LnzH2iPS24teP8GweThgWPnC27ciA8BwssvwEegP6JtmB4R94n0NAeMKlquwpx4ZngHDhCmQqPONs28b43fMs4Rk9z0ah5zkyIDwDAHiLJ+l5xjHP5gvhGcBmnuEZPc/GBB6eccyzKTjbdmRAeAYA8BZPONu2PeW4s20DhBvP8IyeZ2P8PWHYu2OeEZ5Nwdm2IwPCMwCAt3jKUcO2EZ5NF8IzgM08wzN6no1BeA4fGLYdGRCeAQC8xZMM28YJw8wXhm0D2MwzPKPn2ZjAwzOOeTalKzyj59nREJ4BALzFE4Zt21MIzwA2Q3i2RSDhORo9z0Z1nW0bPc+OhvAMAOAtnjBs255CeAawmWd4xrBtYxCew4cc84xLVTlfv0mTJlk3fAnPsuMi9wez/NlhRFvZAzv3zsSTDNtOSUJ4Nl045hnAZvzZhvBsXuDhGcO2TUF4jgz9fvrpJ+uG7PC/95/daapvpPqaOmqorQdDZHk31zdRZ6tsEfXt8r6OlnZqqkNbmabaqqFJ2yYQ5njKwaWqbCn0PAPYDOHZFu7w7OulqqStcMyzWThhWGTot2XzFuuGt+GZd1qqK6qorLiUykvKwBBZ3jWV1SoQe7XjKHfjDWdVeSXayrDS4hKqq6qlzjbvv+iAMMGTNWwb4dl0oecZwGYIz7bwNzyrnuf1CM8m4YRhkaFfZmamdcOHnRHp/ZQQB2Z1tvgexnTzgdDzZYQAhBGeZNg2zrZtvtDzDGAzhGdb+Dtsu73rbNs45tkUnDAsMvRbuXKldYNXtPf/s0ey8wJm6dqhN7r5QOjp2gLCH08Ytm1PITwD2MwzPONs28b4fcwztxVOGGYWwnNkwNm2AQC8xdPNa9m0B+HZeO1NSUd4BrCTKzzHRW2my2euIzwbIuFZzJ25yM8ThiE8m6KGbV+8hWHbDtdv8uTJ1g2EZwCAnvF0O/su7di6m9ra2qwPRpSR2rkjkS5fuGoFZ4RnAPNc4Xlz3DY6x4Gs9E2VNkBAcElwLnhRSvP/kJ7nYrU91LaPJ9mnb+2g9aui6dzxK1RVXK+dNwRXVVE9XT57g7bE76CSghLv2grCDnqeAQC8xVNJYQktW7yKSkpKrQ9GVMiroaGRli1dTQ9zH1m/0LUNAISW+uKqk04fO0txUVtVqJMeTQnREBplb6upprSRTmaeU8cv11bWqs8hbfu8j2tbwg5K2pFG5QW1VFmItgql8oIaqi1vosRtqbRzayK1NLYgWzkUwjMAgLd457GjrYMOpmdQQvxWevjwMdXU1FBdbR3VQlBZy7SWnj97QZt4WSfuTKb62nrvdxwBIPh4qiqrpBWL16qQcPdmHj17kE9PH7yCIHuWl08P7zyjU4fP0+J5Kynn+i1r++ftyBueXj57RauXrae9uw/Qg1tP0FYhIm314PZTOrD3CC/vDXT/7gNuJC/bCcIOwjMAgC94W9nS2MwB+hBtjt9GKclp6jJKEBpbN+2glN2pVMk77NgZAbAbr4P849WzfDV8OyF2G22L301b43dBCGzeuIOi18bR1YtZ1CnLnyd9u+ioLSbdv/OA58NtFbNN+xgQHLJ8YzdsojvZd60FL8tf2y4Q7hCeAQB8JdtLLjn+TI6Bzrlxi27duA1B5F6mb16+sXYYpXRtAQDmcbU3t9PTh89Uj6isrxBc2Vk5dO9WLtVU1Kjl7fd+OldLQ7M67AVtFRrSVg/u5VFjbYNa3gjOzobwDADgDxk6hzJTOEEYQN/j+hIRZaB0y98XPKEMlCxn3fIHR0F4BgAAAAAAAOgFwjMAAAAAAABALxCeAQAAAAAAAHqB8AwAAAAAAADQC4RnAAAAAAAAgF4gPAMAAAAAAAD0AuEZAAAAAAAAoBcIzwAAAAAAAAC96Ddl8mTrBsIzAID32nmbiTJTsqx1bQAA9pH9RlToixe1dvn7Am1lpnhRa5c/OAp6ngEAfOXaEamuqKa3L9/QGwiZytJKa4dE6NoCAMyTVbK1g0oKS+jtq7cQIoWvC6mprlEtb7+/RJQ/bW6j4rfF2seA4Ch6U0StjS1qeeMLX2dDzzMAgC/4Q7GjrYNuXL1Ju7Yn0cboBIqNimfyE4Innjbyz+1bdtOls5eopakZARqgL+CqLq+mQ/uPUOz6BFq/KgZCJGrNRkrauYee5D2x9tM7NO3RE64CDuD7Uw9SzLp4WrdS/zgQmHUroylq7Ubam5RGr1+8Vsud2jXtAY6AnmcAAG/JhyFvKy+cvUhrV22grGs3qKysnJVRWSkEFS/TivIKun3rLm1YG0vHD5+kZgnQvu48AkDw8NRQXU8JMVsodt1mun7pFuXdeUoPbj2BIJPlei/7Ee3ZtZ8WzllmBWhfQhl/VpUVldEGDuBxUVsp59o9tFWIyHK9ff0Bbdm4i5YvWkP5z/OtttK1C4Q99DwDAHiLp6qyKlq2eBW9euX6dhkV8qqsqKQVS9fQ00fPrF/o2gYAQozXvY5OunTuCq1ZFk1Fr8qporCWSt9UQYiUva2m6pIG2peSSZvjtlNjbaP3I3C4knbtoW3xu6nkdSWVF9RoHwOCQ5ZvVVE9bYrZoUYLtLXwChMp2SrChqmj5xkAvCcbSF/p5hOueLp/5wFtTthObW3y4lCmauvmHXT10nVnvq/cr8lbunlA6EmPn649eqKbT7ji/cSO5nbatmknnT56gUpfV6kADaElwff10yJaMHsplRSU8JvKi/cVv/c62zpo3apoOnvskgrgunlDcFUXN9DF09doS9wO1evvVVuFM9nGeZbTtnndQHgGAO/INoJ/qJ/ekvs7aWPK082sbNqTnEYtLa4Tg6CM1N6UdLp49rLVDg57T2nXnZ7I3+jmBaEjwZknbXt0x31/3fzCEb8WOfFUXNRmunz2ugp1ugABwVWcX6HMmbmIit8W8RvKi/cUt1Ubt1X0+ji6cPIqVRbVaecNwVVRUEvXL96ibZt2UUF+gXdtFa7kPdbUShfPXaTY6DjeN7ppfTZHQIBGeAaA3vH2oaKkgg6mH1JDx7Ym7OiR3Gfn1t2Ud+8hdXbIHpdDti885VzPoZSkVIRnw7UnJY0/pJ0Vnjs7OunVs3xK2plCW+J7X6+2xG+j1OQ0ddbcSNhB6VM4PD/MfUS7tiV51Vab47ap7WV5cblzvuyQTTkHsvjoLXTpTBbCsyESnOXn3FmLfQ7PcpKw8ycQnk2R8Jx1IUeFZzlTuldtFY7k84d/JO5KorWr19HJoydp9sw5lJ2VbW3vHP75hPAMAL3jioveRJ9/PIBGDh1HY0dMojEjJnZr3KjJ9PUXg2nalH+qyw2p0s033PCUzeE5GeHZeDkuPHPVVtbQzF/nUP/PB9G4kZO169L7vvrsW1q2aJX6xt8xoayv40mGYMr2rP/ng7Xt4mnsyEk0atgE+uyjr2n75l3U0cJvWJ6Hdt7hBOHZFv6G5/Ymd3i+gvBsSMSEZ67XL/Np2ZLllHPjlrp97PAxWrlslbqEndMzJcIzAPRMggrXDN7JHzVsPD3MfUj5L17Ty6evulX0tlj1kn3y4VeUe/u+NQPdvMMNT+h5tqecGJ5LC0vo2/5DafH85epyMrp1yU16qF+/fEO//DhDfTnVde1X3bwhuLhkFM2wQaNpY9Qm1RZC107i9cvX6twI3036kQPPQqqvrlPz0M47nHiG59MIz6a4w/M8X8Oz9DyvR3g2SU6gp8JzgvPD87nT52j92g1UW1mrbj999ITGj51ofVmI8AwAEc0Vnmf9OpemTJhOzfVN1i96qYx9mfTx379UO5GqdPMONzxlZ+VQcuJehGfD5dTwPGjAcIrdEKdue1ML5iymCWOmIDybxCXhWUbdpKXsV7d7q4aaeprxy2yaMxPhGQLj97DtpjaKRs+zURKer6nwvNPx4flwxhGK2RBrjYLievPqDfX/aoDaRiA8A0Bk+1N4nqZ2ClXp7uvGdSAtgz75+1fOC88Ytm1LyUnanBqeo9dtVLe193NzrYfzZy9CeDaNK+9engrPqUnpVlv09B7kkiH5v//8B3qeIWB+D9tGz7NxkdTzfOr4KdqwLqprn/DVs5c0beo0hGcAgK7w/NtcmuxreP7QeeE5JyuHUhIRnk2Xk3ueEZ77OC6r53k87UV4xjHPhvk7bFt6nnHCMLMi6Zjnl09f0JJFS+nBPWsf78yJMxSzIYY65f+d8BndA4RnAOiZa6d9JodnX3ueP3ZgeEbPsz2F8GzdBeHZBlzuYdsIzwjPpvkdnrmtotHzbJSE54gYtt3eSR3tHbRj6w6aM2suJe1OpkULltCzx8/UfpL2bxwE4RkAeubaaZeeZznmOeJ7ntUJw3DMs+lCeLbugvBsAy53zzOGbWPYtmmBnzAMPc+mREzPs+Cpjrdtl85doiOHjtLjvMdWlpRr4uvu7yAIzwDQM9dOu/Q8T1bhucH6he6+blxO7XlGeLanEJ6tuyA824ALxzwzhGdbBNLzjGHbZr075tnhPc9uUvxeU2fYlnLCZ7MXEJ4BoGeubaKcMMznY56deMIwnG3blkJ4tu6C8GwDLnd4xrBthGfT/D1h2LtjnjFs25SIOdu2J9kWRliGRHgOBE/dlvyf7m/AHNfOZreF97x3XMtxpoTn8b4N2/7YoWfbRs+z+cLZtq27IDzbgAvDthnCsy1wwrDw8S48R8Cw7QiG8OwP14dmWXEpFb0tpNKikj8p5t+Vl5RRZ6tsvTR/D6HX3kltja1UXFCkeLZPSWGxareaimp1P+3fwzuunXY55nnqpB/fDc/ppQ4fPOrI6zzL2baTcbZt4+XU8Dzw62G0MSpB3famFs1bQuNHT0Z4NonLHZ73px5Ut3ur1sZmmvnrHJozcwHCMwQkoGOe0fNs1LtjniOo5zkCITz7Q3bceHnJwfErV6yk+fPm0+JFi5T58+fT8mXLOTDkUqcEMyfs5IUj+d6itY0unb9IC+YvoAULrDZatHAhzZ0zh+I2blRfcmCEgBdcWXnGL3No6MDRdPHsJbqRlU3Xr9zoVs7NW7RuVRR9+o/+lHv7vjUD3bzDDU/WMc8Iz6bLqcO2JTz/8fs8yr5xS7suvXNTrXfTpvyE8Gwal4TnYYPG0Iqla+nGVW4Lpm+nG6qdzp++QBPGTqV5fyxyZnjG2baNCeiYZ5wwzKiIOmFYBEN49hcvr+amZjqaeZRGjRxFAwcOVEaMGEH7UtOpoa4ey9RuPFVWVFJ8XDwNHDRItc+3335LU6dOpawr16i9lffA0fPsHa6tCTvos48G8M7+cBWih3w7qlvDB4/h+35NP/8wg4reePlhHw54soZtIzybLif2PEuoWjBnCX3+8QAa1ss6JYYyue/6VdEqxODLP0N4qi6vpn9O/01t11RbDNS3kZDt4+BvRqiRN0m79lJ7G79hnbA/wK8BPc/mBXLMczR6no2KmEtVRTiE50DI1NFJZ06epgkTJtC4cePocEamFcqwwvQNXE31TbR923b1xcZPP/5Ed7Jvq9/jPe8DXlbV5VV0+fxVOnroGB3LPN4juc+JIyfp5dNXrhEY780vXPFknTAM4dl0Oa7n2bVeyJdLp4+f8Xq9OnfqAlUUlztjGYQT3ga+fPqSTh497WVbHadL/H6V7aZjPmv4dSA8m+d3eOa2Qng2KyJPGBaB+k2ZPNm64ZSNu2k8yc/TJ0/RoYOH3h0P+v79wD5cjbUNlJKUTNnXb1pthve779wl/+yNLF/5KeWknXyeJDyn4GzbxstxPc/C9XHxp3XHG1K6+UFoSckPb8g2UEr+rZtXOOLXhPBsXiDDthGezcIJwyIDep6DwbXs1AnCsBz7Jmka+WJDdladFOZMcy8/b+nmEc54wjHP9pQjw7Pb++tNb3TzADN07dET3TzCFX+O4phn8/wOz13DtnHMsynoeY4M6HkOFid+UDqNvMfRRhAInqzwjJ5n0+Xo8AwQDhCebeFveJa2wgnDzOo65hknDHM09DwDAHiLJwzbtqccd8wzQLhBeLZF4D3PGLZtCsJzZEDPMwCAt3iyThiG8Gy60PMMYDPP8Ixjno0J6IRhqucZ4dkUnG07MqDnGQDAWzzhmGd7Cj3PADZDeLYFhm2HD/Q8RwaEZwAAb/GE8GxPITwD2MwzPGPYtjF+D9uWnmecMMwoCc9Z6Hl2PIRnAABv8YTwbE8hPAPYDOHZFn73PDe1UQzCs1EIz5EB4RkAwFs8ITzbUwjPADZDeLaFv8c8Y9i2eV3hGcO2Hc2/8Cw7LmAPXXv0RDcPMEPXHhDeeEJ4tqcQngFshvBsi8CHbeOEYaYgPEcGv8JzbVUNVZSVU2VZBRhUV11Lna2yRdS3y/vaW9qopqpaOy8InYrScqqvqdO2CYQ5nrI5PCcjPBsvhGcAmyE82wInDAsfCM+RwfdLVfFOi4RnCQlV5ZVgiCzv+uo6Kzx7s+PI95ENZ20l2so0Wd4NNfWuLzqw4XQUniQ8pyThUlWmC5eqArCZZ3jG2baN8XfYNnqezasoxDHPkcC/6zzLfcEeuvboiW4eEHrYuXcmnuQ6zym4zrPxQngGsBl/tiE8m4cThoUPhOfIgBOGAQB4iyeEZ3sK4RnAZp7hGcO2jfG755nDM3qezXoXnjFs28n863kGAIhEPN28lk3JHJ5bW1utD0aUkUJ4BrCZKzzHRW2my2euIzwbIuFZzJ25yOdjnqPXxtGFk1epqrheO28ILhWeL96yep7zEZ6dCj3PAADe4unRg8cUExXP4Rk9zyYrPnYz3bh2U7UBwjOADXg/saOlnRJ3pFDmvhNUXlDT1SsKoSPL+XHuS1oyfwWVFZWp7aG2fTzJNpJr/aoYOnHoHNWUNqKtDKgta6KThy/Q5rjtVF1WZTWCrn0grKHnGQDAWzw11jbSqmVrKevaDeuDERXyup/7gFYsXUMF+QXWL3RtAwChJYGMf9zLuUeL562k3OzHVF3SQFVFdWpYMASf6jF+WU6bYnZQWtI+am5s9n5/net45gnasHojPeHwrdqK56d7HAiMLFdZvm+fFdPaFbF0MD1TLX980etM6HkGAPCWa+cx724erV8TTQf2ZdCli1foMgTfJfl5lY5mHqeVy9bS1YvXrM8p7IwA2Ed+NLdSalI6rVkeTamJB+nQvuN0KB2Cbt8JOrDnCMVHb6OYtfFUXFDCGz8ftn+8vZSwvWtrogrQ6cmH1Dy1jwWB4eW6f08mbVi1kXby8q4oq7RGSenaBcIeep4BAHzhGg734ulL2puURok7kilxZwoE264U2s3LNmnnHsq7l2ftiOBzCsB+PHW0dqgvtCQo7NiSqH5C8O3YvJsy9mVSVdcQYB+3gTy1NrbSmZPnuJ12o61CRJbrjs276Pjhk+pSpVZbvdcW4BgIzwAA/nCVnJRFrqcJwSfLtqvQ4wzQd8g+o6sknLU1QbDJcu1s9VjQunbwBk+qeBuKtgoNWa7U7lrQ8kPXDuAYGLYNAOAvCXSy7YTQQWgG6Ltk/eQfECKyDdQtd3/IvPgHhEgw2wr6NIRnAAAAAAAAgF5g2DYAAAAAAABAL/pNmjTJuoHwDAAAAAAAAKDVb/q0adYNhGcAAAAAAAAArX7x8fHWDYRnAAAAAAAAAK1+mZmZ1g2c0RQAAAAAAABAq9/aNWusG+h5BgAAAAAAANDqNxWXqgIAAAAAAADoUb/JuFQVAIDv5FAXlJnCYUUAfY/sN6JCX7yotcvfF2grM8WLWrv8wVFwnWcAAF+5dkRqK2ro9YvXECrPX1NVaaW1sHmxa9sCAMyTaicqKSyhNy9fszcQdK+pIL+Amuubu5a3ti16w9XR0k7Fb4vVPPWPBYF4zcu18E0htTW1quWtbQdwjH5TMGwbAMB7vK3s4J9ZV27Q7u3JtCVhO22O3wYhsCV+O+3clkjnT1+klqYWBGiAvoCruryaMtIzKSFmK23csAlCIHZ9AsXxz6Sde+jxgyfWfnqHpj16wiUBPH3PAYqP3qJ9HAicaquozbRndyrlP89Xy13bHuAI6HkGAPBWO+Nt5YWzl2jtqii6cvkaFRUVU3FxCf+EYJJlWlJcSjdv5NCGdbF0/PBJDtDNvu88AkDw8FRfXU8JsVsoZu0munLuJt3Pfkz3bj6EIMvNfkS3s+5Tys50WjBnGT158NQKZfI5pGub9/FnVSlvQ6PWbOSAt4VuXLqNtgoRWa7ZV+/R5tidtHzxGgRoh0N4BgDwFk9VZVW0dNFKevXS9eGICnlVVFbS8iWr6fmj59YvdG0DAKElw4Y7OunSucu0ZnkUFb0qp8qiOip9U0Vlb6shyGS5lr+toZrSRkpPPkSb47ZTY22D9yNwuJJ37aGtcbvUvNBWoaOWb2EdVRXX06aYHWq0QFtLW2RkK9kuRNh5STBsGwC8p3aefOC0DSpPuXfuqyHF7W3y4lCmauvmHXT14jVnvq/eX296EmE7KX1KpG//+DV1cCDYtmknnT56QQUGCdAQWiWvK+nN0yKa/8cSKiko4TeVF+8rfu91tnfS+lXRdPbYZaouadDOG4JLlvOlU9doS/wOKi8u866twpls5/hH188I+XxCzzMAeIcnn7YTshHlH47amPJ081o27UlOpZaWFn5hKFO1d0+6Gi6v2sEp7ykZfsmTT6/HvV7p/g9Cx5/tmWwvnbRvxa+lvblNHdt5+ex1Fep0AQKCqzi/QpkzcxEVvy3iN5QX7ylpq6Y2ilkXR+dPXlW9zrp5Q3BVFNZS1sVbtC1hlzrW3Ku2Clf8HmttbKHLF6/QloQtlHMjx9o++rKNDFPoeQaA3vH2oaK0gjIPHFG9Dts376IdW3Z3S+4jJ9N6mPuIOtr5j3XzDEc8ZV/PoZQkhGfTtSc5jS6eu2y1g0M+nDs7Oin/+WtK2Z3K60zP69T2zbJe7aK0lP3qrLmRsIPSp/DyfnT/sRqOaW0D9e0kZPu4NWEnZe4/TBXF5c75skMCGYdnOfHUpTNZCM+GSHCWn3NnLfYpPLdxW8Wsj6fzJxCeTakoqKVrF3LUtrrwdaF3bRWmOjs7KXFnEq1asZqOHTlOM36bpfaPfP6SMQwhPANA77g2RiXQ5x8PoFHDxtO4UZNp7MhJ3ZowZip9/cUg+m7ST+oyDqp08w03PGVn5VByIsKz6dqT4rDwzFVbWUMzfplDX302kMaPnqJdl9735aff0tKFK6lVLokis9HNG4KLp3IOwdOm/ET9Px+sbRdPsn0cNWwCffLhV7Rt8051mSBH7GMhPNvC3/AsbYXwbJbqeZbwnODw8Mwllz1bvmQF3b5xS20jj3OAXrFslfX/Ds+UCM8A0DMJKlwzfpmtgvODuw/o5bNX9Pzx824VvC6gTRu30sd//4pyb9+3ZqCbd7jhKQc9z7aUE8NzaUEJfdt/GC2ev4zevHqjXZfcXjx5Qa+e59MvP/6uwllTXaOah3beEFxcefce0rBBoyl2Q4JqC6FrJyHbx3u3cum7ST9y4FlI9dV1ah7aeYcThGdbuMPzPH/C8zqEZ5Ok51mFZ6f3PHOdP32ONqyNotrKWnX76aOnNH7MBOd8WdgDhGcA6JkrPM/6bS5NmTidWhqarV/0Uhn7MumTD7+k+3ceWL/QzTvc8GQN296L8Gy4HBmeC0to0IDhHMji1W1vasGcxTRhzBSEZ5O4JDyPHDqO0lP2q9u9lZwVWb5wdGx4Po3wbIrfw7bVMc8Snq8gPBvyrud5p+PD85GMwxSzIVYdHiAlXwB/9eUAtY1wfnjGCcMAoCeu8DzzVw7PE6ZTQ0299Qvdfd24DqRlqJ5np4XnHAzbtqWcHJ6j121Ut7X3c3Oth/NnL0J4No3LHZ5Tk9KttujpPcglQ/J///kPhGcIWEDDttHzbFQk9TyfOn5K9Ty79wlfPntJ30+dhvAMANAVnn+bS5MnTPMtPH/ovPAsPc/J6Hk2XgjP1l0Qnm3AZYXn8QjPCM/GBdLzHI2eZ6Miqef5xdMXtHTRUnpw1zo078zJMxQTFUudrbKh4F/o/s4hMGwbAHrm2mlXw7Z9DM9ywhxnhmf0PJsux51tmwvhOUxw5d3LQ8+zZ3jGMc/G4Jjn8BExPc/tnepKKls3b6e5s+dT6p40WjR/ET17/DQi8iR6ngGgZ66ddhm2PXm8jz3PDhy2jZ5newo9z9ZdEJ5twIVh28wzPKPn2Rj0PIePiOl5FjzJ/uDFcxcpY/8hdcIwlSU5WGvv7yAIzwDQM9dOu9Xz7Nsxz07secbZtu0phGfrLgjPNuBCzzPzDM/oeTbG755nnDDMuK6e50gIz4Inea+pM2xLOeGz2QsYtg0APXNtE+WYZ59PGObQYdsIz+YL4dm6C8KzDbjcxzzvRXhGeDYs8GHbCM+mRMywbU+yLYywDIme50Dw1G3J/+n+Bsxx7Wx2W3jPe8e1HNWwbXXMc4P1C9193bgcO2xbnW0bw7ZNF8KzdReEZxtwITwzz/CMYdvGYNh2+JDwfC2Sep4jFMKzP1wfmuUlZVRSUEzlxWV/UlpYTBWl5RFxxrk+i5d7a2OL2jktLSr5U/uUFZVScUGR2rnB+94L8h7mmsXheeqkH9QHsjeVeeAIh2fnXecZw7btKaeeMGzg18NoY1SCuu1NLZy7hMaPnozwbBKXe9j2vr0H1e3eqrm+iWb+OofmzFyAnmcISEA9z+txwjCT3h3zHEE9zxEIw7b9xcvrycPHtGLFCpo3dx4tWrhImT9vPi1dupRy796jTjloHuHZHtw+ba1tdPH8RW6TebRg/nzVPgsXLKQ5s+fQxphY60OI76r9e3jHFZ5n/DKHhg4cTZfPX6HsG7fo5rXsbt29dZfWr46mT//Rn3JvW5cx0M473PAkw7Zxtm3z5dSeZwnPs2fMp9s5d7Trklt2Vjbl3LxF06f+k8Mzep6N4pKe52GDxtDqZevU6BOhaych28eLZy/SxLFTad4fi6i+CuEZ/IdjnsNHRA7bjkDoefYXL6+mxmY6knmYRo4cSd8OHEgD2fDhwyl9bxrV19VjmdqNp8qKSorbGKfaRnzzzTc0depUyrpyTYXrSDgrYFBwbYnfQV988g0H6JE0YvBYGj54TLdGDR2v7vvzD79T0RsHfYDwJDvNKYkIz6bLieFZQtX82YvVujJiSM/rlGWsuu/alVHUxiEGX/4ZwlN1eTX9NO1XXv7fdrXFX9vHItvHoQNHqRMmJu3cQx2t/IbleWjnHU4Qnm3hb3iWbQSGbZslPc8Ytu18CM+BkKmjk86cOkMTxk+gcWPHUWZGJrXLByVWmL6Bq7mhibZv266+2Pjxx5/odvZt9Xu8533Ab+maihrV63z44BF2lI5kdE+GbB/LPEH5z19RZ7vscWnmGY54ykF4tqUcF57VyKRO3hkuppNHT6t1RrcueZL7nD15nipKKrD9Mo2X96tn+XTiyCm1DdS1j5tsHw9xW106d0VtNx3zJYdsyt3hGcc8G4Oe5/CBnufIgPAcKNeKcerEKf6wzHh3uvb37wf24WqsbaDkxGTKvn7Teq/j/e47nhT38vOGlBOCjhtP1jHPOGGY6XJceBYSoKV0605P5M9084PQktK1h468R+VPhG5e4YhfF8KzeX73POOEYcZ1nTAM4bkbsjyCSfcYoYdjnoNBPiTdO3NYjn0Tt0vXCdycsuNtB/fy85ZuHuGMJ5wwzJ5yZHh2e3+96Y1uHmCGrj16optHuJKPUIRn4wIJz1bPM04YZkpXzzOGbVu6toMeP4PJc97q35rnEAIIz8FiuOHAD2gjCBRP2QjPtpSjwzNAOPAMzzjm2ZhAjnnG2bbNwtm23eR1EzXVN9KTosd05eUVOvHkBB16eIhlBskhNU+Z95PiJ9TU0Nj1uPrnFDwYtg0A4C2ecJ1ne8pxl6oCCDee4Rk9z8a4wzOu89z34YRhgqimtobOPj9Ha6+vo8knptLXGQPpH+mf0n9P/Tv9t9QPgkLmJfOUeU8++R0/1no69/w81fJjhzpAIzwDAHiLJwzbtqfQ8wxgM4RnWyA8h49IHbatDots5dfa1En3C+7TkqvL6dtDg+lvaR/S39M/po/3f06fHviSPjvwVVDJPGXe8hh/S/sHP+YQWsqPLc9Bngu1up6b5jkHAuEZAMBbPFmXqkLPs+lCeAawGcKzLfwdto2zbZsXkScM44AqWhtb6OzTszTxxFT6IO0j+se+T7WBN5TkMT9I/0g9h7NPz1FbIyd61/PTPnc/ITwDALJpe/sAABt0SURBVHiLJxzzbE8hPAPYzDM845hnY/zueea2isYxz0ZF4qWqOls6qL2xjc48PUMjjoxWvcCh6GX21qf7v1TPYeSRMeo5yXOT56h77v7CCcMAALzFE4Zt21MIzwA2Q3i2hd89z9xWOGGYWZHW8yxDojubO+jem3s0/vgkDq2f2Bqc3eQ5fMjPRZ6TPDfi5xjM4dsIzwAA3uIJ4dmewgnDAGyG8GwLf8OzOts2LlVlVCSdbdsdnCurKmjupfn04b6+EZzdVIDm5zTv0gKqqqrk59oetADt37Bt2XGR+4NZ/uwwoq3sgZ17Z+IJ4dmeQngGsBl/tiE8mxf4Mc8Iz6a8O9u2s8OzCs4t/EHcTHTk0TF1xuuP9n2mDbF2kuf0dcYg9RzlBGId/JyDEaB973nmZVVdUUXlJWVUUcpvFDCmrqrWanRvdhz5PvIhJ22lmxeEjqwb9dV13rcVhA+e5Jjn5CScMMx0Ydg2gM3kIw3h2TiE5/ARKT3Psn/bwe+v2uoamn9pEf1b+kfa8NoXyHOT5yjPVZ6zbeG5rrqWqsorVTADM2R519f4EMhc4bm2qgZtZZgs74baeoRnJ+LJ6nlGeDZdCM8ANpOPNHd4xtm2jQlo2LY65hln2zYlEk4YJvu2sh3obOqkW69u09hjE9QJunTBtS+Q5ybP8TY/V3nO6rkHGKD9G7Yt9wV76NqjJ7p5gBm69oDwxpN1qSoM2zZdCM8ANuPPNfQ8m4cThoUPp58wTEKnDH1ua2olaiQ6+CCDvjo4QF1rWRdc+wJ5bl8d/IYyHhxSz1mee6DDt3HCMAAAb/GkwjOOeTZeCM8ANkN4tgWGbYePrp7nhJ3ODc+8DWhpaCaq66QdOTv7zBm2uyPPTZ7jzlu71HOW5y6vAeEZAMAEnm5mZatjnltbW60PRpSRwgnDAGzmCs9xUZvp8pnrCM+GSHgWc2cu8i08t7RR9No4unDyKlUV12vnDcGljnm+eMsKz/kF3rVVmOgULdaQ7eb6JuqoaaPYrDj6b6kfaENrXyLPMe56Aj/ndvXc5TXIa5HXpHutvfFv2DYAQCTi6fGDxxQTFcfhuc36YEQZqfiNm+nG1ZvWZxXCM4B5vO518A5n4o4Uytx3gsoLarp6RSF0ZDk/yX1Ji+evoPKiUrU91LaPJ9lGcq1bFU0nMs9RTWmjdt4QXLWlTXTqyHnavHE7VZdXWY2ga58w5DlkWwXQ6jaKztpI/5r6b9rA2pfIc5SgL89ZnnugQ7cRngEAvMXbycbaBlq5bA1lZd2wPhhRIa/79/No+ZLVVJDv3LOXAvR5Esh4G3g35x4tmruCHtx6QrVlTapXE0JDQm/J60pKiN5Oe5PSqbmx2fv9da5jh07Q+pWx9OxBvpqX7jEgOGT5FrwopbXLY+hgeqZa/k76otcass3hubGFmuoaqa2yhaKvxdK/poVBeObnGHNto3rO6rnza5DX4n94xrBtAAAv8XaSt5V59/Jo3eooStu7jy6cv0SXLl6hixcuQxDJMr104QplHDysgvO1i1m87LkN8FkFYB/Z12xupdSkfbRq2QZK3plOh9KOU0baMQiyQ2xfSibFrt9M0eviqLigmDd+Pmz/uK2aG5pp97ZkWrM8mlITD6h56h4LAnMo/TilJWVwcI6mXVuTqKKswnGfVRI02zlwtnLwlE6E1opmir4aw8E0uMO2vzhi0f2fv+Q5xnDQb61oosYafu78GuS1dKDnGQDAANdwuGePn1Nacjql7N5LKYlptCcxFYJIzmiestty/26eGjKv6NoEAMzhSYZvX75wlXZvT+FwxuQnBN0uDr4Z+w5TRSmHMSlde/SEp5aGFjpz4pwK0YrmcSBwu7Yl0vHDJ6m+ut6/turjOlva1bHCLY3N1FBTT83lTRR1NTpo4fnzg1/Rp+n96W9LByif8b8/z9Df11fyHCXoy3OW5y6vwTrumXfoNK+1N+h5BgDwh6vaGlvVzgkEW7P6drirHDT8DSDsyT6jFP9srm9W6ysElyxXOS6zq3Tt4A2e3H+PtgoNWa5qCLC73m+DMKeGbLuOd5bXG5LwnMnheW9/+k//bQj9n//fEPokhcMz/053X1/9JTzzawjkuGeEZwAAf8l+Df+AEEJoBui7ZN+Rf0CIyPJt53/olr2v0Fah5egcxeFZDdtuo1bpea7mAFom4Tl4w7bd4fk//l9D6D/+l1CE51hqcYVneQ3yWqxh20L3mruH8AwAAAAAAAB/YV2mql1dO1z1PHN4bg5GeD7IofmQ5YujfDu9P/0f/+8Q+j/+7yH0aWp/9Tv3/8t9tfPwgjs8e/Y8y2uR1+TP5aoQngEAAAAAAOAvOlutodsy1Fl6betr6jiINgY+bHufHOfM0qzbnyRzeP5/htB//K9D6OPd/dXv5P/kPnLfP/2tD6zwHPOnnmd5LfKa5LXpXnNPEJ4BAAAAAADgL9Qxz63S88zhucEKz03qmGf/e55lSPbfFg+g//LpYPovfx9M//WjwfSf+ef/+j8Po//lfxpO//lvQ+i/fmz9n9znvy/6xu9h3O/3PMtrkNcirwnHPAMAAAAAAEBQqJ5njxOG1VfXUXNZYD3Pnx/mUDvrG/oP/2kI/fv/bSj9h/8wlP79/z6U/t3/MJz+3f84XP1b/U7+7z8NpX/5ncPz4S+18+rN+z3P7hOGqWHb6HkGAAAAAACA4HD3PLepXlsVQAPseZZjmD9N/Yo+SepPnyT2p0/39KePt787YdhH26zfyf/JfeS+/h73rO95lhOGyaWq0PMMAAAAAAAAQfCnnufGluCEZ5FhDd8WXxzj2++fMIx/5/5/ua92Hl5wh+eunmd+Deh5BgAAAAAAgKBSxzx7DNuWABqq6zxLcJYThvXt6zxPnmzdQHgGAAAAAAAAN3XCsA5qa5azbVs9z1Z4Dv51nt09z6G4znPXsG3peebXoq7z7Fd4Rs8zAIDveEIZLF0bAIA92l3rJcpMBbKPjrYyWw7MU9awbSs8tzSEJjzLsGy5JJWcGOxffv1GXaLq8wCGant6PzzLa5DXIq/Jv2Hb6HkGAPANV2NtA92+cYeuXLxG1y5dhxCQZXvj6k2qLq9Wy5zaNW0BAGbJ/iLXm1dvKOuyrKtZf1l3IUh4G/gw96E1tFRK1x49kT/jHy+fvuT5STuhrULDWrbPHj1/92WFrj3ClHvYtlzeKVTDtrtIYA5SaHazwvOfh22rS1X5PWwbPc8AAN7jbWVlWSXt3JZI0evjKC52E22K3wohIMs2ZkMcbY7bRm/zC6wdEgRoAPvI+sfT7Ru3ae2KKFq5ZD2tXR4NIbJ66QZexuto/96D1FDfYI140rWLjrQVf16dP32RVi1bj7YKsVXcVssXrqETh09RS3MLL/v32iOcefY8B/OEYTpyRm0/z6rdHXfP859OGObqeZbXpn3NPUDPMwCAt3g72d7STlsSttPePenU0sIfkKiQ15HDx2lj9Caqrqj2becRAIKLp/zn+bRgzjI6e+wyVRbVUU1pI1WXNECQyXKtLWuih3ee0aK5K+j08bPU3trm/ReIXDI6asmCVXTxdBbVlDSirULE3VY3Lt2m+bOW0KVzV9Ty17ZLGPrz2bZD3PMcAio8X3MN266uU68BZ9sGADCBp9cvX9PKZWupqanJ+nBEGal1q6PodvYd64YMi9O1DwCEDu8nyhDH/akHKXH7XqoorKOS15VU9KocQki+oMi5do9WLV1HVWWV1jZQ1z6eXEOHZXRURvpxFfCK8yu084fgqa9ooYy0o7QlYQc11NY75sveTnWd5w5qb5brPIfomOcQkucY49HzLK9BXou8JnltutfcE/Q8A4B3/DnpiNO2KzzlXL9Fibv2UGtrq/UaUUYqefdeunT+stXr4qTwLOuIr4UvD+wR6W3Fr192OONjttClM1kIzoa4Q+/cmYuo+G2R9b7StY8nbis5nnPDmli6cPIqVRXX/2W+EHwVhbV07UIObU3YSUVvvGyrsCDhuf3P4bmiiTZd30x/T/+YPj3wpTa09gXy3D5I/4g2ZW3mwN/4XnjmDbRf4Rk9zwDgpYaaRqqtrPWabJwctfPI082sbEpJTsOQbcMlw+QvnOXwLO3glPcUv46Olg6qr67Trj869dX1+nlBaHFbyfasrsr7tpKdNHUyGqccp+8Kz3FRm+nymesIz4ZIeBZzZy32KTy3N7VRzPp4On/iquq91s0bgquioJayLt6ibZt2UUF+oXdtFSbk+GB5T3WdbbuyiXZm7aJP0j6nTw58oQ2ufcHH+7+gzw/0p5ScPdRY3qCeu7wGeS3qmGfNa+0Nep4BoHdc169cp5+m/Uajho2nsSMn9WjMiIlK0o4Uaq5vcs72haec6zmUkpSK8Gy49iSn0cVzDgrPvE5Iz1DmgSM0YcxUtb7o1iVPo4dPoKkTf6Bzpy5Qp9N64PsyXs5tLW20e3sSjRs1RbWDrn08yX2mTfknZWflUKecOMgJAVoCGYfn+OgtdOk0ep5N6ep59jE8t3E4iF4n4fkKwrMh7p7nbQk7qfC1c8KzGrbNQVPeU3Kmatmvq3hbRvPiFtC/bPwbfRak6zGHwof7P6HhmaPo7INzVF9e7wrPcsxzm3pNfg3bnjxpknXDKTu3ABBcsoPOtWDOEvr0o69p0byltGzxKlq2aGW3li9ZRRPHfkfffjWUHuY+smagm3e44Qnh2Z7ak+Kw8MxVXlymvowaMXSsWmd069KfLF5JAwcM51D2E7XUNzvmeLo+j+vZ4+c0YshYDs+T9W3jibePC+Yuoa8+G0grlqxRl7VTpZt3OPEMzxi2bYzf4ZnbygrP6Hk2RfU8OzA8C3XCMH5PSa+tfPF79cJV+n3mDBqyczh9ktl3e54/2PcR/XzyV3rx4jnVlNd09TzLa5HXpHutven3/XffWTcQngFAxxWeZ/46h6ZM/EF9W+dNSY/aRx98Qbm371u/0M073PCUzeE5OWkvwrPhclzPM1dpYQl9238obYyKV7e9qYUcysaNmkRNdY3WL3TzhuDienA3T4XnfXsOqNu9lfTMzPhlNs2eMV8Ny1elm3c4QXi2hb/hWQ3bRs+zUe96nnc5Ljx7HvMsn8EH0w/SioUrKfbcRvrq0Df08YHPteHVTvKcZMj2lqvbqOJtOVWXV6nw/OdjnvWvtyf9YmNjrRsIzwCg0xWe59KUCdPf9aLI77vDdSAtgz7++1d0/84D6xe6eYcbnmQYZkoiep5NlxN7niU8DxownKLXbVS3/7IeeZLPaK75sxfRhDFTEJ5N4sq795BGDh1PqUnpVlsIXTsJrrqqWvr95z848Cx0ZnjGsG1jAup5Vsc8Izyb0tXzvMl5Pc/qbNst7dTayPs+/P7al7qPli9eQTfv3qDvT/yohkfrAqydPtz3CX13bDrdybtN5YVlKjzLPqy8Bnkt6pwUmtfam36ZmZnWDdngv/efAADuncGZv0l4nqa+tVOlu68blwrPHzowPKPn2ZaKiPCsu5+baz1EeLYBlxWex9FeCc/SFj29B7lqK2ucHZ7R82yMOzzP8/uYZwzbNkXCs+p53uS8nmcJmh0tbVZ4bu+kMyfP0IJ5C+nezbuUcesQDcocRh/v7zu9zx/t/4y+OTiY0q6lU8GLt1RWVKq2y+7wLK/F7/AcEx1t3eC/f/8/AQC6wvOvc2nyhOkcnr04fo/L2T3PCM+my6nDthGewwCXu+cZ4Rk9z6bhhGHhoys8O/GYZxWe2/l91UptHD7lvTjz91mUtDOJXjx+Tt/H/0AfpX7WJ868LcO1vzwwgGLObaSneU+oML+AKkrK1Ygg+eyU1yCvxe/wPO37760bCM8AoOMOz+h5Rni2sRCerbsgPNuAC+GZeYZn9DwbE3h4Rs+zKY4Oz6KlQ20D5JwOEkDPnz5PP077kaZM/I6WLltGa06to28ODVa9vnaEaHlMeeyvDw6kDWej6O6du/T6eb5ab6rKKtX+qzx3eQ3yWuQ16V5rb/pNwtm2AaAnHuF5MsIzhm3bVAjP1l0Qnm3A5R62rY55RnhGeDYooGOe0fNslJOHbQvpqZVjheVST/IZJNu5pw+fUs6NHHpw5z7dvXWHdpzbSWMPTVRh9h/7P6WPDljXgf70wJd/CbuBknmqwMyPIY8lv5PHlucgz0V6xN++evOnIdvy3AM53lngOs8A0DN3eJZh2+MxbDsHPc+2FI55tu6C8GwDrrx7eTjmGeHZFoEf84zwbIpTr/Ps5jl0W3pwpTNFhkLLkGgJqc84SN+/lUunLp+ilSdW0bhDk9RxxxJqJdx+sP+joHIHZnmM8RmT+DFXq8eW5yDP5fWLd73Osh1295gHMmRb9JsyZYp1A+EZAHRcO+2zVM+zhGfve54/cWDPM67zbE8hPFt3QXi2AdefzraN8Ixjng3yNzxLW+FSVWY5+VJVbqr3md9bnr3P5cVl/HoL6NXzl/Tk4WPVC337xi06e/Es7Ti1k1YcX0l/HJlDvxz+LahknjLvnad2qce6ff2Wemx5DvJc5DnJc5PnKM9V9Trzcw8kOAv0PAeit9L9DZjj2tnstvgu2r+DP3MtRwzbZjzJMc/J6Hk2XgjP1l0Qnm3A5e55RnhGeDYNxzyHD6cP2xYSPIWcsVp6cmX7VlNRrYZGS1jNf/6Knj56Qnm5D+jerbt098YdunPtFt26wi7nBBfPU+YtjyGPJY8pjy3PQZ6LPCd5bu5eZ3nO7ueve23eQs+zP9SHJtHjvEd04thxOn3yFJ05dVqRfx8/eowePXhoNY4TdvLCES/61sZmyrmZQ8eOHO1qH3Hq+Ek6w+0kQ0zwvveCa6d95q9zaOrEH/h97fpFL3X44FH66IMvKPf2fesXunmHG56snmeEZ9Pl1PD8bf+hFBedoG57UwvnLqVxoyYjPJvE9eBuHo0YMpYOpB5Ut3ur1sZWNVpn9oz5CM8QEH/DczuHZ6vnGeHZlHfh2ZnDtt0k38i2wB2gpVNFhkZLL2/Rm0LKf/GKXjx5rnqAH97Po/t3c+ne7XvqOOR7QaLmxfOUectjyGPJY8pjy3OQ5+J5kjB5rsHodRYIz/7i6c3L17RsyVIaNWokjR07lsaNG0cjRoygBfMX0PPHz3iZ8p3aPf4GzOHl3t7Wpk5i8PPPP6t2kfYZM2YMjR49iuI3xlNleSXe995wZWXp8fr84wG0cukaWr86mtaujOrWhrUx9N2kH+nrL4ao4Y6qdPMONzxZxzxj2LbpcuIJw+TDXQLZmBETaf2antepdasY32fItyPVuiU7Axg9YwjXM/5MHz54DE0a973VFkzXTkLacsWSNTTgy8G0fPEqaqp1yBcdnuEZxzwbg2Oew0ckDNt2cwdo9/HP7h5oOf65pKCYCvLfqmOOXz59oTLRs8dPVa+whNxgkHk9e/RUzVseQx5LHlMeW56DZ4+zPMdgBWeB8OwvCcVcMjRgIYflwYMH06BBg2j2H7NVj7QqBGd78Xu6o6ODsq5m0fTp02ngwIE0bNgwilofRZWlFVYb6f4O/orr2qUsmjbln7zzPkrtRPZk2KDR6ueubUnUVMc7+U7ZvvCE8GxPOa7nWT7D+cP8YPohFZ7d60xPhg4cRRPHfkdnTpy1LrHhhOUQDritWppbaMeW3WrotrSDrn08Dfl2pBqpc+PqTep0yhfpvBy6wjN6no0JPDyj59kU6XnOcviwbU+6Hmg5ZEV6fGXItARZ6QWWUCujPaXTMZhknjJveQx5LHlMeWx5DqHocXZDeA6EK0C/fvWaFsyfT3Nmz6Gnj5+q32Gnpo+Q9zXXzawb9M9//lMF5+qKauuXuvtDtzpbO3mDJGdVrFBfPvTEuk+l+rbPUdsWnjBs255yXHgW/DrkrJ9VZVV/WYd0ZL2qLq+2dgLw5axZvMhlJ0x2zLzdBsoOnNVWDnm/yktxh2f0PBsTSHjGCcPM6grPDj3bto58hrkDtPskYtLjK9u/6nLrs016gmWklYTbYJJ5yrzlMeSx5DHlsd0nB3MHZ3mOuufuL4TnQMmHIlfhm0J69eyldcMpH5ROIe9t/iEjAmTHR5XuftAz13vdp+I/084rXPGEE4bZU44Mz0K2T74WPq/twZPP5bD3KsKzef6GZ2krhGezIq3nWcgXhO4ALR0m7l5ouaay9P5KmJXLWUmwDQWZtzyGPJY8pru32T1UO9DLUukgPAcLTwqCc98k7cI/8D6HgPCUfZ3DM3qejZdjwzNAuEB4toW/JwyTw0JwwjCzIjE8CwmnniFauHuiJcxKT7CQcBtM7vnKY3j2NHuG5mAHZ4HwDADgLZ5wnWd7CuEZwGYIz7YIvOcZ4dmUSBy27ckdoN3kPSg9wO4e6VBwz98dmN1CEZrdEJ4BALzFk9XzjPBsuhx3tm2AcIPwbAt/e55xqSrzJDw7/TrP3nL3+r4fqEPB87F0zyXYEJ4BALzFE455tqcQngFshvBsi0CGbeNSVWbJpaoiuec5UiA8AwB4i6eb17Jp964UhGfDlZS4l86fuWi1A8IzgHmu8By7PoEunLzKoa6SCl+WQYhJKJOff/w2X12SR5WufTxJeG5qo/WrY+nssUsc6ur+Ml8IvvKCWrp6Lps2b9xOBfkF3rUVhB0rPMuOCMIzAEDPeLqbc5f2p2dQK8Kz0Tq4P5OyLl+32gHhGcA8V3jeuTWRsi7mUNnbKtX7DKFV+sb6uWrpWiotLLU2iLr28eRqq60JO+nKuZtUVVL/l/lC8FUV1VHO1buUsiuNit8We9dWEHZUeFZjxBGeAQB6JTskcnIK3f9B6LhPCKL7PwAwR07SI+ui53GGEHpyNmH5qWuT7qCtzJPlLctd/q1rEwh//caPH68uMC09Kro7AACAB4zUsYcsc/Q4A9jPvS6287/BHJ7UT12bdMdzu/n+/CD41HLm5Y3PK8dqqKmjfoMHD6ZbN3O4hdHIAAAAAAAAAH/STpT/4hX1++CDD2jD+g3U1tKKAA0AAAAAAADgxpMMxz975iz1+9d//Vca8PUAyjiQQe2tbVaA5juoIQcAAAAAvVHDeAEAABxEPt+45NJvd27foWPHjlG/v/3tb/Tf//bfacCAARS1fgNl38ymitJy60B3+SNd+gYAAAAAAABwGs7AHS3tVFVWSQ/uPaCMA4do+7YddGD/QWvY9r/927/Rv/zLv6ifgwYOonFjx9GkSZNo8qTJWpMmToo4EydMBC9MmDABwoicMHDcuHHq31OnTqUfpv9A06dN98q0adPUuiHzmDJ5srb95f8AwJlk2yFWLF9OiYmJlJSUpH5C37Fl8xaKjd3ok40+i3OEOJ/E+yR+Yx8U57uEcBe/qW9J2ESbfLFpc5+z2Ve8TZLtUshs2eqzrd3YpmyjHdt30q6du2lv8l7al7aP/n8MLJgIfgwG2gAAAABJRU5ErkJggg==;" vertex="1" parent="1">
          <mxGeometry x="80" y="150" width="975" height="549" as="geometry" />
        </mxCell>
        <mxCell id="rb_Nm_DOeKc3W-S-42o_-5" value="" style="rounded=0;whiteSpace=wrap;html=1;fillColor=#dae8fc;strokeColor=#6c8ebf;fillStyle=solid;fillOpacity=30;" vertex="1" parent="1">
          <mxGeometry x="80" y="150" width="970" height="550" as="geometry" />
        </mxCell>
        <mxCell id="rb_Nm_DOeKc3W-S-42o_-6" value="" style="rounded=0;whiteSpace=wrap;html=1;fillColor=#f8cecc;strokeColor=#b85450;fillStyle=solid;fillOpacity=30;" vertex="1" parent="1">
          <mxGeometry x="94" y="160" width="936" height="520" as="geometry" />
        </mxCell>
        <mxCell id="rb_Nm_DOeKc3W-S-42o_-7" value="" style="rounded=0;whiteSpace=wrap;html=1;fillColor=#fff2cc;strokeColor=#d6b656;fillStyle=solid;fillOpacity=30;" vertex="1" parent="1">
          <mxGeometry x="100" y="260" width="920" height="410" as="geometry" />
        </mxCell>
      </root>
    </mxGraphModel>
  </diagram>
</mxfile>
